<svg width="470" height="445" viewBox="0 0 470 445" fill="none" xmlns="http://www.w3.org/2000/svg">
<path d="M44 432.69C42.67 431.55 39.71 427.94 42 423.75C42.83 422.21 44.61 421.45 46.22 420.75C47.876 420.189 49.4372 419.38 50.85 418.35C53.36 416.21 54.05 412.67 55.72 409.82C57.63 406.55 61.2 404.1 64.97 404.27C69.29 404.47 72.89 407.99 74.53 412.02C76.17 416.05 76.22 420.5 76.25 424.85C76.25 427.25 76.16 429.96 74.4 431.58C72.64 433.2 70.32 433.09 68.12 433.03L44.52 432.3" fill="#F5F5F5"/>
<path d="M89.12 367.78H27L38.18 434.45C38.4113 435.84 39.032 437.136 39.9701 438.187C40.9082 439.238 42.1253 440.002 43.48 440.39L43.7 440.45C43.8805 440.507 44.0641 440.554 44.25 440.59C44.665 440.675 45.0865 440.726 45.51 440.74V440.8L45.81 440.75H73.54C74.0504 440.75 74.5596 440.7 75.06 440.6C76.674 440.349 78.1615 439.577 79.2955 438.402C80.4295 437.226 81.1475 435.712 81.34 434.09L86.73 388.15L86.97 386.32L89.11 368.12L89.12 367.78ZM77.41 410.31H71L71.68 391H79.06L77.41 410.31ZM79.68 391H85.78L83.51 410.35H78L79.68 391ZM61.48 431.8L61.09 415H70.26L69.71 431.81L61.48 431.8ZM51.56 415H60.47L60.86 431.81H52.86L51.56 415ZM52.25 431.81H44.78C44.07 427.27 43.14 421.37 42.14 415H50.94L52.25 431.81ZM51.25 410.36L49.7 391H59.92L60.37 410.35L51.25 410.36ZM61.03 410.36L60.54 391H71.06L70.42 410.35L61.03 410.36ZM60.48 386.36L60 368.4H71.81L71.22 386.32L60.48 386.36ZM59.86 386.36H49.33L47.94 368.4H59.4L59.86 386.36ZM48.77 386.36H37.63C37.24 383.88 36.86 381.54 36.53 379.43C35.37 372.19 34.94 369.43 34.7 368.43H47.32L48.77 386.36ZM49.13 391L50.63 410.35H41.41C41.1 408.35 40.79 406.4 40.48 404.41C39.76 399.84 39.04 395.28 38.36 391H49.13ZM40.84 410.35H34.84L31.55 391H37.74C38.69 396.94 39.73 403.6 40.79 410.31L40.84 410.35ZM41.57 414.99C42.48 420.81 43.38 426.54 44.2 431.8H38.4L35.58 415L41.57 414.99ZM70.37 431.8L70.88 415H77L75.56 431.81L70.37 431.8ZM71.88 386.36L72.48 368.44H81L79.47 386.36H71.88ZM34.11 368.4C34.35 369.69 35.49 376.75 37 386.32H30.77L27.77 368.4H34.11ZM81 431.76H76.2L77.63 415H83L81 431.76ZM86.33 386.32H80.07L81.6 368.4H88.42L86.33 386.32Z" fill="#E0E0E0"/>
<path d="M138.13 9.88989H38.03V154.98H138.13V9.88989Z" fill="#E0E0E0"/>
<path d="M133.12 9.88989H33.02V154.98H133.12V9.88989Z" fill="#F5F5F5"/>
<path d="M120.68 25.5999H45.45V139.26H120.68V25.5999Z" fill="white"/>
<path d="M120.68 139.26C120.68 139.26 120.68 139.07 120.68 138.7C120.68 138.33 120.68 137.79 120.68 137.09C120.68 135.66 120.68 133.57 120.68 130.86C120.68 125.41 120.68 117.47 120.61 107.45C120.61 87.45 120.54 59.02 120.49 25.6L120.74 25.85H45.52L45.8 25.58C45.8 68.46 45.8 107.99 45.74 139.24L45.52 139.02L100.28 139.14L115.41 139.19H119.41C120.3 139.19 120.78 139.19 120.78 139.19C120.78 139.19 120.34 139.19 119.45 139.19H115.52L100.44 139.24L45.55 139.36H45.34V139.14C45.34 107.89 45.34 68.36 45.28 25.48V25.21H45.56H120.78H121.03V25.46C120.98 58.95 120.94 87.39 120.91 107.46C120.91 117.46 120.85 125.38 120.84 130.82C120.84 133.51 120.84 135.58 120.84 137C120.84 137.69 120.84 138.22 120.84 138.58C120.84 138.94 120.68 139.26 120.68 139.26Z" fill="#E0E0E0"/>
<path d="M133.4 9.88989C132.873 10.7993 132.274 11.6653 131.61 12.4799C130.45 14.0299 128.8 16.1499 126.92 18.4799C125.04 20.8099 123.27 22.7899 121.97 24.2299C121.304 25.0399 120.568 25.7895 119.77 26.4699C120.334 25.5868 120.973 24.7538 121.68 23.9799C123.02 22.3499 124.68 20.3399 126.5 18.1299L131.31 12.2799C131.936 11.4243 132.636 10.6247 133.4 9.88989Z" fill="#E0E0E0"/>
<path d="M121.06 138.89C124.8 144.837 129.202 150.342 134.18 155.3Z" fill="white"/>
<path d="M134.18 155.3C133.348 154.689 132.584 153.992 131.9 153.22C130.134 151.452 128.465 149.589 126.9 147.64C125.342 145.697 123.887 143.675 122.54 141.58C121.937 140.739 121.424 139.838 121.01 138.89C121.685 139.671 122.304 140.5 122.86 141.37C123.96 142.92 125.51 145.03 127.32 147.3C129.13 149.57 130.86 151.54 132.13 152.96C132.868 153.69 133.553 154.472 134.18 155.3Z" fill="#E0E0E0"/>
<path d="M33 154.86L46.11 138.68Z" fill="white"/>
<path d="M46.11 138.68C44.1475 141.546 42.0311 144.303 39.77 146.94C37.6535 149.697 35.3937 152.34 33 154.86C32.89 154.77 35.73 151.07 39.35 146.6C41.4686 143.848 43.7248 141.204 46.11 138.68Z" fill="#E0E0E0"/>
<path d="M33 9.88989C35.2547 12.3074 37.3778 14.8444 39.36 17.4899C41.4835 20.0296 43.4665 22.6835 45.3 25.4399C43.0623 23.0205 40.9591 20.48 39 17.8299C36.8564 15.2949 34.8534 12.6442 33 9.88989Z" fill="#E0E0E0"/>
<path d="M97.24 48.6799H72.05V120.2H97.24V48.6799Z" fill="#E0E0E0"/>
<path d="M441.87 0.169922H347.38V98.6699H441.87V0.169922Z" fill="#E0E0E0"/>
<path d="M435.47 0.169922H340.98V98.6699H435.47V0.169922Z" fill="#FAFAFA"/>
<path d="M435.5 98.6999H341V0.139893H435.5V98.6999ZM341 98.6399H435.43V0.199894H341V98.6399Z" fill="#E0E0E0"/>
<path d="M422.77 13.4099H353.68V85.4299H422.77V13.4099Z" fill="white"/>
<path d="M353.68 85.9099C353.192 86.6395 352.622 87.3106 351.98 87.9099C350.87 89.0699 349.32 90.6499 347.59 92.3599C345.86 94.0699 344.25 95.5999 343.07 96.6799C342.471 97.3103 341.8 97.8676 341.07 98.3399C341.561 97.6121 342.131 96.9413 342.77 96.3399C343.87 95.1799 345.43 93.5999 347.17 91.8799C348.91 90.1599 350.52 88.6299 351.69 87.5499C352.285 86.9249 352.953 86.3743 353.68 85.9099Z" fill="#E0E0E0"/>
<path d="M422.77 85.73C423.502 86.2148 424.174 86.7855 424.77 87.43C425.94 88.54 427.51 90.09 429.22 91.83C430.93 93.57 432.46 95.16 433.55 96.34C434.18 96.9387 434.738 97.61 435.21 98.34C434.48 97.8518 433.809 97.2814 433.21 96.64C432.05 95.54 430.47 93.98 428.75 92.24C427.03 90.5 425.51 88.89 424.42 87.72C423.795 87.1224 423.242 86.4546 422.77 85.73Z" fill="#E0E0E0"/>
<path d="M422.58 13.5999C423.071 12.8696 423.645 12.1985 424.29 11.5999C425.39 10.4299 426.94 8.85991 428.68 7.14991C430.42 5.43991 432.01 3.90991 433.19 2.82991C433.787 2.19507 434.459 1.63438 435.19 1.15991C434.706 1.89257 434.135 2.56409 433.49 3.15991C432.39 4.31991 430.83 5.89991 429.09 7.61991C427.35 9.33991 425.75 10.8599 424.57 11.9499C423.975 12.5775 423.307 13.1314 422.58 13.5999Z" fill="#E0E0E0"/>
<path d="M353.49 13.7799C352.76 13.2889 352.089 12.7151 351.49 12.0699C350.33 10.9699 348.75 9.41992 347.04 7.67992C345.33 5.93992 343.8 4.33992 342.72 3.16992C342.085 2.57262 341.525 1.90114 341.05 1.16992C341.783 1.65403 342.454 2.22483 343.05 2.86992C344.21 3.96992 345.79 5.51992 347.51 7.26992C349.23 9.01992 350.75 10.6099 351.84 11.7899C352.471 12.3815 353.026 13.0501 353.49 13.7799Z" fill="#E0E0E0"/>
<path d="M422.58 85.4299C422.58 85.4299 422.58 85.2999 422.58 85.0799C422.58 84.8599 422.58 84.4999 422.58 84.0799C422.58 83.1799 422.58 81.8799 422.58 80.1899C422.58 76.7799 422.58 71.8199 422.51 65.5199C422.51 52.8999 422.43 34.9299 422.37 13.4199L422.64 13.6799H353.75L354.06 13.3799C354.06 39.8099 354.06 64.5399 354.01 85.3799L353.75 85.1099L403.64 85.2499L417.64 85.3199H421.35H422.35C422.46 85.3117 422.57 85.3117 422.68 85.3199H422.38H421.45H417.79L403.84 85.3899L353.78 85.5199H353.52V85.2599C353.52 64.3999 353.52 39.6699 353.52 13.2599V13.0999H353.83H422.72H422.99V13.3699C422.93 34.9499 422.88 52.9799 422.85 65.6399C422.85 71.9099 422.85 76.8599 422.78 80.2499C422.78 81.9165 422.78 83.1965 422.78 84.0899C422.78 84.5099 422.78 84.8299 422.78 85.0899C422.725 85.2095 422.658 85.3234 422.58 85.4299Z" fill="#E0E0E0"/>
<path d="M399.75 37.8899H376.7V60.9399H399.75V37.8899Z" fill="#EBEBEB"/>
<path d="M291.37 409.18V439.29H335.4H383.97V409.18H291.37Z" fill="#F5F5F5"/>
<path d="M287.48 400.76V409.18H387.2V400.76H335.4H287.48Z" fill="#E0E0E0"/>
<path d="M337.34 439.29H383.97V409.18H387.2V400.76H335.4V408.4L337.34 439.29Z" fill="#E0E0E0"/>
<path d="M323.1 414.03H304.32V418.56H323.1V414.03Z" fill="#E0E0E0"/>
<path d="M326.01 424.23H301.9V433.8H326.01V424.23Z" fill="white"/>
<path d="M305.61 370.69V400.8H349.65H398.21V370.69H305.61Z" fill="#F5F5F5"/>
<path d="M302.17 362.27V370.69H401.9V362.27H350.09H302.17Z" fill="#EBEBEB"/>
<path d="M351.59 400.8H398.66V370.69H401.45V362.27H349.65V369.91L351.59 400.8Z" fill="#EBEBEB"/>
<path d="M337.34 375.54H318.56V380.07H337.34V375.54Z" fill="#E0E0E0"/>
<path d="M340.26 385.74H316.15V395.31H340.26V385.74Z" fill="white"/>
<path d="M469.21 440.28C469.21 440.42 364.34 440.54 235.01 440.54C105.68 440.54 0.790039 440.42 0.790039 440.28C0.790039 440.14 105.64 440 235 440C364.36 440 469.21 440.13 469.21 440.28Z" fill="#263238"/>
<path d="M232.74 189.39V190.39H228.74V189.6L231.04 186.88H228.8V185.88H232.69V186.67L230.39 189.39H232.74Z" fill="#263238"/>
<path d="M225.41 185V187.36H216V185.51L221.38 179.15H216.14V176.79H225.25V178.64L219.85 185H225.41Z" fill="#263238"/>
<path d="M211.93 179.59V184.34H192.93V180.62L203.78 167.79H193.21V163H211.57V166.72L200.73 179.55L211.93 179.59Z" fill="#263238"/>
<path d="M207 122.14H192.49V140.81H165.59V122.14H114V104.14L157.76 43.23H186.34L146.61 100.23H166.41V83.67H192.47V100.26H207V122.14Z" fill="#F85757"/>
<path d="M212.55 92C212.55 59.81 230.67 41.27 255.62 41.27C280.57 41.27 298.55 59.84 298.55 92C298.55 124.16 280.43 142.73 255.62 142.73C230.81 142.73 212.55 124.23 212.55 92ZM270.81 92C270.81 71.51 264.4 63.85 255.62 63.85C246.84 63.85 240.29 71.51 240.29 92C240.29 112.49 246.7 120.16 255.62 120.16C264.54 120.16 270.81 112.52 270.81 92Z" fill="#F85757"/>
<path d="M400 122.14H385.5V140.81H358.6V122.14H307V104.14L350.77 43.23H379.34L339.62 100.23H359.41V83.67H385.47V100.26H400V122.14Z" fill="#F85757"/>
<g opacity="0.3">
<path d="M207 122.14H192.49V140.81H165.59V122.14H114V104.14L157.76 43.23H186.34L146.61 100.23H166.41V83.67H192.47V100.26H207V122.14Z" fill="black"/>
<path d="M212.55 92C212.55 59.81 230.67 41.27 255.62 41.27C280.57 41.27 298.55 59.84 298.55 92C298.55 124.16 280.43 142.73 255.62 142.73C230.81 142.73 212.55 124.23 212.55 92ZM270.81 92C270.81 71.51 264.4 63.85 255.62 63.85C246.84 63.85 240.29 71.51 240.29 92C240.29 112.49 246.7 120.16 255.62 120.16C264.54 120.16 270.81 112.52 270.81 92Z" fill="black"/>
<path d="M400 122.14H385.5V140.81H358.6V122.14H307V104.14L350.77 43.23H379.34L339.62 100.23H359.41V83.67H385.47V100.26H400V122.14Z" fill="black"/>
</g>
<path d="M198.91 122.14H184.41V140.81H157.51V122.14H105.94V104.14L149.71 43.23H178.28L138.56 100.23H158.35V83.67H184.41V100.26H198.91V122.14Z" fill="#F85757"/>
<path d="M204.47 92C204.47 59.81 222.59 41.27 247.54 41.27C272.49 41.27 290.47 59.84 290.47 92C290.47 124.16 272.35 142.73 247.54 142.73C222.73 142.73 204.47 124.23 204.47 92ZM262.73 92C262.73 71.51 256.32 63.85 247.54 63.85C238.76 63.85 232.21 71.51 232.21 92C232.21 112.49 238.62 120.16 247.54 120.16C256.46 120.16 262.73 112.52 262.73 92Z" fill="#F85757"/>
<path d="M391.93 122.14H377.43V140.81H350.53V122.14H299V104.14L342.77 43.23H371.3L331.58 100.23H351.37V83.67H377.43V100.26H391.93V122.14Z" fill="#F85757"/>
<path d="M215.79 19.1799C215.79 13.4099 220.32 9.17993 226.46 9.17993C232.6 9.17993 237.14 13.3999 237.14 19.1799C237.14 24.9599 232.61 29.1799 226.46 29.1799C220.31 29.1799 215.79 24.9399 215.79 19.1799ZM231.65 19.1799C231.681 18.4799 231.569 17.7808 231.323 17.125C231.076 16.4691 230.699 15.87 230.215 15.3637C229.73 14.8575 229.148 14.4546 228.504 14.1793C227.859 13.9041 227.166 13.7622 226.465 13.7622C225.764 13.7622 225.071 13.9041 224.426 14.1793C223.782 14.4546 223.2 14.8575 222.715 15.3637C222.231 15.87 221.854 16.4691 221.607 17.125C221.361 17.7808 221.249 18.4799 221.28 19.1799C221.249 19.88 221.361 20.579 221.607 21.2349C221.854 21.8908 222.231 22.4899 222.715 22.9961C223.2 23.5024 223.782 23.9053 224.426 24.1805C225.071 24.4558 225.764 24.5977 226.465 24.5977C227.166 24.5977 227.859 24.4558 228.504 24.1805C229.148 23.9053 229.73 23.5024 230.215 22.9961C230.699 22.4899 231.076 21.8908 231.323 21.2349C231.569 20.579 231.681 19.88 231.65 19.1799Z" fill="#263238"/>
<path d="M238.81 21.3199C238.81 16.8399 242.35 13.6599 247.21 13.6599C252.07 13.6599 255.6 16.8399 255.6 21.3199C255.6 25.7999 252.12 29.0199 247.21 29.0199C242.3 29.0199 238.81 25.8099 238.81 21.3199ZM250.33 21.3199C250.33 19.0699 248.99 17.7999 247.21 17.7999C245.43 17.7999 244.08 19.0699 244.08 21.3199C244.08 23.5699 245.45 24.8799 247.21 24.8799C248.97 24.8799 250.33 23.5899 250.33 21.3199Z" fill="#263238"/>
<path d="M274.67 21.3399C274.67 26.0599 271.41 29.0199 267.37 29.0199C266.61 29.0576 265.85 28.9386 265.138 28.6703C264.426 28.4019 263.776 27.9899 263.23 27.4599V34.0999H258V13.9099H263V15.3899C263.552 14.7869 264.235 14.3177 264.995 14.0179C265.756 13.7182 266.575 13.5957 267.39 13.6599C271.41 13.6599 274.67 16.6199 274.67 21.3399ZM269.4 21.3399C269.4 19.0899 268.03 17.7999 266.28 17.7999C264.53 17.7999 263.15 19.0899 263.15 21.3399C263.15 23.5899 264.52 24.8799 266.28 24.8799C268.04 24.8799 269.4 23.5899 269.4 21.3399Z" fill="#263238"/>
<path d="M275.91 27.49L277.47 23.92C279.051 24.8208 280.84 25.293 282.66 25.29C284.41 25.29 284.99 24.91 284.99 24.29C284.99 22.29 276.21 24.56 276.21 18.61C276.21 15.81 278.79 13.67 283.45 13.67C285.478 13.6284 287.488 14.0598 289.32 14.93L287.76 18.47C286.451 17.7427 284.977 17.364 283.48 17.37C281.72 17.37 281.09 17.87 281.09 18.37C281.09 20.42 289.84 18.2 289.84 24.1C289.84 26.84 287.32 28.98 282.49 28.98C280.207 29.04 277.945 28.5278 275.91 27.49Z" fill="#263238"/>
<path d="M291.44 26.1398C291.516 25.3664 291.877 24.6489 292.453 24.127C293.029 23.605 293.778 23.3159 294.555 23.3159C295.332 23.3159 296.082 23.605 296.657 24.127C297.233 24.6489 297.594 25.3664 297.67 26.1398C297.625 26.9355 297.277 27.6837 296.698 28.231C296.119 28.7783 295.352 29.0833 294.555 29.0833C293.758 29.0833 292.991 28.7783 292.412 28.231C291.833 27.6837 291.485 26.9355 291.44 26.1398ZM291.44 9.56982H297.64L296.59 21.7798H292.45L291.44 9.56982Z" fill="#263238"/>
<path d="M123.5 348.35H111.16V407.62H123.5V348.35Z" fill="#E0E0E0"/>
<path d="M73.1901 340.72C73.3901 340.72 111.19 352.57 111.19 352.57H123.52L166.81 340.72H73.1901Z" fill="#E0E0E0"/>
<path d="M38.7 141.93C33.23 143.16 28.34 148.21 29.16 158.29C29.16 158.29 24.8 159.11 25.07 167.02C25.34 174.93 24.53 224.02 34.34 250.72C42.41 272.67 56.34 319.62 61.08 335.65C61.5485 337.236 62.5175 338.627 63.8423 339.617C65.1671 340.606 66.7765 341.141 68.43 341.14H175.15C177.03 341.133 178.889 340.748 180.617 340.007C182.344 339.267 183.905 338.186 185.206 336.829C186.507 335.472 187.522 333.867 188.189 332.109C188.856 330.352 189.163 328.478 189.09 326.6C188.927 322.982 187.368 319.567 184.741 317.074C182.113 314.581 178.622 313.203 175 313.23L97.18 314.04C97.18 314.04 92.41 288.34 87.5 288.04C87.5 288.04 89.68 271.95 81.5 267.32C81.5 267.32 83.13 247.46 74.41 245.67C74.41 245.67 75.77 229.05 68.41 226.1C68.41 226.1 72.5 211.15 64.87 203.52C64.87 203.52 67.05 186.07 64.87 172.98C62.69 159.89 61.89 136.76 38.7 141.93Z" fill="#455A64"/>
<path d="M180.62 328.22C180.62 328.22 180.44 328.22 180.08 328.22H178.5L172.37 328.27L149.52 328.34L71.33 328.43H71.15L71.09 328.26L60.09 296.36C53.7 277.67 47.65 259.85 42.32 243.59C40.99 239.52 39.71 235.59 38.51 231.67C37.8884 229.767 37.3743 227.83 36.97 225.87C36.7639 224.912 36.6104 223.944 36.51 222.97C36.4 221.97 36.23 221.05 36.17 220.1C35.48 212.51 35.32 205.41 35.17 198.94C35 186 35.17 175.52 35.35 168.29C35.45 164.68 35.53 161.88 35.58 159.96L35.67 157.79C35.67 157.3 35.72 157.06 35.72 157.06C35.72 157.06 35.72 157.31 35.72 157.79C35.72 158.27 35.72 159.02 35.72 159.96C35.72 161.88 35.64 164.69 35.58 168.29C35.48 175.53 35.35 186 35.58 198.94C35.72 205.4 35.9 212.49 36.58 220.06C36.65 221.06 36.81 221.95 36.92 222.91C37.023 223.875 37.1799 224.833 37.39 225.78C37.8149 227.742 38.3525 229.679 39 231.58C40.2 235.45 41.49 239.41 42.83 243.48C48.18 259.73 54.25 277.54 60.63 296.23C64.43 307.23 68.11 318.01 71.63 328.14L71.39 327.97L149.58 328.06L172.43 328.13H178.56H180.14C180.44 328.2 180.62 328.22 180.62 328.22Z" fill="#263238"/>
<path d="M85.57 314.16C85.2668 314.483 84.9318 314.774 84.57 315.03C83.9 315.56 82.95 316.36 81.81 317.36C78.8344 319.982 76.0661 322.831 73.53 325.88C70.9961 328.93 68.6899 332.162 66.63 335.55C65.84 336.85 65.22 337.92 64.81 338.67C64.6152 339.069 64.3806 339.448 64.11 339.8C64.2409 339.376 64.4151 338.968 64.63 338.58C64.99 337.8 65.56 336.7 66.31 335.37C68.2908 331.9 70.573 328.61 73.13 325.54C75.6776 322.467 78.5028 319.635 81.57 317.08C82.75 316.08 83.74 315.35 84.44 314.87C84.7901 314.593 85.169 314.355 85.57 314.16Z" fill="#263238"/>
<path d="M97.1801 314C97.1801 314 96.9201 314 96.4101 314L94.1701 314.06L85.5701 314.2H85.4601V314.09L85.2801 313.03C85.1721 312.688 85.0418 312.354 84.8901 312.03C84.537 311.329 83.9231 310.794 83.1801 310.54C81.4385 310.164 79.6195 310.453 78.0801 311.35L77.7201 311.52L77.8501 311.15C79.057 307.622 79.2304 303.823 78.3501 300.2C77.3585 295.925 74.9734 292.101 71.5701 289.33L71.4401 289.23L71.5001 289.08C72.5739 286.028 72.7196 282.727 71.9187 279.593C71.1177 276.459 69.4062 273.632 67.0001 271.47L66.8701 271.37L66.9301 271.21C68.2299 266.996 68.1553 262.477 66.7171 258.308C65.2789 254.139 62.5517 250.536 58.9301 248.02L58.8101 247.94V247.8C58.8904 245.04 58.8036 242.279 58.5501 239.53C58.3118 236.718 57.7926 233.938 57.0001 231.23C56.1801 228.61 54.9401 225.99 52.7501 224.47L52.5901 224.36L52.6501 224.18C53.8101 220.162 54.2668 215.973 54.0001 211.8C53.8423 209.819 53.4185 207.868 52.7401 206C52.0428 204.202 51.0265 202.546 49.7401 201.11L49.6201 200.97L49.7101 200.82C51.9032 197.338 53.1063 193.324 53.1901 189.21C53.2063 185.495 51.9972 181.878 49.7501 178.92V178.86V178.79C49.8729 173.852 48.8781 168.949 46.8401 164.45C45.9665 162.628 44.7115 161.015 43.1601 159.72C41.8367 158.654 40.2872 157.905 38.6301 157.53C37.297 157.243 35.9298 157.149 34.5701 157.25L32.9401 157.43L31.6001 157.7C30.8001 157.85 30.2101 158.07 29.8101 158.16C29.4101 158.25 29.1901 158.31 29.1901 158.31C29.9704 158.029 30.7648 157.789 31.5701 157.59L32.9101 157.29L34.5601 157.08C35.9344 156.959 37.3191 157.04 38.6701 157.32C40.3727 157.677 41.9685 158.427 43.3301 159.51C44.9252 160.817 46.2182 162.455 47.1201 164.31C49.2064 168.85 50.2323 173.805 50.1201 178.8V178.68C52.4354 181.701 53.687 185.403 53.6801 189.21C53.6077 193.413 52.3907 197.517 50.1601 201.08V200.79C51.4855 202.258 52.5387 203.952 53.2701 205.79C53.9756 207.721 54.413 209.74 54.5701 211.79C54.8564 216.03 54.3996 220.287 53.2201 224.37L53.0001 224C55.3701 225.65 56.6201 228.37 57.4601 231C58.2751 233.738 58.8046 236.553 59.0401 239.4C59.2954 242.172 59.3789 244.957 59.2901 247.74L59.1801 247.51C62.8997 250.085 65.7012 253.779 67.1776 258.056C68.6541 262.332 68.7285 266.968 67.3901 271.29L67.3201 271.02C69.7981 273.256 71.5535 276.179 72.3621 279.418C73.1708 282.656 72.996 286.061 71.8601 289.2L71.7901 288.95C75.2646 291.781 77.6875 295.697 78.6701 300.07C79.5547 303.764 79.3568 307.635 78.1001 311.22L77.8801 311.02C78.732 310.6 79.6369 310.297 80.5701 310.12C81.4512 309.925 82.368 309.963 83.2301 310.23C83.6477 310.381 84.03 310.616 84.3534 310.92C84.6767 311.225 84.9343 311.592 85.1101 312C85.2697 312.356 85.4034 312.724 85.5101 313.1L85.6901 314.2L85.5701 314.09H94.1701H96.4101L97.1801 314Z" fill="#263238"/>
<g opacity="0.3">
<path d="M82.9001 267L47.2101 271.6C47.7472 272.549 48.4957 273.36 49.3976 273.973C50.2994 274.585 51.3303 274.981 52.4101 275.13C54.5683 275.402 56.7545 275.358 58.9001 275C68.1406 273.997 77.4414 273.663 86.7301 274C85.6894 271.545 84.4064 269.2 82.9001 267Z" fill="black"/>
</g>
<path d="M65.26 201.59C62.8003 201.912 60.3205 202.055 57.84 202.02C55.3639 202.152 52.8817 202.119 50.41 201.92C52.8698 201.598 55.3496 201.454 57.83 201.49C60.3062 201.357 62.7884 201.391 65.26 201.59Z" fill="#263238"/>
<path d="M64.9301 431C64.9301 431 70.6401 413.58 78.5101 409.36C91.1501 402.59 120.3 399.36 120.3 399.36L123.49 407.6C123.49 407.6 84.6201 409.13 78.4901 416.97C74.9947 421.463 71.7369 426.136 68.7301 430.97L64.9301 431Z" fill="#E0E0E0"/>
<path d="M69.91 440.25C74.4664 440.25 78.16 436.556 78.16 432C78.16 427.444 74.4664 423.75 69.91 423.75C65.3537 423.75 61.66 427.444 61.66 432C61.66 436.556 65.3537 440.25 69.91 440.25Z" fill="#263238"/>
<path d="M170.28 430.69C170.28 430.69 164.57 413.27 156.7 409.05C144.06 402.28 114.92 399.05 114.92 399.05L111.72 407.29C111.72 407.29 150.59 408.82 156.72 416.67C160.217 421.162 163.475 425.835 166.48 430.67L170.28 430.69Z" fill="#E0E0E0"/>
<path d="M167.37 440.25C171.926 440.25 175.62 436.556 175.62 432C175.62 427.444 171.926 423.75 167.37 423.75C162.814 423.75 159.12 427.444 159.12 432C159.12 436.556 162.814 440.25 167.37 440.25Z" fill="#263238"/>
<path d="M113.07 403.8L114.88 426.22L119.98 427.23V403.8" fill="#E0E0E0"/>
<path d="M117.32 440.25C121.876 440.25 125.57 436.556 125.57 432C125.57 427.444 121.876 423.75 117.32 423.75C112.764 423.75 109.07 427.444 109.07 432C109.07 436.556 112.764 440.25 117.32 440.25Z" fill="#263238"/>
<path d="M56 228.24C57.9818 227.568 60.0153 227.06 62.08 226.72C64.1121 226.216 66.1826 225.882 68.27 225.72C66.2886 226.393 64.2551 226.902 62.19 227.24C60.1576 227.742 58.0873 228.077 56 228.24Z" fill="#263238"/>
<path d="M73.68 245.69C73.0281 245.998 72.339 246.22 71.63 246.35C70.34 246.68 68.55 247.06 66.55 247.35C64.55 247.64 62.73 247.85 61.41 247.93C60.6965 248.025 59.9735 248.025 59.26 247.93C59.26 247.78 62.5 247.47 66.47 246.84C70.44 246.21 73.64 245.55 73.68 245.69Z" fill="#263238"/>
<path d="M88.42 288.91C87.6442 289.126 86.845 289.247 86.04 289.27C84.56 289.42 82.51 289.55 80.24 289.62C77.97 289.69 75.92 289.62 74.43 289.62C73.627 289.64 72.8245 289.563 72.04 289.39C72.8334 289.263 73.6374 289.217 74.44 289.25L80.23 289.12L86.01 288.92C86.811 288.836 87.6184 288.833 88.42 288.91Z" fill="#263238"/>
<path d="M92.5701 304.57C92.5701 304.73 89.2501 305.45 85.3801 307.1C81.5101 308.75 78.6501 310.63 78.5601 310.5C79.0884 309.959 79.6952 309.5 80.3601 309.14C81.8949 308.169 83.507 307.326 85.1801 306.62C86.8491 305.909 88.5752 305.34 90.3401 304.92C91.0648 304.706 91.8146 304.588 92.5701 304.57Z" fill="#263238"/>
<path d="M159.29 341.33C159.29 341.47 139.62 341.55 115.36 341.49C91.1 341.43 71.42 341.29 71.42 341.14C71.42 340.99 91.09 340.92 115.36 340.97C139.63 341.02 159.29 341.18 159.29 341.33Z" fill="#263238"/>
<path d="M122.88 353C120.935 353.263 118.971 353.35 117.01 353.26C115.046 353.35 113.078 353.263 111.13 353C113.079 352.743 115.046 352.656 117.01 352.74C118.971 352.656 120.935 352.743 122.88 353Z" fill="#263238"/>
<path d="M123.44 400.78C121.635 401.796 119.609 402.356 117.539 402.41C115.468 402.464 113.415 402.011 111.56 401.09C113.522 401.589 115.536 401.858 117.56 401.89C119.556 401.747 121.529 401.375 123.44 400.78Z" fill="#263238"/>
<path d="M244.92 215.53C244.92 215.53 240.22 208.32 237.5 205.86C235.4 203.97 225.21 200.22 220.63 198.59C219.162 198.071 217.617 197.8 216.06 197.79C210.06 197.73 194.2 197.79 186.12 199.23C176.05 201.07 242.86 253.61 242.86 253.61L298.51 253.74L302.15 240L265 232.33L244.5 216.07" fill="#E0E0E0"/>
<g opacity="0.3">
<path d="M201.5 201.13C201.5 201.13 205.18 201.31 210.31 202.13C215.44 202.95 221.07 203.21 223.89 205.71C225.78 207.38 237.34 207.71 237.34 207.71L221.34 207.12L201.5 201.13Z" fill="black"/>
</g>
<path d="M196.22 199.81C196.557 199.805 196.893 199.846 197.22 199.93C197.87 200.05 198.82 200.24 199.97 200.53C202.28 201.1 205.44 201.98 208.91 203.02L212.74 204.21H212.68C215.289 204.326 217.881 204.691 220.42 205.3C220.631 205.691 220.793 206.108 220.9 206.54C220.633 206.186 220.405 205.803 220.22 205.4L220.28 205.46C217.736 205.032 215.168 204.761 212.59 204.65H212.53L208.69 203.49L199.81 200.86L197.11 200.09C196.803 200.034 196.504 199.94 196.22 199.81Z" fill="#263238"/>
<path d="M341.6 253.22C341.68 252.8 340.5 248.01 340.38 247.53C340.26 247.05 336.6 241.53 336.6 241.53L334.6 240.92C334.6 240.92 325.3 238.71 323.42 238.84L322.11 238.98C322.11 238.98 319.67 239.16 318.71 239.33C317.75 239.5 311.8 241.59 311.8 241.59C310.342 241.899 308.848 242.01 307.36 241.92C305.308 241.587 303.275 241.147 301.27 240.6L298.89 253.7L303.39 253.56C304.795 254.058 306.245 254.417 307.72 254.63C309.34 254.74 313.93 255.24 313.93 255.24C313.93 255.24 321.02 258.24 322.8 254.06C324.58 249.88 317.74 249.45 317.74 249.45L319.86 247.95L325.29 247.39L326.7 247.84L328.25 250.24C328.25 250.24 327.83 255.54 331.25 255.18L332.15 255.08L332.63 249.64L331.01 244.14L334.59 249.57C334.59 249.57 334.9 254.27 336.45 254.88C336.569 254.934 336.7 254.958 336.83 254.95C338.71 254.89 339.08 254.36 339.08 254.36L339.47 253.41C339.47 253.41 341.33 254.65 341.6 253.22Z" fill="#FFBF9D"/>
<path d="M321.27 239C321.836 238.917 322.413 238.941 322.97 239.07C324.343 239.255 325.687 239.615 326.97 240.14C328.278 240.643 329.437 241.469 330.34 242.54C330.739 242.969 330.997 243.51 331.08 244.09C330.99 244.09 330.74 243.52 330.08 242.78C329.146 241.833 328.021 241.097 326.78 240.62C323.84 239.45 321.24 239.19 321.27 239Z" fill="#FF9A6C"/>
<path d="M324.77 244.72C324.91 244.72 325.01 245.29 325.08 245.97C325.15 246.65 325.17 247.23 325.03 247.27C324.89 247.31 324.64 246.75 324.56 246.03C324.48 245.31 324.62 244.71 324.77 244.72Z" fill="#FF9A6C"/>
<path d="M321.27 244.9C321.38 244.8 322.37 245.9 323.95 246.66C325.53 247.42 326.95 247.66 326.95 247.78C325.823 247.941 324.675 247.708 323.7 247.12C322.655 246.688 321.794 245.902 321.27 244.9Z" fill="#FF9A6C"/>
<path d="M309.93 245.39C310.432 245.433 310.914 245.605 311.33 245.89C312.395 246.475 313.309 247.3 314 248.3C314.214 248.621 314.408 248.955 314.58 249.3L314.31 249.16C315.612 248.899 316.961 249.013 318.2 249.49C316.928 249.471 315.656 249.528 314.39 249.66H314.21L314.12 249.5C313.956 249.179 313.772 248.869 313.57 248.57C312.569 247.289 311.334 246.21 309.93 245.39Z" fill="#FF9A6C"/>
<path d="M334.8 240.87C335.331 241.294 335.787 241.805 336.15 242.38C337.106 243.711 337.88 245.164 338.45 246.7C339.025 248.236 339.385 249.845 339.52 251.48C339.635 252.142 339.635 252.818 339.52 253.48C339.212 251.232 338.704 249.017 338 246.86C337.113 244.772 336.042 242.768 334.8 240.87Z" fill="#FF9A6C"/>
<path d="M246.22 397.78L245.22 424.84C245.22 424.84 272.35 435 272.65 440L220.11 439.89L220 397.65L246.22 397.78Z" fill="#455A64"/>
<path d="M229 422.53C228.495 422.681 228.064 423.015 227.791 423.465C227.518 423.916 227.421 424.452 227.52 424.97C227.651 425.483 227.974 425.925 228.423 426.205C228.873 426.484 229.412 426.579 229.93 426.47C230.466 426.307 230.923 425.951 231.211 425.47C231.499 424.99 231.599 424.42 231.49 423.87C231.294 423.353 230.906 422.931 230.407 422.693C229.907 422.454 229.336 422.418 228.81 422.59" fill="#E0E0E0"/>
<path d="M220.11 439.88L220.27 435.62L270.58 437.32C270.58 437.32 272.91 438.32 272.65 439.99L220.11 439.88Z" fill="#263238"/>
<path d="M246.05 424.57C246.05 424.83 244.75 424.94 243.49 425.76C242.23 426.58 241.55 427.66 241.31 427.56C241.07 427.46 241.46 425.98 243.01 425.01C244.56 424.04 246.1 424.34 246.05 424.57Z" fill="white"/>
<path d="M251.55 426.86C251.61 427.11 250.5 427.54 249.62 428.63C248.74 429.72 248.5 430.86 248.24 430.85C247.98 430.84 247.82 429.38 248.94 428.06C250.06 426.74 251.55 426.62 251.55 426.86Z" fill="white"/>
<path d="M254.67 433.46C254.43 433.52 254.08 432.24 254.74 430.83C255.4 429.42 256.6 428.83 256.74 429.09C256.88 429.35 256.1 430.09 255.58 431.21C255.06 432.33 254.92 433.44 254.67 433.46Z" fill="white"/>
<path d="M245.6 418.38C245.49 418.61 244.31 418.26 242.86 418.38C241.41 418.5 240.28 418.93 240.15 418.71C240.02 418.49 241.1 417.58 242.81 417.49C244.52 417.4 245.72 418.18 245.6 418.38Z" fill="white"/>
<path d="M204.11 395L187.11 416C187.11 416 202.73 440.4 200 444.6L158 413L183.21 379.13L204.11 395Z" fill="#455A64"/>
<path d="M175.46 404.42C174.963 404.242 174.417 404.253 173.927 404.45C173.437 404.647 173.036 405.017 172.8 405.49C172.599 405.975 172.591 406.518 172.777 407.008C172.963 407.499 173.329 407.9 173.8 408.13C174.327 408.32 174.905 408.308 175.423 408.098C175.942 407.888 176.365 407.493 176.61 406.99C176.765 406.458 176.708 405.887 176.451 405.397C176.193 404.906 175.756 404.535 175.23 404.36" fill="#E0E0E0"/>
<path d="M158 413L160.67 409.69L199.92 441.21C199.92 441.21 201.18 443.43 199.98 444.59L158 413Z" fill="#263238"/>
<path d="M187.91 416.31C187.75 416.51 186.65 415.83 185.15 415.73C183.65 415.63 182.46 416.09 182.33 415.86C182.2 415.63 183.4 414.69 185.22 414.86C187.04 415.03 188.1 416.15 187.91 416.31Z" fill="white"/>
<path d="M190.94 421.44C190.84 421.68 189.69 421.36 188.34 421.7C186.99 422.04 186.1 422.81 185.9 422.65C185.7 422.49 186.45 421.23 188.13 420.83C189.81 420.43 191.09 421.24 190.94 421.44Z" fill="white"/>
<path d="M189.48 428.59C189.26 428.5 189.74 427.26 191.12 426.53C192.5 425.8 193.78 426.08 193.74 426.32C193.7 426.56 192.65 426.7 191.54 427.32C190.43 427.94 189.7 428.73 189.48 428.59Z" fill="white"/>
<path d="M191.26 411.08C191.04 411.2 190.31 410.21 189.09 409.42C187.87 408.63 186.69 408.31 186.72 408.06C186.75 407.81 188.16 407.72 189.59 408.68C191.02 409.64 191.48 411 191.26 411.08Z" fill="white"/>
<path d="M243.51 208.27C248.602 206.913 253.801 206 259.05 205.54C264.326 205.089 269.631 205.955 274.49 208.06C275.21 208.39 280.03 211.17 279.88 211.95C279.78 212.51 275.23 210.68 274.72 210.95C269.8 213.3 264.1 213.59 258.72 212.71C253.502 211.807 248.401 210.328 243.51 208.3" fill="#263238"/>
<path d="M216.32 206.27L263.58 209.38C276.78 210.03 287.4 218.24 286.39 231.38L286.23 232.59C285.432 238.471 282.451 243.837 277.878 247.62C273.305 251.403 267.476 253.328 261.55 253.01C250.11 252.38 237.48 251.55 231.43 250.65C218.88 248.83 218.64 236 218.64 236C218.64 236 217.52 235.86 213.82 235.52L201.82 226.87L216.32 206.27Z" fill="#FFBF9D"/>
<path d="M218.64 236C219.436 230.199 221.884 224.749 225.69 220.3C225.69 220.3 215.69 222.96 215.14 235.64L218.64 236Z" fill="#FF9A6C"/>
<path d="M252.65 241.64C252.91 241.84 252.07 243.33 252.32 245.26C252.57 247.19 253.72 248.48 253.51 248.72C253.3 248.96 252.97 248.67 252.44 248.11C251.755 247.345 251.322 246.389 251.2 245.37C251.067 244.363 251.26 243.34 251.75 242.45C252.13 241.8 252.53 241.55 252.65 241.64Z" fill="#263238"/>
<path d="M254.05 224.38C254.28 224.61 253.25 225.97 253.22 227.92C253.19 229.87 254.15 231.31 253.9 231.51C253.8 231.62 253.38 231.38 252.9 230.75C252.332 229.899 252.039 228.893 252.06 227.87C252.084 226.85 252.435 225.866 253.06 225.06C253.52 224.47 254 224.27 254.05 224.38Z" fill="#263238"/>
<path d="M242.71 235.55C242.887 236.61 242.934 237.688 242.85 238.76C242.85 239.26 242.85 239.76 243.19 239.87C243.695 239.983 244.222 239.938 244.7 239.74L248.65 238.79C254.27 237.49 258.86 236.62 258.91 236.85C258.96 237.08 254.45 238.31 248.83 239.61L244.83 240.5C244.184 240.737 243.476 240.737 242.83 240.5C242.665 240.405 242.525 240.274 242.419 240.116C242.313 239.958 242.245 239.778 242.22 239.59C242.185 239.308 242.185 239.022 242.22 238.74C242.246 237.66 242.411 236.588 242.71 235.55Z" fill="#263238"/>
<path d="M264.43 232.08C263.98 231.75 264.75 229.95 265.11 227.67C265.47 225.39 265.37 223.45 265.91 223.29C266.16 223.22 266.56 223.67 266.85 224.52C267.184 225.649 267.255 226.839 267.06 228C266.864 229.161 266.406 230.263 265.72 231.22C265.17 231.94 264.65 232.23 264.43 232.08Z" fill="#263238"/>
<path d="M262 250.48C261.61 250.02 262.26 248.48 262.51 246.61C262.76 244.74 262.63 243.08 263.14 242.77C263.38 242.63 263.79 242.94 264.14 243.69C264.541 244.717 264.659 245.832 264.48 246.92C264.347 248.016 263.915 249.054 263.23 249.92C262.7 250.52 262.22 250.68 262 250.48Z" fill="#263238"/>
<path d="M254.14 209.15C254.26 208.95 257.86 200.86 249.24 199.97C240.62 199.08 241.5 207.97 241.74 207.97C241.98 207.97 254.14 209.15 254.14 209.15Z" fill="#FFBF9D"/>
<path d="M245.28 205.67C245.28 205.67 245.19 205.51 245.1 205.24C244.989 204.867 245.025 204.467 245.2 204.12C245.63 203.24 247.15 202.62 248.71 202.74C249.452 202.794 250.173 203.012 250.82 203.38C251.073 203.495 251.296 203.668 251.469 203.885C251.643 204.103 251.763 204.358 251.82 204.63C251.847 204.809 251.81 204.991 251.717 205.146C251.624 205.301 251.48 205.419 251.31 205.48C251.06 205.57 250.89 205.48 250.87 205.54C250.85 205.6 251 205.74 251.36 205.71C251.58 205.68 251.784 205.578 251.94 205.42C252.142 205.2 252.25 204.909 252.24 204.61C252.208 204.25 252.083 203.904 251.878 203.606C251.673 203.308 251.395 203.069 251.07 202.91C250.364 202.46 249.555 202.196 248.72 202.14C246.97 202.01 245.25 202.73 244.77 203.94C244.678 204.164 244.637 204.407 244.651 204.649C244.665 204.891 244.733 205.127 244.85 205.34C245.08 205.63 245.27 205.7 245.28 205.67Z" fill="#FF9A6C"/>
<path d="M276.37 248.81C277.01 250.28 281.93 246.51 283.82 243.23C286.66 238.23 288.82 230.47 287.95 225.56C286.86 219.64 284.45 214.56 279.48 211.2C274.397 207.907 268.53 206.026 262.48 205.75C260.651 205.506 258.791 205.754 257.09 206.47C255.09 207.47 253.65 209.7 251.02 209.35C250.546 209.271 250.061 209.288 249.594 209.4C249.127 209.512 248.687 209.716 248.3 210C246.47 211.42 247.87 213.5 249.37 214.54C252.57 216.75 256.59 217.35 260.45 217.88C263.173 218.405 265.963 218.483 268.71 218.11C270.19 217.82 271.61 217.27 273.1 217.11C273.84 216.958 274.605 216.968 275.34 217.141C276.076 217.314 276.765 217.644 277.36 218.11C277.595 218.348 277.809 218.605 278 218.88C278.936 220.183 279.509 221.711 279.66 223.308C279.812 224.906 279.535 226.514 278.86 227.97C276.68 232.67 273.33 240.73 274.77 243.06C276.85 246.4 278.33 247.29 278.33 247.29L276.37 248.81Z" fill="#263238"/>
<path d="M254.29 204.94C254.128 203.918 253.682 202.963 253.003 202.183C252.324 201.404 251.439 200.83 250.45 200.53C250.45 200.46 250.84 200.42 251.45 200.58C252.226 200.795 252.921 201.233 253.45 201.84C253.981 202.439 254.328 203.179 254.45 203.97C254.45 204.57 254.36 204.94 254.29 204.94Z" fill="white"/>
<path d="M238.48 231.07C238.287 230.616 237.933 230.25 237.486 230.042C237.04 229.833 236.532 229.797 236.06 229.94L236.31 229.83C235.87 229.77 235.423 229.864 235.044 230.095C234.665 230.326 234.378 230.681 234.23 231.1C234.102 231.525 234.102 231.978 234.23 232.403C234.358 232.828 234.609 233.206 234.95 233.49C235.331 233.798 235.799 233.98 236.288 234.011C236.777 234.041 237.264 233.919 237.68 233.66C238.085 233.381 238.384 232.973 238.529 232.504C238.674 232.034 238.657 231.529 238.48 231.07Z" fill="#FF9A6C"/>
<path d="M238 233.3C238.289 232.959 238.448 232.527 238.45 232.08C238.489 231.613 238.395 231.146 238.18 230.73C237.788 230.325 237.254 230.088 236.69 230.07C236.127 229.983 235.551 230.104 235.07 230.41C234.876 230.531 234.709 230.692 234.58 230.881C234.451 231.071 234.362 231.285 234.32 231.51C234.281 231.951 234.375 232.393 234.59 232.78C234.59 232.78 234.43 232.78 234.26 232.54C234.037 232.23 233.927 231.852 233.95 231.47C233.977 231.182 234.066 230.903 234.211 230.653C234.356 230.402 234.553 230.186 234.79 230.02C235.37 229.609 236.088 229.44 236.79 229.55C237.142 229.564 237.486 229.654 237.8 229.812C238.114 229.971 238.39 230.195 238.61 230.47C238.873 230.974 238.958 231.552 238.85 232.11C238.817 232.482 238.663 232.834 238.41 233.11C238.14 233.31 238 233.33 238 233.3Z" fill="#263238"/>
<g opacity="0.1">
<path d="M286.94 223.25C285.568 218.816 282.891 214.899 279.259 212.009C275.627 209.119 271.209 207.391 266.58 207.05L263.1 206.89C262.495 206.809 261.879 206.867 261.3 207.06C261.012 207.163 260.766 207.361 260.603 207.62C260.44 207.879 260.369 208.185 260.4 208.49C260.55 209.17 261.3 209.49 261.97 209.67C265.97 210.74 270.17 210.54 274.04 211.9C277.743 213.203 280.818 215.853 282.653 219.323C284.488 222.793 284.948 226.826 283.94 230.62C283.741 231.184 283.653 231.782 283.68 232.38C283.698 232.68 283.816 232.966 284.015 233.19C284.215 233.415 284.484 233.567 284.78 233.62C285.057 233.598 285.324 233.509 285.56 233.361C285.795 233.213 285.99 233.01 286.13 232.77C288.12 230.12 287.92 226.41 286.94 223.25Z" fill="white"/>
</g>
<path d="M251.94 231.71C251.94 231.77 251.49 231.78 250.86 231.49C250.029 231.097 249.369 230.417 249.001 229.575C248.633 228.733 248.583 227.786 248.86 226.91C249.08 226.25 249.39 225.91 249.44 225.97C249.49 226.03 249.33 226.38 249.22 226.97C249.064 227.768 249.154 228.594 249.479 229.339C249.805 230.084 250.349 230.712 251.04 231.14C251.57 231.51 252 231.63 251.94 231.71Z" fill="#FF9A6C"/>
<path d="M249.45 248.14C249.021 247.313 248.877 246.369 249.04 245.452C249.202 244.535 249.663 243.698 250.35 243.07C250.48 243.17 249.79 244.14 249.55 245.55C249.31 246.96 249.6 248.1 249.45 248.14Z" fill="#FF9A6C"/>
<path d="M158 281.31C158.6 281.09 201 283.16 214.76 284.37C228.52 285.58 252.37 292.07 253.55 308.27C254.55 321.27 254.32 411.87 254.32 411.87H217.32L216.44 316.12L158.97 301.62L158 281.31Z" fill="#263238"/>
<g opacity="0.3">
<path d="M188.39 287.41C188.39 287.41 208.99 291.13 225.44 295.8C241.89 300.47 249.15 310.46 251.55 316.41C253.95 322.36 255.09 331.25 250.04 339.59C246.85 344.87 230.86 363.45 230.86 363.45C230.86 363.45 227.56 310.13 227.4 309.32C227.24 308.51 188.39 287.41 188.39 287.41Z" fill="black"/>
</g>
<path d="M249.74 322.47C248 312.19 236.36 305 222.09 299.65C208.03 294.36 171.24 281.29 171.24 281.29L162.43 279.12H158.49L157.19 275.22C157.19 275.22 132.19 267.99 96.08 281.31L94.85 282.31C94.85 282.31 93.76 308.65 98.85 314.31C98.85 314.31 156.37 313.5 159.39 313.75C162.41 314 204.59 333.14 204.59 333.14L168.48 388.53L198.34 409.39C198.34 409.39 216.34 383.73 227.34 368.39C243.05 346.37 251.8 334.61 249.74 322.47Z" fill="#263238"/>
<path d="M249.74 322.47C249.74 322.47 249.83 323.09 249.98 324.3C250.133 326.091 250.066 327.895 249.78 329.67C249.277 332.545 248.393 335.339 247.15 337.98C245.482 341.565 243.56 345.028 241.4 348.34C236.62 355.87 230.14 364.59 222.95 374.87L198.51 409.51L198.39 409.68L198.22 409.56L168.35 388.72L168.17 388.59L168.29 388.4C179.34 371.45 191.53 352.72 204.38 333L204.48 333.37C196.48 329.743 188.273 326.077 179.86 322.37C175.66 320.54 171.43 318.7 167.14 316.91C164.99 316.04 162.84 315.12 160.64 314.36C160.375 314.263 160.105 314.183 159.83 314.12C159.563 314.028 159.282 313.988 159 314C158.43 314 157.84 314 157.26 314H153.73C134.88 314.1 116.5 314.36 98.86 314.59H98.74L98.66 314.51C97.7787 313.38 97.1264 312.089 96.74 310.71C96.3159 309.377 95.9818 308.017 95.74 306.64C95.2606 303.93 94.9267 301.196 94.74 298.45C94.39 293 94.36 287.64 94.53 282.36V282.25L94.62 282.18L95.85 281.18C106.051 277.411 116.678 274.912 127.49 273.74C132.551 273.197 137.645 273.03 142.73 273.24C147.617 273.329 152.483 273.919 157.25 275H157.36V275.11C157.81 276.48 158.23 277.76 158.65 279.02L158.45 278.88H162.45L171.27 281.06L207.03 294.01L221.73 299.34C225.848 300.858 229.857 302.656 233.73 304.72C240.73 308.44 245.39 312.81 247.46 316.48C247.926 317.272 248.34 318.094 248.7 318.94C248.943 319.562 249.154 320.196 249.33 320.84C249.57 321.89 249.67 322.42 249.67 322.42C249.67 322.42 249.53 321.89 249.28 320.85C249.16 320.33 248.88 319.72 248.62 318.98C248.49 318.6 248.26 318.23 248.07 317.82C247.866 317.376 247.629 316.948 247.36 316.54C245.27 312.91 240.61 308.6 233.62 304.91C229.745 302.869 225.736 301.095 221.62 299.6L207 294.36L171.22 281.48L162.41 279.31H158.41V279.17L157 275.28L157.15 275.42C152.464 274.325 147.68 273.709 142.87 273.58C137.807 273.377 132.737 273.551 127.7 274.1C116.928 275.278 106.342 277.776 96.18 281.54H96.25L95.02 282.54L95.11 282.36C94.94 287.61 94.98 292.98 95.33 298.36C95.5 301.088 95.8138 303.805 96.27 306.5C96.5227 307.852 96.8566 309.188 97.27 310.5C97.6392 311.812 98.2571 313.041 99.09 314.12L98.9 314.03C116.55 313.8 134.9 313.53 153.78 313.43H157.31C157.9 313.43 158.49 313.43 159.08 313.43C159.386 313.427 159.69 313.475 159.98 313.57C160.28 313.634 160.574 313.721 160.86 313.83C163.09 314.6 165.23 315.51 167.39 316.39C171.68 318.18 175.92 320.02 180.11 321.86C188.497 325.54 196.707 329.206 204.74 332.86L205.01 332.98L204.85 333.23L168.73 388.61L168.67 388.29L198.51 409.17H198.22L222.73 374.57C229.94 364.31 236.45 355.57 241.25 348.12C243.403 344.852 245.325 341.437 247 337.9C248.249 335.279 249.147 332.505 249.67 329.65C249.964 327.883 250.051 326.087 249.93 324.3C249.79 323.1 249.74 322.47 249.74 322.47Z" fill="#455A64"/>
<path d="M222.51 326.39C221.567 326.611 220.612 326.781 219.65 326.9C215.069 327.735 210.698 329.468 206.79 332C205.29 333 204.41 333.64 204.35 333.58C205.004 332.855 205.755 332.222 206.58 331.7C208.502 330.334 210.584 329.208 212.78 328.35C214.974 327.489 217.264 326.894 219.6 326.58C220.559 326.4 221.536 326.336 222.51 326.39Z" fill="#455A64"/>
<path d="M216.02 235.37V238.54L208.29 239.26L207.85 237.64L209.93 232.81L216.02 235.37Z" fill="#F85757"/>
<path d="M209.98 237.87L200 257.85L202.21 293.71L197.2 301.53L191.93 292.51L192.84 258.39L208.38 236.4L209.98 237.87Z" fill="#F85757"/>
<path d="M213 204.53C213 204.53 198.92 199.19 185.31 198.3C171.7 197.41 154.87 206.54 146.83 210.11C138.79 213.68 108.05 244.11 101.4 254.23C97.59 260.05 92.51 273.23 92.51 273.23C91.65 277.83 94.86 282.31 94.86 282.31L156.75 282.77H168.36L173.27 272.28C173.27 272.28 182.64 271.61 185.32 266.48C188 261.35 197.82 253.76 197.82 253.76L209 235.26L216.36 236.82L220.44 205.39L213 204.53Z" fill="#E0E0E0"/>
<path d="M167.12 218.6C167.068 218.969 166.974 219.332 166.84 219.68C166.61 220.48 166.32 221.44 165.97 222.58C165.049 225.768 164.294 229.003 163.71 232.27C163.142 235.543 162.751 238.844 162.54 242.16C162.48 243.34 162.42 244.35 162.38 245.16C162.383 245.533 162.346 245.905 162.27 246.27C162.189 245.906 162.155 245.533 162.17 245.16C162.17 244.45 162.17 243.41 162.17 242.16C162.263 238.807 162.597 235.465 163.17 232.16C163.75 228.871 164.559 225.626 165.59 222.45C165.99 221.23 166.35 220.26 166.59 219.6C166.727 219.247 166.905 218.912 167.12 218.6Z" fill="#263238"/>
<path d="M194.25 341.91C194.25 341.91 198.49 346.85 199.8 348.64C200.98 350.24 202.15 356.1 202.6 361.82C202.632 362.16 202.578 362.503 202.445 362.817C202.311 363.131 202.102 363.407 201.835 363.621C201.568 363.834 201.253 363.977 200.917 364.038C200.581 364.099 200.235 364.076 199.91 363.97C199.627 363.862 199.377 363.681 199.186 363.446C198.994 363.21 198.868 362.929 198.82 362.63C197.91 358.49 197.67 356.73 197.67 356.73C197.55 354.73 197.34 355.01 197.28 356.36C197.22 357.71 198.28 365.18 198.28 365.18C198.28 365.18 201.14 375.37 200.37 376.51C200.206 376.737 199.992 376.924 199.746 377.056C199.499 377.189 199.226 377.265 198.946 377.277C198.667 377.29 198.388 377.239 198.13 377.129C197.873 377.018 197.644 376.851 197.46 376.64C197.07 376.11 193.85 367.64 193.85 367.64L193 363C193 363 194.66 377.66 193.73 378.81C193.592 379.02 193.407 379.194 193.189 379.318C192.971 379.442 192.726 379.513 192.476 379.525C192.225 379.536 191.975 379.489 191.746 379.385C191.518 379.282 191.317 379.126 191.16 378.93C190.51 378.35 189.85 371.87 189.85 371.87L188.34 363.22L188.61 379.71C188.61 379.71 188.44 381.27 187.21 381.33C185.98 381.39 185.21 379.58 185.21 379.58L183.44 362.58C183.44 362.58 184.01 372.03 183.37 372.53C182.52 373.19 181.75 372.97 181.47 372.24C180.9 370.77 180.07 362.24 180.07 362.24L179.29 346.06L178.72 340.71L192.88 335.64L194.25 341.91Z" fill="#FFBF9D"/>
<g opacity="0.3">
<path d="M163.57 240.86C159.171 254.48 156.07 268.486 154.31 282.69C154.483 287.832 155.072 292.952 156.07 298C157.7 306.09 170.97 341.17 170.97 341.17L180.06 341.96L172.4 279.64L180.06 250.51L163.57 240.86Z" fill="black"/>
</g>
<path d="M204.32 214.29C210.55 216.21 211.72 228.84 210.38 232.44C206.09 243.99 192.38 254.84 192.58 254.21L183.67 289.65L196.3 337.65L175.88 344.96C175.88 344.96 157.25 295.68 156.88 287.96C156.51 280.24 162.06 260.12 162.88 248.09C163.41 240.36 167.33 224.68 176.88 215.45" fill="#E0E0E0"/>
<path d="M176.89 215.38C176.89 215.38 176.74 215.56 176.43 215.9C176.12 216.24 175.64 216.73 175.05 217.41C173.368 219.416 171.869 221.568 170.57 223.84C168.539 227.467 166.896 231.298 165.67 235.27C164.88 237.747 164.249 240.273 163.78 242.83C163.54 244.19 163.32 245.59 163.19 247.04C163.06 248.49 162.97 250.04 162.76 251.53C162.04 257.65 160.7 264.28 159.35 271.42C158.69 274.98 157.99 278.68 157.49 282.51C157.205 284.443 157.114 286.399 157.22 288.35L157.43 289.81L157.77 291.27C157.98 292.27 158.26 293.27 158.54 294.27C159.63 298.21 160.93 302.21 162.29 306.27C163.65 310.33 165.09 314.5 166.58 318.73C169.58 327.18 172.76 335.92 176.12 344.86L175.79 344.71L185.28 341.31L196.21 337.4L196.05 337.71C191.56 320.64 187.31 304.46 183.44 289.71V289.59C186.75 276.51 189.76 264.59 192.39 254.16L192.76 254.26C192.768 254.233 192.77 254.205 192.765 254.177C192.759 254.149 192.747 254.123 192.729 254.101C192.712 254.08 192.689 254.063 192.662 254.052C192.636 254.041 192.608 254.037 192.58 254.04H192.64L192.78 253.96L193.06 253.77L193.62 253.35L194.7 252.48C195.4 251.88 196.08 251.28 196.7 250.67C198.02 249.46 199.26 248.22 200.42 246.98C202.615 244.657 204.622 242.162 206.42 239.52C208.012 237.234 209.306 234.754 210.27 232.14C210.765 229.855 210.826 227.497 210.45 225.19C209.89 221 208.51 217.88 207.01 216.19C206.249 215.348 205.304 214.691 204.25 214.27C204.25 214.27 204.53 214.37 205.06 214.59C205.391 214.728 205.701 214.914 205.98 215.14C206.393 215.423 206.766 215.759 207.09 216.14C208.64 217.78 210.09 220.92 210.66 225.14C210.821 226.253 210.908 227.375 210.92 228.5C210.956 229.746 210.821 230.991 210.52 232.2C209.566 234.847 208.272 237.358 206.67 239.67C204.873 242.336 202.867 244.854 200.67 247.2C199.5 248.45 198.26 249.7 196.94 250.92C196.28 251.54 195.6 252.15 194.94 252.75C194.59 253.04 194.23 253.34 193.86 253.63L193.29 254.06L192.99 254.26L192.83 254.36H192.73H192.64C192.605 254.364 192.569 254.36 192.536 254.347C192.503 254.335 192.473 254.314 192.449 254.288C192.426 254.261 192.409 254.229 192.4 254.195C192.392 254.161 192.392 254.125 192.4 254.09L192.78 254.19L183.91 289.64V289.52L196.56 337.52L196.62 337.75L196.4 337.83L185.47 341.74L175.97 345.14L175.73 345.23L175.64 344.99C172.28 336.04 169.1 327.29 166.11 318.84C164.63 314.61 163.18 310.45 161.83 306.37C160.48 302.29 159.19 298.27 158.09 294.31C157.81 293.31 157.54 292.31 157.33 291.31C157.21 290.81 157.1 290.31 156.99 289.83C156.88 289.35 156.84 288.83 156.77 288.31C156.665 286.332 156.762 284.348 157.06 282.39C157.57 278.53 158.27 274.84 158.95 271.27C160.32 264.13 161.68 257.52 162.42 251.41C162.63 249.89 162.71 248.41 162.86 246.94C163.01 245.47 163.23 244.06 163.48 242.7C163.961 240.135 164.605 237.603 165.41 235.12C166.656 231.136 168.332 227.3 170.41 223.68C171.723 221.401 173.254 219.255 174.98 217.27C176.2 216 176.89 215.38 176.89 215.38Z" fill="#263238"/>
<path d="M210 222.49C209.898 221.606 209.898 220.714 210 219.83C210.097 217.694 210.304 215.565 210.62 213.45C210.934 211.335 211.361 209.239 211.9 207.17C212.073 206.296 212.352 205.447 212.73 204.64C212.645 205.521 212.487 206.394 212.26 207.25C211.93 208.85 211.51 211.07 211.14 213.53C210.77 215.99 210.53 218.23 210.37 219.86C210.326 220.746 210.202 221.626 210 222.49Z" fill="#263238"/>
<g opacity="0.3">
<path d="M212.26 205.38C212.05 205.29 211.83 205.5 211.69 205.69C210.384 207.206 209.339 208.93 208.6 210.79C207.49 214.11 208.67 217.79 209.68 221.19C210.621 224.434 210.96 227.823 210.68 231.19L210.43 232.36C211.505 230.253 211.809 227.837 211.29 225.53C210.765 223.246 210.358 220.936 210.07 218.61C209.84 214.32 211.57 210.2 212.43 206C212.48 205.8 212.49 205.47 212.26 205.38Z" fill="black"/>
</g>
<path d="M142.49 299.34H136.12V344.92H142.49V299.34Z" fill="#E0E0E0"/>
<path d="M45.05 269.56C45.6189 270.908 46.6606 272.001 47.9792 272.635C49.2978 273.268 50.8023 273.398 52.21 273C67.1388 268.889 82.8797 268.727 97.89 272.53C118.96 277.76 126.65 289.11 129.51 296.25C130.212 297.959 131.408 299.42 132.946 300.445C134.483 301.469 136.292 302.011 138.14 302H139C139.889 301.994 140.765 301.79 141.565 301.404C142.366 301.017 143.07 300.458 143.628 299.766C144.186 299.075 144.583 298.267 144.791 297.403C144.999 296.539 145.012 295.64 144.83 294.77C142.65 284.87 129.48 267.67 105.94 261.31C77.61 253.65 57.94 258.75 48.79 261.6C48.0036 261.851 47.2774 262.262 46.657 262.806C46.0365 263.351 45.5351 264.017 45.184 264.764C44.833 265.511 44.6399 266.323 44.6168 267.148C44.5938 267.973 44.7412 268.794 45.05 269.56Z" fill="#455A64"/>
<path d="M45.05 269.56C45.05 269.56 44.96 269.37 44.82 268.98C44.5788 268.213 44.4944 267.405 44.5717 266.604C44.649 265.804 44.8865 265.027 45.27 264.32C45.9336 263.112 46.993 262.169 48.27 261.65C56.4291 258.951 64.9313 257.429 73.52 257.13C79.4425 256.919 85.3721 257.23 91.24 258.06C92.82 258.31 94.43 258.54 96.05 258.82L100.98 259.82L105.98 261.06C107.64 261.6 109.37 262.06 111.05 262.67C112.73 263.28 114.45 263.92 116.11 264.73C116.94 265.13 117.8 265.47 118.62 265.92L121.1 267.25C124.444 269.151 127.607 271.353 130.55 273.83C133.594 276.404 136.353 279.297 138.78 282.46L139.7 283.67L140.55 284.95C140.82 285.37 141.12 285.79 141.38 286.23L142.14 287.57C143.176 289.37 144.011 291.278 144.63 293.26C144.76 293.77 144.91 294.26 145.04 294.78C145.142 295.307 145.179 295.844 145.15 296.38C145.055 297.988 144.338 299.497 143.151 300.586C141.964 301.676 140.401 302.262 138.79 302.22C136.728 302.334 134.68 301.806 132.93 300.71C131.21 299.619 129.888 298.002 129.16 296.1C128.438 294.322 127.547 292.618 126.5 291.01C126.01 290.19 125.42 289.45 124.87 288.69C124.32 287.93 123.71 287.21 123.06 286.54C120.585 283.851 117.752 281.516 114.64 279.6C111.675 277.784 108.544 276.254 105.29 275.03C102.205 273.901 99.0479 272.978 95.84 272.27C90.0943 270.946 84.2332 270.186 78.34 270C69.7983 269.71 61.2605 270.677 53 272.87C52.3134 273.097 51.6013 273.238 50.88 273.29C50.0615 273.325 49.2444 273.193 48.479 272.9C47.7137 272.608 47.0164 272.162 46.43 271.59C45.844 271.03 45.3897 270.347 45.1 269.59C45.4503 270.319 45.9278 270.979 46.51 271.54C47.2173 272.193 48.0713 272.666 49 272.92C49.6009 273.072 50.2207 273.136 50.84 273.11C51.5475 273.047 52.2454 272.902 52.92 272.68C61.2045 270.407 69.7841 269.396 78.37 269.68C84.2986 269.825 90.1979 270.562 95.98 271.88C99.2071 272.586 102.384 273.505 105.49 274.63C108.78 275.857 111.945 277.398 114.94 279.23C118.093 281.159 120.963 283.514 123.47 286.23C124.13 286.9 124.69 287.67 125.31 288.4C125.93 289.13 126.46 289.93 126.96 290.76C128.032 292.39 128.94 294.121 129.67 295.93C130.363 297.733 131.619 299.265 133.25 300.3C134.918 301.34 136.867 301.84 138.83 301.73C140.309 301.771 141.747 301.235 142.837 300.234C143.927 299.234 144.585 297.847 144.67 296.37C144.696 295.878 144.663 295.384 144.57 294.9C144.45 294.41 144.3 293.9 144.17 293.43C143.562 291.484 142.744 289.609 141.73 287.84L141 286.5C140.74 286.07 140.45 285.65 140.17 285.23L139.3 284L138.39 282.8C135.985 279.669 133.253 276.803 130.24 274.25C127.322 271.792 124.186 269.607 120.87 267.72L118.42 266.39C117.61 265.94 116.75 265.61 115.93 265.21C114.28 264.4 112.58 263.8 110.93 263.16C109.28 262.52 107.55 262.08 105.93 261.55L100.93 260.3L96.02 259.3C94.4 259.01 92.8 258.78 91.23 258.52C85.3866 257.678 79.4812 257.343 73.58 257.52C65.0254 257.786 56.5501 259.247 48.4 261.86C47.1542 262.345 46.1175 263.25 45.47 264.42C44.9849 265.268 44.7202 266.223 44.7 267.2C44.676 268.001 44.7945 268.8 45.05 269.56Z" fill="#263238"/>
<path d="M55.5 267.15C55.5 268.105 55.2167 269.039 54.686 269.833C54.1552 270.628 53.4009 271.247 52.5183 271.612C51.6358 271.978 50.6646 272.073 49.7277 271.887C48.7908 271.701 47.9301 271.241 47.2546 270.565C46.5792 269.89 46.1191 269.029 45.9328 268.092C45.7464 267.155 45.8421 266.184 46.2076 265.301C46.5732 264.419 47.1923 263.665 47.9866 263.134C48.7809 262.603 49.7147 262.32 50.67 262.32C51.3046 262.319 51.9333 262.443 52.5199 262.685C53.1065 262.927 53.6395 263.283 54.0882 263.732C54.537 264.18 54.8927 264.713 55.135 265.3C55.3773 265.887 55.5013 266.515 55.5 267.15Z" fill="white"/>
<path d="M342 234.85H364.78L363 247.38C363 247.38 361.52 253.54 358 253.54H348.13C346.917 252.796 345.866 251.815 345.041 250.655C344.217 249.495 343.634 248.18 343.33 246.79L342 234.85Z" fill="#455A64"/>
<path d="M342 234.85C342.033 234.981 342.056 235.115 342.07 235.25C342.07 235.53 342.16 235.9 342.23 236.36C342.36 237.36 342.55 238.77 342.79 240.53C343.03 242.29 343.31 244.47 343.63 246.92C343.941 248.259 344.518 249.523 345.327 250.634C346.136 251.746 347.161 252.683 348.34 253.39H348.25H356.14C356.84 253.39 357.55 253.39 358.24 253.39C358.922 253.351 359.57 253.075 360.07 252.61C361.115 251.607 361.901 250.364 362.36 248.99C362.562 248.463 362.735 247.926 362.88 247.38C363.49 242.95 364.07 238.74 364.6 234.85L364.78 235.06L348.43 234.97L343.72 234.92H342.45H342C342.136 234.903 342.274 234.903 342.41 234.92H343.64L348.31 234.87L364.78 234.78H364.98V234.98C364.45 238.87 363.88 243.09 363.29 247.51C363.148 248.074 362.971 248.628 362.76 249.17C362.272 250.605 361.446 251.902 360.35 252.95C359.785 253.469 359.056 253.774 358.29 253.81C357.57 253.81 356.87 253.81 356.17 253.81H348.28H348.23C347.012 253.073 345.957 252.097 345.129 250.94C344.3 249.783 343.715 248.47 343.41 247.08C343.08 244.57 342.86 242.38 342.65 240.58C342.44 238.78 342.3 237.41 342.2 236.41L342.08 235.32C342.035 235.167 342.008 235.009 342 234.85Z" fill="#263238"/>
<path d="M363 241.31L363.34 241.23C363.13 241.23 363.4 241.23 363.44 241.23C363.686 241.215 363.934 241.215 364.18 241.23C363.94 241.23 364.18 241.23 364.27 241.23L364.66 241.33L364.98 241.43C365.13 241.48 364.98 241.43 364.92 241.43L365.13 241.53C365.347 241.648 365.557 241.778 365.76 241.92C365.89 242.01 365.76 241.92 365.71 241.92L365.84 242.03C365.938 242.118 366.032 242.212 366.12 242.31C366.19 242.39 366.33 242.58 366.2 242.39C366.28 242.5 366.35 242.61 366.42 242.72C366.49 242.83 366.53 242.93 366.58 243.03C366.63 243.13 366.58 243.03 366.58 242.97C366.613 243.041 366.639 243.115 366.66 243.19C366.706 243.317 366.743 243.448 366.77 243.58C366.77 243.63 366.84 243.96 366.82 243.8C366.8 243.64 366.82 243.97 366.82 244.02C366.83 244.157 366.83 244.294 366.82 244.43C366.82 244.51 366.82 244.59 366.82 244.67C366.82 244.88 366.82 244.75 366.82 244.67C366.807 244.744 366.791 244.818 366.77 244.89C366.751 245.006 366.72 245.12 366.68 245.23C366.68 245.32 366.53 245.63 366.68 245.39C366.573 245.622 366.449 245.846 366.31 246.06L366.21 246.2C366.21 246.2 366.35 246.04 366.21 246.15C366.07 246.26 366 246.37 365.89 246.48C365.78 246.59 365.6 246.71 365.72 246.63C365.84 246.55 365.57 246.72 365.53 246.74L365.23 246.91L365.08 246.99C365.25 246.9 365.16 246.99 365.08 246.99C365 246.99 364.56 247.13 364.3 247.2C364.04 247.27 364.37 247.2 364.39 247.2H364.16H363.38H363.16L362.72 247.06C362.91 247.14 362.57 246.98 362.57 246.98C362.414 246.889 362.242 246.829 362.064 246.804C361.885 246.78 361.703 246.79 361.528 246.836C361.354 246.881 361.19 246.961 361.046 247.069C360.902 247.178 360.781 247.314 360.69 247.47C360.599 247.626 360.539 247.798 360.514 247.976C360.489 248.155 360.5 248.337 360.546 248.512C360.591 248.686 360.671 248.85 360.779 248.994C360.888 249.138 361.024 249.259 361.18 249.35C362.494 250.033 364.017 250.197 365.446 249.807C366.874 249.418 368.104 248.505 368.89 247.25C369.631 245.935 369.859 244.393 369.53 242.92C369.363 242.204 369.056 241.528 368.627 240.931C368.198 240.333 367.655 239.827 367.03 239.44C366.34 239.007 365.569 238.72 364.764 238.598C363.959 238.476 363.137 238.521 362.35 238.73C361.999 238.827 361.7 239.059 361.52 239.376C361.34 239.693 361.293 240.069 361.39 240.42C361.487 240.771 361.719 241.07 362.036 241.25C362.353 241.43 362.729 241.477 363.08 241.38L363 241.31Z" fill="#455A64"/>
<path d="M363 241.31C362.857 241.379 362.698 241.406 362.54 241.39C362.304 241.378 362.074 241.308 361.872 241.186C361.669 241.064 361.5 240.894 361.38 240.69C361.281 240.525 361.216 240.342 361.189 240.152C361.162 239.961 361.173 239.767 361.221 239.581C361.27 239.395 361.355 239.22 361.471 239.067C361.588 238.914 361.733 238.786 361.9 238.69C362.32 238.499 362.77 238.384 363.23 238.35C363.738 238.286 364.252 238.286 364.76 238.35C365.926 238.525 367.015 239.04 367.89 239.83C368.911 240.737 369.565 241.985 369.73 243.34C369.933 244.838 369.577 246.358 368.73 247.61C368.264 248.263 367.668 248.814 366.98 249.227C366.292 249.64 365.526 249.906 364.73 250.01C364.018 250.111 363.295 250.09 362.59 249.95C362.251 249.871 361.917 249.771 361.59 249.65L361.11 249.43C360.934 249.351 360.777 249.235 360.65 249.09C360.414 248.797 360.285 248.432 360.285 248.055C360.285 247.678 360.414 247.313 360.65 247.02C360.897 246.747 361.23 246.567 361.594 246.509C361.957 246.451 362.33 246.518 362.65 246.7L362.39 246.86C362.392 246.816 362.409 246.774 362.438 246.741C362.467 246.709 362.507 246.687 362.55 246.68C362.65 246.68 362.66 246.68 362.65 246.68H362.72C362.72 246.57 362.86 246.96 362.64 247H362.53H362.45V246.95C362.35 246.55 362.73 246.66 362.62 246.65H362.68L362.82 246.7C363.007 246.76 363.197 246.806 363.39 246.84C363.39 246.84 363.39 246.84 363.49 246.89C363.59 246.94 363.55 246.89 363.54 247.06C363.53 247.23 363.4 247.2 363.39 247.2H363.3H363.22H363.15C363.15 247.2 363.05 247.15 363.1 246.98C363.15 246.81 363.23 246.9 363.25 246.89H363.7C363.89 246.9 364.08 246.9 364.27 246.89V247.23H364.21H364.12C364.075 247.23 364.032 247.212 364 247.18C363.98 247.153 363.969 247.119 363.969 247.085C363.969 247.051 363.98 247.018 364 246.99C364 246.92 364 246.94 364 246.93L364.08 246.88H364.24L364.53 246.8L364.83 246.72H364.96C364.89 246.65 364.96 247.06 365.06 247.01H365.13H365.07L364.91 246.71L365.3 246.5L365.48 246.39C365.516 246.38 365.554 246.38 365.59 246.39C365.623 246.401 365.654 246.418 365.68 246.44C365.707 246.472 365.722 246.513 365.722 246.555C365.722 246.597 365.707 246.638 365.68 246.67H365.62C365.588 246.682 365.552 246.682 365.52 246.67C365.492 246.665 365.466 246.653 365.443 246.636C365.42 246.618 365.402 246.596 365.39 246.57C365.33 246.48 365.45 246.35 365.39 246.38C365.506 246.298 365.613 246.204 365.71 246.1L365.85 245.95C365.85 245.95 366.02 245.95 366.06 246.06C366.1 246.17 366.06 246.14 366.06 246.16L366 246.23L365.74 246.04C365.92 245.79 366.05 245.52 366.2 245.27L366.48 245.4V245.45C366.48 245.45 366.48 245.45 366.36 245.45C366.34 245.449 366.321 245.444 366.303 245.435C366.286 245.426 366.27 245.414 366.257 245.399C366.244 245.384 366.234 245.367 366.228 245.348C366.221 245.33 366.219 245.31 366.22 245.29V245.18C366.248 245.118 366.271 245.055 366.29 244.99C366.29 244.86 366.36 244.73 366.39 244.6V244.5C366.39 244.5 366.39 244.5 366.45 244.41C366.471 244.398 366.495 244.391 366.52 244.391C366.545 244.391 366.569 244.398 366.59 244.41H366.65C366.661 244.449 366.661 244.491 366.65 244.53V244.63C366.75 244.74 366.23 244.69 366.37 244.63V244.54C366.365 244.51 366.365 244.48 366.37 244.45C366.37 244.32 366.37 244.19 366.37 244.07C366.38 243.947 366.38 243.823 366.37 243.7V243.59C366.373 243.566 366.38 243.543 366.392 243.523C366.404 243.502 366.421 243.484 366.44 243.47C366.46 243.455 366.485 243.448 366.51 243.448C366.535 243.448 366.56 243.455 366.58 243.47C366.592 243.474 366.602 243.481 366.611 243.489C366.619 243.498 366.626 243.508 366.63 243.52C366.63 243.57 366.63 243.57 366.63 243.57V243.63C366.634 243.65 366.634 243.67 366.63 243.69C366.63 243.69 366.63 243.69 366.55 243.74C366.519 243.748 366.487 243.746 366.458 243.733C366.429 243.72 366.405 243.698 366.39 243.67L366.34 243.45C366.291 243.223 366.227 242.999 366.15 242.78L366.39 242.69V242.74C366.393 242.755 366.392 242.771 366.389 242.786C366.385 242.801 366.379 242.815 366.369 242.827C366.36 242.84 366.348 242.85 366.334 242.857C366.32 242.865 366.305 242.869 366.29 242.87C366.19 242.87 366.19 242.87 366.18 242.87C366.18 242.87 366.18 242.79 366.11 242.75L366.01 242.54L365.77 242.17L365.97 242.04V242.09C365.98 242.107 365.985 242.126 365.985 242.145C365.985 242.164 365.98 242.183 365.97 242.2C365.959 242.217 365.944 242.23 365.927 242.239C365.909 242.249 365.89 242.254 365.87 242.254C365.85 242.254 365.831 242.249 365.813 242.239C365.796 242.23 365.781 242.217 365.77 242.2L365.7 242.11C365.655 242.052 365.605 241.998 365.55 241.95L365.26 241.67L365.4 241.51H365.46C365.22 241.84 365.36 241.59 365.31 241.66L365.18 241.58L364.93 241.42C364.785 241.32 364.631 241.233 364.47 241.16L364.55 240.99H364.63H364.69C364.69 240.99 364.74 241.11 364.69 241.13H364.64H365L364.84 241.07L364.54 240.98L364.26 240.91H364.13C364.19 240.91 364.01 240.98 364.13 240.77H364.24V240.91H363.58H363.33C363.33 240.91 363.33 240.91 363.33 240.85H363.48C363.48 240.85 363.48 240.85 363.48 240.9H363.4C363.275 240.929 363.148 240.946 363.02 240.95C363.137 240.892 363.261 240.851 363.39 240.83H363.44H363.33H364.24V240.97H364.13C364.25 240.75 364.06 240.85 364.13 240.83H364.29L364.59 240.89L364.9 240.98L365.06 241.03C365 241.27 365 241.18 364.99 241.19H364.89L364.97 241.02C365.136 241.095 365.297 241.182 365.45 241.28L365.71 241.43L365.85 241.51L365.8 241.59L365.73 241.53L365.87 241.37C365.978 241.458 366.082 241.551 366.18 241.65C366.18 241.71 366.29 241.75 366.35 241.82L366.42 241.91C366.42 241.91 366.37 241.91 366.35 241.91V241.86L366.55 241.73C366.63 241.85 366.72 241.97 366.8 242.11L366.91 242.32C366.91 242.32 366.98 242.38 366.91 242.43L366.84 242.49C366.814 242.482 366.786 242.482 366.76 242.49H366.71V242.42L366.95 242.33C367.04 242.561 367.113 242.799 367.17 243.04V243.13V243.2C367.17 243.2 367.17 243.2 367.09 243.2C367.01 243.2 367.09 243.2 367.04 243.2C367.029 243.195 367.017 243.193 367.005 243.193C366.993 243.193 366.981 243.195 366.97 243.2H366.91H366.99H367.04C367.04 243.2 367.09 243.2 367.1 243.2H367V243.27C367 243.39 367 243.54 367 243.67C367.015 243.803 367.015 243.937 367 244.07C367.005 244.107 367.005 244.144 367 244.18C367 244.18 366.95 244.18 366.88 244.18H366.71V244.09C366.71 244.09 366.81 244.09 366.79 244.09C367.01 244.09 366.92 244.09 366.94 244.09V244.19C366.94 244.32 366.87 244.47 366.83 244.61C366.814 244.682 366.791 244.753 366.76 244.82V244.91C366.37 244.75 366.51 244.79 366.5 244.77V244.72L366.78 244.85C366.62 245.12 366.49 245.41 366.3 245.68L366.04 245.49L366.11 245.41H366.17C366.17 245.41 366.24 245.41 366.26 245.48V245.53C366.26 245.53 366.32 245.61 366.31 245.59L366.16 245.75C366.057 245.858 365.947 245.958 365.83 246.05C365.76 245.99 365.76 245.94 365.74 245.95C365.72 245.96 365.74 245.95 365.74 245.9L365.69 245.81C365.69 245.81 365.74 245.87 365.69 245.88C365.64 245.89 365.69 245.97 365.69 245.97C365.688 245.991 365.693 246.012 365.704 246.03C365.715 246.048 365.731 246.062 365.75 246.07H365.7L365.51 246.19L365.11 246.41L364.95 246.11H365.02H365.14C365.29 246.11 365.32 246.48 365.24 246.4H365.19L365.03 246.46L364.73 246.54L364.42 246.62H364.27C364.27 246.62 364.27 246.7 364.21 246.47C364.21 246.47 364.21 246.27 364.21 246.29H364.35V246.63C364.147 246.645 363.943 246.645 363.74 246.63C363.637 246.64 363.533 246.64 363.43 246.63H363.32V246.46C363.32 246.46 363.32 246.36 363.32 246.31H363.43C363.43 246.31 363.43 246.39 363.43 246.4C363.43 246.41 363.43 246.4 363.43 246.46C363.43 246.46 363.43 246.46 363.43 246.53C363.439 246.559 363.439 246.591 363.43 246.62C363.224 246.581 363.021 246.531 362.82 246.47L362.67 246.42H362.58V246.36C362.582 246.327 362.582 246.293 362.58 246.26C362.71 246 362.64 246.12 362.66 246.09H362.72C362.72 246.09 362.72 246.21 362.67 246.23L362.59 246.37H362.52C362.556 246.38 362.594 246.38 362.63 246.37C362.658 246.364 362.684 246.352 362.706 246.335C362.729 246.317 362.747 246.295 362.76 246.27V246.22C362.76 246.22 362.76 246.22 362.62 246.22L362.5 246.39C362.257 246.259 361.977 246.211 361.704 246.255C361.432 246.298 361.181 246.43 360.99 246.63C360.816 246.855 360.721 247.131 360.721 247.415C360.721 247.699 360.816 247.976 360.99 248.2C361.222 248.399 361.49 248.552 361.78 248.65C362.089 248.766 362.407 248.856 362.73 248.92C363.388 249.058 364.064 249.082 364.73 248.99C365.478 248.898 366.198 248.651 366.846 248.266C367.493 247.88 368.053 247.364 368.49 246.75C369.306 245.586 369.663 244.161 369.49 242.75C369.345 241.474 368.741 240.294 367.79 239.43C366.955 238.662 365.911 238.157 364.79 237.98C363.887 237.811 362.954 237.887 362.09 238.2C361.935 238.292 361.799 238.413 361.691 238.557C361.583 238.701 361.505 238.865 361.46 239.04C361.39 239.34 361.44 239.656 361.6 239.92C361.7 240.107 361.843 240.268 362.016 240.39C362.19 240.511 362.39 240.59 362.6 240.62C362.698 240.869 362.833 241.101 363 241.31Z" fill="#263238"/>
<path d="M357.37 230.42C357.634 230.171 357.872 229.897 358.08 229.6C358.336 229.186 358.507 228.725 358.583 228.244C358.658 227.764 358.637 227.272 358.52 226.8C358.347 226.153 357.972 225.579 357.45 225.16C356.9 224.68 356.2 224.3 355.55 223.73C355.216 223.432 354.939 223.076 354.73 222.68C354.504 222.253 354.44 221.76 354.55 221.29C354.676 220.813 354.932 220.38 355.29 220.04C355.62 219.69 355.99 219.39 356.29 219.04C356.629 218.74 356.896 218.367 357.07 217.95C357.2 217.537 357.2 217.093 357.07 216.68C356.801 215.868 356.35 215.129 355.75 214.52C355.184 213.94 354.727 213.262 354.4 212.52C354.154 211.852 354.078 211.134 354.18 210.43C354.325 209.413 354.816 208.477 355.57 207.78C355.775 207.599 356 207.441 356.24 207.31L356.5 207.2C356.204 207.407 355.921 207.631 355.65 207.87C354.959 208.572 354.519 209.482 354.4 210.46C354.312 211.136 354.395 211.824 354.64 212.46C354.971 213.162 355.421 213.801 355.97 214.35C356.608 214.986 357.088 215.764 357.37 216.62C357.52 217.092 357.52 217.598 357.37 218.07C357.184 218.536 356.893 218.954 356.52 219.29C355.84 219.97 355.03 220.53 354.83 221.37C354.776 221.777 354.831 222.192 354.989 222.571C355.147 222.95 355.403 223.281 355.73 223.53C356.33 224.07 357.03 224.46 357.6 224.97C357.882 225.211 358.125 225.494 358.32 225.81C358.498 226.101 358.63 226.418 358.71 226.75C358.83 227.248 358.843 227.766 358.748 228.269C358.654 228.772 358.453 229.25 358.16 229.67C357.962 229.981 357.691 230.238 357.37 230.42Z" fill="#263238"/>
<path d="M353 230.42C353.259 230.169 353.493 229.895 353.7 229.6C353.961 229.188 354.135 228.727 354.211 228.246C354.286 227.764 354.262 227.272 354.14 226.8C353.977 226.149 353.6 225.572 353.07 225.16C352.52 224.68 351.82 224.3 351.18 223.73C350.843 223.434 350.565 223.078 350.36 222.68C350.131 222.255 350.063 221.761 350.17 221.29C350.304 220.816 350.559 220.385 350.91 220.04C351.25 219.69 351.61 219.39 351.91 219.04C352.243 218.737 352.505 218.365 352.68 217.95C352.818 217.538 352.818 217.092 352.68 216.68C352.411 215.868 351.96 215.129 351.36 214.52C350.794 213.937 350.334 213.26 350 212.52C349.754 211.852 349.678 211.134 349.78 210.43C349.924 209.411 350.419 208.473 351.18 207.78C351.382 207.594 351.607 207.436 351.85 207.31C351.93 207.259 352.018 207.222 352.11 207.2C351.814 207.407 351.531 207.631 351.26 207.87C350.569 208.573 350.126 209.482 350 210.46C349.911 211.137 349.997 211.826 350.25 212.46C350.581 213.162 351.031 213.801 351.58 214.35C352.215 214.989 352.694 215.766 352.98 216.62C353.13 217.092 353.13 217.598 352.98 218.07C352.79 218.534 352.5 218.951 352.13 219.29C351.45 219.97 350.63 220.53 350.43 221.37C350.378 221.777 350.434 222.191 350.592 222.57C350.75 222.949 351.004 223.28 351.33 223.53C351.93 224.07 352.64 224.46 353.2 224.97C353.485 225.211 353.731 225.494 353.93 225.81C354.099 226.105 354.231 226.421 354.32 226.75C354.435 227.248 354.446 227.765 354.351 228.268C354.256 228.77 354.059 229.248 353.77 229.67C353.575 229.976 353.311 230.233 353 230.42Z" fill="#263238"/>
<path d="M385.107 170.306L382.899 172.155L410.876 205.556L413.084 203.707L385.107 170.306Z" fill="#263238"/>
<path d="M388.368 165.619L386.16 167.469L414.137 200.87L416.345 199.02L388.368 165.619Z" fill="#263238"/>
<path d="M414.597 204.998L412.162 203.461L384.198 247.764L386.633 249.301L414.597 204.998Z" fill="#263238"/>
<path d="M420.904 206.223L418.468 204.686L391.049 248.126L393.484 249.663L420.904 206.223Z" fill="#263238"/>
<path d="M414.74 199.44L410.35 205.38C409.813 206.104 409.56 206.999 409.639 207.897C409.719 208.794 410.124 209.632 410.78 210.25C411.332 210.768 412.03 211.104 412.779 211.214C413.528 211.323 414.293 211.199 414.97 210.86L420.88 207.86C421.396 207.606 421.846 207.235 422.193 206.777C422.54 206.319 422.775 205.785 422.88 205.22L422.94 204.86C423.057 204.203 422.993 203.526 422.756 202.903C422.518 202.279 422.115 201.732 421.59 201.32L418.59 198.93C418.308 198.699 417.982 198.529 417.632 198.429C417.282 198.329 416.915 198.302 416.554 198.35C416.193 198.398 415.846 198.519 415.534 198.707C415.222 198.894 414.952 199.144 414.74 199.44Z" fill="#263238"/>
<path d="M414.74 199.44C414.74 199.44 414.79 199.3 414.97 199.1C415.244 198.796 415.587 198.563 415.97 198.42C416.573 198.196 417.237 198.196 417.84 198.42C418.207 198.553 418.546 198.753 418.84 199.01L419.84 199.79L420.96 200.65C421.388 200.948 421.79 201.282 422.16 201.65C422.563 202.093 422.858 202.623 423.022 203.199C423.187 203.775 423.217 204.381 423.11 204.97C423.044 205.631 422.815 206.264 422.443 206.814C422.071 207.364 421.569 207.813 420.98 208.12L417.4 209.93L415.59 210.85C414.997 211.205 414.336 211.433 413.65 211.52C413.019 211.578 412.383 211.483 411.798 211.241C411.212 211 410.693 210.62 410.286 210.135C409.879 209.649 409.596 209.072 409.461 208.453C409.326 207.834 409.342 207.191 409.51 206.58C409.66 206.063 409.912 205.58 410.25 205.16L411.1 204.04L413.7 200.66C414.004 200.239 414.338 199.842 414.7 199.47C414.461 199.932 414.179 200.37 413.86 200.78L411.39 204.26C410.765 204.981 410.268 205.802 409.92 206.69C409.789 207.204 409.775 207.741 409.881 208.26C409.986 208.78 410.208 209.269 410.53 209.69C410.888 210.149 411.356 210.511 411.891 210.741C412.426 210.972 413.01 211.065 413.59 211.01C414.213 210.928 414.813 210.716 415.35 210.39L417.16 209.47L420.73 207.66C421.213 207.387 421.631 207.012 421.954 206.561C422.278 206.11 422.5 205.594 422.604 205.049C422.709 204.504 422.694 203.943 422.56 203.405C422.426 202.866 422.177 202.363 421.83 201.93C421.48 201.568 421.102 201.233 420.7 200.93C420.32 200.62 419.96 200.32 419.6 200.04L418.6 199.23C418.33 198.984 418.018 198.788 417.68 198.65C417.122 198.461 416.518 198.461 415.96 198.65C415.507 198.834 415.093 199.102 414.74 199.44Z" fill="#455A64"/>
<path d="M370.29 253.74C370.29 253.74 373.71 246.48 387.14 246.5H393.32C393.32 246.5 405.39 249.1 406.84 253.76L370.29 253.74Z" fill="#263238"/>
<path d="M378.62 163.76L381.4 174.76C381.429 174.879 381.491 174.987 381.579 175.072C381.666 175.158 381.776 175.217 381.895 175.244C382.014 175.271 382.138 175.265 382.254 175.225C382.37 175.185 382.472 175.114 382.55 175.02L390.84 166.53C390.916 166.441 390.967 166.333 390.987 166.217C391.008 166.102 390.997 165.983 390.956 165.873C390.916 165.763 390.846 165.666 390.756 165.591C390.665 165.517 390.556 165.468 390.44 165.45L379.36 163C379.257 162.984 379.152 162.993 379.054 163.025C378.955 163.058 378.866 163.114 378.793 163.189C378.721 163.263 378.667 163.354 378.637 163.453C378.607 163.553 378.601 163.658 378.62 163.76Z" fill="#263238"/>
<path d="M378.62 163.76C378.62 163.76 378.55 163.68 378.56 163.49C378.574 163.345 378.632 163.207 378.727 163.096C378.822 162.985 378.949 162.906 379.09 162.87C379.288 162.83 379.492 162.83 379.69 162.87L380.36 163L382 163.33L386.35 164.24L388.97 164.8L390.38 165.1C390.541 165.118 390.695 165.175 390.829 165.265C390.963 165.356 391.073 165.477 391.15 165.62C391.229 165.78 391.26 165.96 391.239 166.138C391.218 166.315 391.145 166.483 391.03 166.62L387.34 170.41L382.73 175.11C382.629 175.23 382.498 175.322 382.35 175.376C382.203 175.43 382.044 175.446 381.889 175.421C381.734 175.396 381.588 175.331 381.466 175.232C381.343 175.134 381.248 175.006 381.19 174.86C381.06 174.37 380.97 173.98 380.86 173.56C380.66 172.73 380.47 171.93 380.28 171.18C379.93 169.7 379.61 168.39 379.34 167.26C379.07 166.13 378.92 165.37 378.76 164.69C378.669 164.385 378.618 164.069 378.61 163.75C378.74 164.04 378.844 164.341 378.92 164.65C379.11 165.32 379.35 166.16 379.63 167.18C379.91 168.2 380.29 169.61 380.68 171.08L381.31 173.44L381.64 174.69C381.667 174.757 381.712 174.815 381.768 174.86C381.825 174.905 381.893 174.934 381.964 174.945C382.035 174.956 382.108 174.949 382.176 174.923C382.244 174.898 382.304 174.855 382.35 174.8L386.94 170.08L390.64 166.3C390.693 166.235 390.725 166.156 390.734 166.073C390.742 165.99 390.726 165.907 390.688 165.833C390.65 165.758 390.591 165.697 390.519 165.656C390.446 165.614 390.363 165.595 390.28 165.6L388.88 165.28L386.26 164.68L381.93 163.68L380.3 163.28L379.64 163.12C379.475 163.055 379.297 163.027 379.12 163.04C379.005 163.063 378.898 163.119 378.813 163.2C378.728 163.282 378.668 163.386 378.64 163.5C378.61 163.66 378.64 163.76 378.62 163.76Z" fill="#455A64"/>
<path d="M370.42 195.12C375.91 187.77 379.02 180.29 378.5 172.64L368.19 162.71C358.19 159.38 344.44 169.87 344.44 169.87C344.44 169.87 347.85 188.37 370.42 195.12Z" fill="#263238"/>
<path d="M384.085 155.434L384.406 155.735C385.861 157.099 386.714 158.985 386.778 160.979C386.842 162.972 386.112 164.909 384.747 166.364L375.438 176.292L364.146 165.703L373.462 155.768C374.138 155.048 374.948 154.468 375.848 154.062C376.747 153.655 377.718 153.43 378.704 153.399C379.691 153.368 380.674 153.531 381.597 153.881C382.521 154.23 383.366 154.758 384.085 155.434Z" fill="#263238"/>
<path d="M377.8 172.29C377.057 172.315 376.316 172.193 375.62 171.93C373.909 171.399 372.33 170.509 370.99 169.32C369.64 168.133 368.557 166.675 367.81 165.04C367.468 164.383 367.258 163.667 367.19 162.93C367.557 163.562 367.89 164.213 368.19 164.88C368.996 166.411 370.074 167.783 371.37 168.93C372.672 170.069 374.165 170.97 375.78 171.59C377 172.05 377.81 172.2 377.8 172.29Z" fill="#455A64"/>
<path d="M418.31 203C418.31 203.184 418.255 203.364 418.153 203.517C418.051 203.67 417.906 203.789 417.736 203.859C417.566 203.93 417.379 203.948 417.199 203.912C417.018 203.876 416.852 203.788 416.722 203.658C416.592 203.528 416.504 203.362 416.468 203.181C416.432 203.001 416.45 202.814 416.521 202.644C416.591 202.474 416.71 202.329 416.863 202.227C417.016 202.125 417.196 202.07 417.38 202.07C417.502 202.07 417.623 202.094 417.736 202.141C417.849 202.188 417.951 202.256 418.038 202.342C418.124 202.429 418.192 202.531 418.239 202.644C418.286 202.757 418.31 202.878 418.31 203Z" fill="#455A64"/>
<path d="M383.87 170.8C383.87 170.984 383.815 171.164 383.713 171.317C383.611 171.47 383.466 171.589 383.296 171.659C383.126 171.73 382.939 171.748 382.759 171.712C382.578 171.676 382.412 171.588 382.282 171.458C382.152 171.328 382.064 171.162 382.028 170.982C381.992 170.801 382.01 170.614 382.081 170.444C382.151 170.274 382.27 170.129 382.423 170.027C382.576 169.925 382.756 169.87 382.94 169.87C383.187 169.87 383.423 169.968 383.598 170.143C383.772 170.317 383.87 170.553 383.87 170.8Z" fill="#455A64"/>
<path d="M387.4 167.19C387.4 167.374 387.345 167.554 387.243 167.707C387.141 167.86 386.996 167.979 386.826 168.049C386.656 168.12 386.469 168.138 386.289 168.102C386.108 168.066 385.942 167.978 385.812 167.848C385.682 167.718 385.594 167.552 385.558 167.371C385.522 167.191 385.54 167.004 385.611 166.834C385.681 166.664 385.8 166.519 385.953 166.417C386.106 166.315 386.286 166.26 386.47 166.26C386.592 166.26 386.713 166.284 386.826 166.331C386.939 166.378 387.041 166.446 387.128 166.532C387.214 166.619 387.282 166.721 387.329 166.834C387.376 166.947 387.4 167.068 387.4 167.19Z" fill="#455A64"/>
<path d="M414.54 206.38C414.54 206.564 414.485 206.744 414.383 206.897C414.281 207.05 414.136 207.169 413.966 207.239C413.796 207.31 413.609 207.328 413.428 207.292C413.248 207.256 413.082 207.168 412.952 207.038C412.822 206.908 412.734 206.742 412.698 206.561C412.662 206.381 412.68 206.194 412.751 206.024C412.821 205.854 412.94 205.709 413.093 205.607C413.246 205.504 413.426 205.45 413.61 205.45C413.857 205.45 414.093 205.548 414.268 205.722C414.442 205.897 414.54 206.133 414.54 206.38Z" fill="#455A64"/>
<path d="M377.67 269.96L377.39 431.31H226.91V269.52H217.26V431.31V440.28H226.91H377.39H387.04V431.31L387.32 269.96H377.67Z" fill="#E0E0E0"/>
<path d="M377.67 270H387.32H387.37C387.37 291.51 387.3 353.1 387.24 440.32V440.52H387H217.22H217V440.27C217 392.99 217 341.54 217 288.15V269.25H227.17V269.51C227.17 326.59 227.17 381.08 227.17 431.3L226.93 431.06L377.41 431.11L377.22 431.3C377.51 331.74 377.69 271.46 377.69 269.95C377.69 271.46 377.69 331.74 377.61 431.3V431.49H377.41L226.93 431.54H226.69V431.3C226.69 381.08 226.69 326.59 226.69 269.51L226.95 269.77H217.3L217.56 269.51V288.15C217.56 341.54 217.56 392.99 217.56 440.27L217.31 440.02L387.09 440.07L386.89 440.27C387.11 353.05 387.26 291.46 387.32 269.95L387.37 270H377.67Z" fill="#263238"/>
<path d="M416.38 253.74H198.34V271.14H416.38V253.74Z" fill="#AE7461"/>
<path d="M253 253.42L252.44 253.55C252.08 253.62 251.54 253.7 250.85 253.86C249.47 254.14 247.49 254.62 245.08 255.33C242.67 256.04 239.82 257 236.68 258.12C233.54 259.24 230.1 260.5 226.41 261.63C222.947 262.703 219.397 263.473 215.8 263.93C212.88 264.302 209.926 264.326 207 264C205.013 263.776 203.057 263.33 201.17 262.67C200.657 262.495 200.153 262.295 199.66 262.07C199.32 261.93 199.15 261.84 199.15 261.84C199.15 261.84 199.34 261.89 199.69 262.02C200.04 262.15 200.54 262.37 201.21 262.56C203.102 263.168 205.053 263.577 207.03 263.78C209.958 264.076 212.911 264.036 215.83 263.66C219.405 263.183 222.934 262.407 226.38 261.34C230.06 260.21 233.5 258.96 236.65 257.86C239.8 256.76 242.65 255.81 245.07 255.13C246.985 254.572 248.928 254.111 250.89 253.75C251.58 253.61 252.13 253.55 252.49 253.49C252.85 253.43 253 253.42 253 253.42Z" fill="#6F4439"/>
<path d="M364.21 269.49C364.131 269.415 364.057 269.335 363.99 269.25C363.792 269.006 363.582 268.772 363.36 268.55C362.51 267.678 361.536 266.937 360.47 266.35C358.781 265.429 356.943 264.813 355.04 264.53C352.517 264.179 349.953 264.243 347.45 264.72C344.407 265.311 341.402 266.083 338.45 267.03C335.065 268.145 331.567 268.883 328.02 269.23C326.088 269.368 324.146 269.236 322.25 268.84C320.28 268.406 318.363 267.762 316.53 266.92C312.78 265.27 309.16 263.03 305.16 261.41C297.11 258.17 288.6 257.92 281.21 258.87C274.627 259.816 268.178 261.538 262 264C256.7 266 252.53 268 249.64 269.26L246.31 270.77C245.55 271.12 245.14 271.29 245.14 271.29C245.14 271.29 245.53 271.08 246.28 270.72L249.58 269.15C252.46 267.81 256.63 265.86 261.92 263.8C268.102 261.304 274.562 259.561 281.16 258.61C288.58 257.61 297.16 257.88 305.26 261.14C309.26 262.78 312.91 265.02 316.63 266.66C318.444 267.495 320.341 268.136 322.29 268.57C324.159 268.967 326.074 269.098 327.98 268.96C331.507 268.62 334.988 267.899 338.36 266.81C341.312 265.872 344.317 265.11 347.36 264.53C349.888 264.06 352.476 264.009 355.02 264.38C356.936 264.681 358.785 265.317 360.48 266.26C361.545 266.865 362.512 267.627 363.35 268.52C363.661 268.821 363.948 269.145 364.21 269.49Z" fill="#6F4439"/>
<path d="M415.11 259.12C412.805 260.021 410.435 260.743 408.02 261.28C406.9 261.54 405.67 261.81 404.34 262C403.01 262.19 401.57 262.39 400.06 262.56C393.488 263.15 386.865 262.663 380.45 261.12C378.98 260.74 377.58 260.4 376.31 259.96C375.04 259.52 373.84 259.12 372.77 258.71C370.457 257.827 368.217 256.763 366.07 255.53C366.233 255.586 366.39 255.656 366.54 255.74L367.87 256.37C368.44 256.66 369.15 257 369.99 257.37C370.83 257.74 371.77 258.16 372.85 258.53C373.93 258.9 375.09 259.36 376.38 259.74C377.67 260.12 379.06 260.5 380.52 260.87C386.899 262.363 393.473 262.835 400 262.27C401.5 262.11 402.93 261.99 404.26 261.75C405.59 261.51 406.81 261.31 407.93 261.07C409.05 260.83 410.05 260.56 410.93 260.33C411.81 260.1 412.56 259.89 413.16 259.69L414.57 259.25C414.745 259.189 414.926 259.146 415.11 259.12Z" fill="#6F4439"/>
<path d="M290.24 249.36H223.33C222.082 249.36 221.07 250.372 221.07 251.62V251.75C221.07 252.998 222.082 254.01 223.33 254.01H290.24C291.488 254.01 292.5 252.998 292.5 251.75V251.62C292.5 250.372 291.488 249.36 290.24 249.36Z" fill="#455A64"/>
<path d="M309.28 192L292.56 252.1C292.385 252.721 291.971 253.249 291.41 253.567C290.848 253.885 290.183 253.969 289.56 253.8C288.938 253.625 288.411 253.211 288.093 252.65C287.775 252.088 287.691 251.423 287.86 250.8L304.59 190.65C304.763 190.027 305.176 189.498 305.738 189.179C306.301 188.86 306.967 188.778 307.59 188.95C307.902 189.037 308.194 189.186 308.449 189.387C308.703 189.588 308.915 189.838 309.072 190.122C309.23 190.405 309.329 190.718 309.365 191.04C309.4 191.362 309.371 191.689 309.28 192Z" fill="#455A64"/>
<path d="M295.67 196.65C295.57 196.76 290.89 192.38 285.22 186.89C279.55 181.4 275.04 176.89 275.14 176.75C275.24 176.61 279.91 181.01 285.58 186.51C291.25 192.01 295.77 196.55 295.67 196.65Z" fill="#263238"/>
<path d="M293.39 203.84C292.818 203.674 292.259 203.464 291.72 203.21L287.27 201.34C283.5 199.76 278.27 197.61 272.5 195.34C266.73 193.07 261.41 191.11 257.58 189.71L253 188C252.436 187.825 251.888 187.604 251.36 187.34C251.943 187.446 252.515 187.603 253.07 187.81C254.16 188.15 255.73 188.66 257.66 189.32C261.53 190.63 266.84 192.54 272.66 194.82C278.48 197.1 283.66 199.31 287.38 200.97C289.25 201.81 290.75 202.5 291.78 202.97C292.336 203.222 292.874 203.513 293.39 203.84Z" fill="#263238"/>
<path d="M292.47 211C291.107 211.21 289.721 211.24 288.35 211.09C286.971 211.119 285.593 210.975 284.25 210.66C286.993 210.426 289.755 210.541 292.47 211Z" fill="#263238"/>
<path d="M414.22 411.84C414.22 411.84 410.07 383.25 410.41 366.62C410.75 349.99 410.41 331.27 410.41 331.27H412.33C412.33 331.27 411.03 364.27 412.44 384.2C413.85 404.13 417.57 411.84 417.57 411.84H414.24" fill="#263238"/>
<path d="M426.61 299.1C426.31 298.089 425.702 297.198 424.87 296.55C423.65 295.78 422.06 296.1 420.7 296.55C414.91 298.6 409.78 309.39 407.44 315.07L415.12 340.97C429 328.13 431.4 311.24 426.61 299.1Z" fill="#455A64"/>
<path d="M424.42 297.6C424.394 297.715 424.354 297.826 424.3 297.93C424.21 298.18 424.08 298.5 423.93 298.88C423.59 299.69 423.12 300.88 422.55 302.35C421.42 305.29 419.98 309.35 418.69 314.03C417.4 318.71 416.52 322.94 415.98 326.03C415.7 327.58 415.5 328.84 415.37 329.71C415.3 330.12 415.25 330.45 415.2 330.71C415.187 330.826 415.16 330.94 415.12 331.05C415.109 330.934 415.109 330.817 415.12 330.7C415.12 330.43 415.18 330.1 415.22 329.7C415.32 328.82 415.49 327.55 415.74 325.99C416.4 321.947 417.285 317.944 418.39 314C419.502 310.034 420.837 306.135 422.39 302.32C422.98 300.85 423.48 299.68 423.86 298.88C424.03 298.51 424.17 298.2 424.29 297.96C424.313 297.834 424.357 297.712 424.42 297.6Z" fill="#263238"/>
<path d="M411.71 347.21C408.21 345.22 405.281 342.362 403.205 338.912C401.13 335.461 399.978 331.535 399.86 327.51C399.58 321.77 401.35 316.13 403.35 310.73C403.471 310.245 403.757 309.817 404.16 309.52C404.491 309.395 404.849 309.357 405.199 309.409C405.549 309.462 405.88 309.603 406.16 309.82C411.39 312.82 414.57 318.49 416.25 324.27C417.466 328.105 417.872 332.15 417.44 336.15C416.78 340.354 414.781 344.233 411.74 347.21" fill="#455A64"/>
<path d="M411.71 347.21C411.697 347.094 411.697 346.976 411.71 346.86V345.86C411.71 344.99 411.71 343.74 411.6 342.2C411.397 338.177 410.95 334.169 410.26 330.2C409.47 325.56 408.5 321.41 407.78 318.41L406.93 314.85L406.71 313.85C406.677 313.739 406.656 313.625 406.65 313.51C406.703 313.611 406.743 313.719 406.77 313.83C406.84 314.09 406.93 314.4 407.05 314.83C407.28 315.66 407.61 316.83 408 318.36C408.77 321.36 409.78 325.51 410.58 330.16C411.265 334.128 411.683 338.137 411.83 342.16C411.83 343.7 411.83 344.95 411.83 345.82C411.83 346.22 411.83 346.55 411.83 346.82C411.807 346.955 411.767 347.086 411.71 347.21Z" fill="#263238"/>
<g opacity="0.3">
<path d="M411.71 347.21C408.21 345.22 405.281 342.362 403.205 338.912C401.13 335.461 399.978 331.535 399.86 327.51C399.58 321.77 401.35 316.13 403.35 310.73C403.471 310.245 403.757 309.817 404.16 309.52C404.491 309.395 404.849 309.357 405.199 309.409C405.549 309.462 405.88 309.603 406.16 309.82C411.39 312.82 414.57 318.49 416.25 324.27C417.466 328.105 417.872 332.15 417.44 336.15C416.78 340.354 414.781 344.233 411.74 347.21" fill="black"/>
</g>
<path d="M419.84 391C426.93 392.56 432.76 397.56 439.61 400C444.13 401.61 449.25 402.18 452.86 405.34C452 403.15 449.94 401.69 447.94 400.45C442.305 396.908 436.287 394.016 430 391.83C426.79 390.72 423.29 389.83 420 390.71" fill="#455A64"/>
<path d="M409.58 397.27C400.7 397.12 391.35 389.56 382.52 389.11C391.76 386.11 405.01 388.56 409.58 397.27Z" fill="#455A64"/>
<path d="M413.05 376C417.626 374.489 422.507 374.146 427.25 375C431.967 375.864 436.603 377.122 441.11 378.76C440.65 375.68 438.16 373.37 435.81 371.32C434.099 369.718 432.237 368.284 430.25 367.04C428.251 365.792 425.937 365.14 423.58 365.16C422.165 365.248 420.782 365.622 419.515 366.26C418.248 366.898 417.124 367.786 416.21 368.87C414.416 370.828 413.307 373.317 413.05 375.96" fill="#455A64"/>
<path d="M394.83 366.16C389.24 361.39 380.77 361.85 373.42 362.02C385.23 367.646 396.367 374.586 406.62 382.71C406.92 377.51 401.89 372.19 394.83 366.16Z" fill="#455A64"/>
<g opacity="0.3">
<path d="M394.83 366.16C389.24 361.39 380.77 361.85 373.42 362.02C385.23 367.646 396.367 374.586 406.62 382.71C406.92 377.51 401.89 372.19 394.83 366.16Z" fill="black"/>
</g>
<path d="M415.57 359.57C418.297 357.68 421.17 356.008 424.16 354.57C427.11 353.24 429.85 351.11 432.69 349.57C436.38 347.57 439.57 344.8 442.95 342.33C446.33 339.86 450.05 337.62 454.19 336.97C450.781 336.359 447.276 336.561 443.96 337.56C440.66 338.553 437.444 339.803 434.34 341.3C429.98 343.3 425.54 345.3 421.98 348.47C418.42 351.64 415.19 354.8 415.57 359.57Z" fill="#455A64"/>
<path d="M439.44 397.27L439.16 397.14L438.39 396.74C437.72 396.39 436.76 395.86 435.55 395.25C434.95 394.94 434.29 394.61 433.55 394.25C432.81 393.89 432.06 393.55 431.24 393.19C429.475 392.399 427.645 391.764 425.77 391.29C423.914 390.774 421.96 390.723 420.08 391.14C419.256 391.319 418.447 391.56 417.66 391.86C416.985 392.134 416.335 392.469 415.72 392.86C414.82 393.418 413.997 394.09 413.27 394.86C412.75 395.41 412.5 395.74 412.48 395.73C412.52 395.636 412.574 395.548 412.64 395.47C412.805 395.225 412.985 394.991 413.18 394.77C413.882 393.953 414.693 393.237 415.59 392.64C416.224 392.23 416.893 391.879 417.59 391.59C418.386 391.274 419.205 391.02 420.04 390.83C421.966 390.382 423.974 390.423 425.88 390.95C427.772 391.427 429.616 392.077 431.39 392.89C432.21 393.26 432.98 393.62 433.69 393.98C434.4 394.34 435.07 394.67 435.69 394.98C436.89 395.62 437.84 396.18 438.49 396.57L439.23 397.02C439.36 397.2 439.45 397.26 439.44 397.27Z" fill="#263238"/>
<path d="M403 392.86C403.194 392.889 403.383 392.946 403.56 393.03C404.054 393.208 404.535 393.418 405 393.66C406.559 394.442 407.991 395.453 409.25 396.66C410.508 397.862 411.577 399.248 412.42 400.77C412.678 401.229 412.909 401.703 413.11 402.19C413.196 402.364 413.257 402.549 413.29 402.74C413.24 402.74 412.91 402.01 412.23 400.89C410.443 397.954 407.915 395.54 404.9 393.89C403.7 393.22 402.94 392.92 403 392.86Z" fill="#263238"/>
<path d="M383.31 365.71C383.44 365.733 383.568 365.77 383.69 365.82L384.76 366.2L386.44 366.82C387.09 367.07 387.8 367.43 388.61 367.82C392.776 369.748 396.664 372.227 400.17 375.19C402.088 376.833 403.889 378.607 405.56 380.5C406.921 382.045 408.199 383.661 409.39 385.34C410.39 386.78 411.17 387.98 411.7 388.8L412.3 389.8C412.382 389.904 412.449 390.018 412.5 390.14C412.406 390.046 412.322 389.942 412.25 389.83C412.1 389.63 411.87 389.32 411.59 388.91C411.03 388.1 410.24 386.91 409.2 385.51C408.16 384.11 406.87 382.51 405.34 380.73C403.664 378.861 401.866 377.104 399.96 375.47C396.474 372.507 392.627 369.997 388.51 368C387.72 367.64 387.02 367.27 386.37 367L384.71 366.33L383.71 365.89C383.57 365.845 383.436 365.785 383.31 365.71Z" fill="#263238"/>
<path d="M426.38 371C426.141 370.998 425.902 370.968 425.67 370.91L424.85 370.76C424.54 370.7 424.17 370.7 423.76 370.66C421.654 370.471 419.538 370.888 417.66 371.86C416.633 372.4 415.695 373.095 414.88 373.92C414.208 374.59 413.611 375.331 413.1 376.13C412.636 376.875 412.228 377.654 411.88 378.46C411.903 378.222 411.964 377.989 412.06 377.77C412.281 377.155 412.566 376.565 412.91 376.01C413.399 375.174 413.994 374.404 414.68 373.72C415.496 372.853 416.453 372.129 417.51 371.58C419.438 370.578 421.622 370.178 423.78 370.43C424.19 370.49 424.57 370.51 424.88 370.59L425.7 370.79C425.933 370.839 426.16 370.909 426.38 371Z" fill="#263238"/>
<path d="M435.3 343.28C435.201 343.367 435.09 343.437 434.97 343.49L433.97 344.03C433.1 344.49 431.86 345.18 430.36 346.03C428.86 346.88 427.09 348.03 425.21 349.37C423.16 350.807 421.24 352.42 419.47 354.19C418.556 355.08 417.766 356.089 417.12 357.19C416.54 358.3 415.98 359.38 415.47 360.42C414.553 362.249 413.732 364.125 413.01 366.04C412.528 367.331 412.124 368.65 411.8 369.99C411.712 370.489 411.598 370.983 411.46 371.47C411.451 371.34 411.451 371.21 411.46 371.08C411.46 370.82 411.52 370.45 411.64 369.97C411.921 368.613 412.291 367.277 412.75 365.97C413.447 364.035 414.255 362.142 415.17 360.3C415.68 359.3 416.23 358.17 416.81 357.05C417.464 355.911 418.268 354.865 419.2 353.94C420.982 352.156 422.923 350.54 425 349.11C426.9 347.77 428.69 346.68 430.21 345.8C431.73 344.92 432.99 344.28 433.87 343.85L434.87 343.36L435.3 343.28Z" fill="#263238"/>
<path d="M410.4 370.17C410.316 369.927 410.259 369.676 410.23 369.42C410.12 368.88 409.99 368.19 409.84 367.37C409.011 362.854 407.592 358.467 405.62 354.32L404.76 352.42C404.634 352.193 404.537 351.951 404.47 351.7C404.625 351.906 404.759 352.127 404.87 352.36C405.1 352.8 405.43 353.43 405.87 354.22C406.9 356.284 407.779 358.419 408.5 360.61C409.201 362.807 409.736 365.053 410.1 367.33C410.24 368.21 410.34 368.91 410.39 369.41C410.418 369.663 410.421 369.917 410.4 370.17Z" fill="#263238"/>
<path d="M409.76 350C409.48 346.636 408.495 343.369 406.87 340.41C404.682 336.337 401.627 332.794 397.921 330.029C394.215 327.265 389.948 325.347 385.42 324.41L405.28 354L407.85 359.29C409.456 356.474 410.125 353.221 409.76 350Z" fill="#455A64"/>
<path d="M443.16 401.56H387.23V411.47H443.16V401.56Z" fill="#F85757"/>
<path d="M391.41 409.5L398.91 440.26H433.3L438.98 409.5H391.41Z" fill="#F85757"/>
<path d="M443.13 411.48C443.13 411.59 430.51 411.68 414.96 411.68C399.41 411.68 386.78 411.59 386.78 411.48C386.78 411.37 399.39 411.28 414.96 411.28C430.53 411.28 443.13 411.37 443.13 411.48Z" fill="#263238"/>
</svg>
