<svg width="1000" height="250" viewBox="0 0 1000 250" fill="none" xmlns="http://www.w3.org/2000/svg">
<rect width="1000" height="250" fill="#F85757"/>
<path d="M388 120.212V153.533C388 154.343 388.657 155 389.467 155H429.413C429.717 155 430.014 154.905 430.263 154.729L443.518 145.311C443.905 145.036 444.135 144.59 444.135 144.115V113.672C444.135 113.221 443.928 112.795 443.573 112.517L422.084 95.6672C420.952 94.7797 419.362 94.7774 418.227 95.6615C416.623 96.9121 416.618 99.3369 418.218 100.594L437.598 115.816C437.81 115.983 437.934 116.238 437.934 116.508V141.127C437.934 141.412 437.796 141.68 437.563 141.845L428.175 148.502C428.026 148.607 427.848 148.664 427.666 148.664H395.081C394.595 148.664 394.201 148.27 394.201 147.784V123.011C394.201 122.742 394.324 122.488 394.535 122.321L409.461 110.503C409.781 110.25 410.233 110.25 410.553 110.503L425.586 122.405C425.73 122.519 425.813 122.692 425.813 122.874V136.552C425.813 139.08 428.676 140.545 430.727 139.067C431.535 138.484 432.014 137.548 432.014 136.552V120.212C432.014 119.764 431.809 119.34 431.457 119.062L410.917 102.818C410.384 102.396 409.63 102.396 409.097 102.818L388.557 119.062C388.205 119.34 388 119.764 388 120.212Z" fill="white" stroke="white" stroke-width="0.343169"/>
<path d="M481.752 141.53L475.651 130.753H469.862V141.53H464.028V110.358H476.675C478.516 110.358 480.223 110.818 481.797 111.738C483.37 112.629 484.602 113.861 485.493 115.434C486.413 117.008 486.873 118.715 486.873 120.555C486.873 122.455 486.398 124.192 485.448 125.766C484.498 127.339 483.222 128.571 481.618 129.462L488.387 141.53H481.752ZM469.862 115.879V125.187H476.675C477.952 125.187 479.05 124.741 479.971 123.851C480.891 122.931 481.351 121.832 481.351 120.555C481.351 119.249 480.891 118.151 479.971 117.26C479.08 116.34 477.982 115.879 476.675 115.879H469.862ZM500.796 118.685C502.934 118.685 504.849 119.219 506.541 120.288C508.263 121.327 509.599 122.737 510.549 124.519C511.499 126.3 511.974 128.274 511.974 130.441C511.974 131.154 511.914 131.807 511.796 132.401H494.606C495.052 133.974 495.838 135.206 496.966 136.097C498.095 136.958 499.535 137.388 501.286 137.388C502.355 137.388 503.379 137.151 504.359 136.676C505.368 136.201 506.125 135.592 506.63 134.85L510.86 137.344C509.821 138.888 508.471 140.075 506.808 140.906C505.175 141.708 503.29 142.109 501.153 142.109C498.778 142.109 496.67 141.604 494.829 140.595C492.988 139.585 491.563 138.19 490.554 136.409C489.574 134.627 489.084 132.623 489.084 130.397C489.084 128.2 489.574 126.211 490.554 124.43C491.563 122.648 492.959 121.253 494.74 120.244C496.521 119.205 498.54 118.685 500.796 118.685ZM506.808 128.081C506.571 126.656 505.903 125.543 504.804 124.741C503.735 123.91 502.385 123.494 500.752 123.494C499.624 123.494 498.585 123.702 497.635 124.118C496.714 124.534 495.972 125.098 495.408 125.81C494.844 126.523 494.547 127.28 494.517 128.081H506.808ZM532.924 119.264H538.446V141.53H532.924V139.348C531.885 140.238 530.742 140.936 529.495 141.441C528.278 141.916 526.986 142.153 525.621 142.153C523.364 142.153 521.39 141.649 519.698 140.639C518.006 139.63 516.7 138.234 515.779 136.453C514.889 134.672 514.443 132.668 514.443 130.441C514.443 128.215 514.889 126.211 515.779 124.43C516.7 122.648 518.006 121.253 519.698 120.244C521.39 119.205 523.364 118.685 525.621 118.685C526.986 118.685 528.278 118.937 529.495 119.442C530.742 119.917 531.885 120.6 532.924 121.491V119.264ZM526.333 136.854C527.55 136.854 528.649 136.587 529.629 136.052C530.638 135.488 531.425 134.717 531.989 133.737C532.582 132.757 532.879 131.644 532.879 130.397C532.879 128.527 532.241 126.998 530.965 125.81C529.718 124.623 528.174 124.029 526.333 124.029C524.463 124.029 522.919 124.637 521.702 125.855C520.514 127.042 519.921 128.571 519.921 130.441C519.921 132.312 520.514 133.856 521.702 135.073C522.919 136.26 524.463 136.854 526.333 136.854ZM548.996 135.251C548.996 135.726 549.114 136.067 549.352 136.275C549.589 136.483 549.961 136.587 550.465 136.587C550.851 136.587 551.311 136.542 551.846 136.453V141.53C550.747 141.708 549.723 141.797 548.773 141.797C547.051 141.797 545.73 141.352 544.81 140.461C543.919 139.541 543.474 137.923 543.474 135.607V110.358H548.996V135.251ZM563.746 133.915C563.746 134.924 563.984 135.622 564.459 136.008C564.933 136.394 565.69 136.587 566.73 136.587C567.352 136.587 568.036 136.542 568.778 136.453V141.53C567.383 141.678 566.225 141.753 565.304 141.753C562.929 141.753 561.149 141.218 559.96 140.149C558.803 139.051 558.223 137.092 558.223 134.271V124.207H554.038V119.264H558.223V113.787L563.746 111.916V119.264H568.689V124.207H563.746V133.915ZM582.945 142.153C580.838 142.153 578.879 141.634 577.068 140.595C575.286 139.526 573.862 138.101 572.791 136.32C571.753 134.509 571.234 132.549 571.234 130.441C571.234 128.334 571.753 126.389 572.791 124.608C573.862 122.797 575.286 121.372 577.068 120.333C578.879 119.264 580.838 118.73 582.945 118.73C585.053 118.73 586.997 119.264 588.779 120.333C590.589 121.372 592.016 122.797 593.053 124.608C594.122 126.389 594.657 128.334 594.657 130.441C594.657 132.549 594.122 134.509 593.053 136.32C592.016 138.101 590.589 139.526 588.779 140.595C586.997 141.634 585.053 142.153 582.945 142.153ZM582.9 136.631C584.029 136.631 585.068 136.364 586.017 135.83C586.968 135.266 587.725 134.509 588.29 133.559C588.854 132.609 589.136 131.57 589.136 130.441C589.136 129.313 588.854 128.274 588.29 127.324C587.725 126.374 586.968 125.617 586.017 125.053C585.068 124.489 584.029 124.207 582.9 124.207C581.773 124.207 580.734 124.489 579.783 125.053C578.834 125.617 578.077 126.374 577.512 127.324C576.979 128.274 576.71 129.313 576.71 130.441C576.71 131.57 576.979 132.609 577.512 133.559C578.077 134.509 578.834 135.266 579.783 135.83C580.734 136.364 581.773 136.631 582.9 136.631ZM611.407 118.819L611.007 124.029C610.829 123.969 610.516 123.94 610.072 123.94C608.232 123.94 606.702 124.474 605.484 125.543C604.298 126.612 603.704 128.066 603.704 129.907V141.53H598.181V119.264H603.704V123.005C604.209 121.817 605.069 120.823 606.286 120.021C607.504 119.219 608.974 118.819 610.696 118.819H611.407Z" fill="white"/>
</svg>
