<svg width="132" height="37" viewBox="0 0 132 37" fill="none" xmlns="http://www.w3.org/2000/svg">
<path d="M1 15.7449V35.2322C1 35.706 1.3841 36.0901 1.85792 36.0901H25.2198C25.3978 36.0901 25.5715 36.0347 25.7167 35.9316L33.4689 30.4237C33.6953 30.2628 33.8299 30.0022 33.8299 29.7244V11.9198C33.8299 11.6563 33.7087 11.4073 33.5013 11.2447L20.9337 1.39018C20.2718 0.871182 19.3415 0.86981 18.6781 1.38686C17.7396 2.11825 17.737 3.53635 18.6726 4.27129L30.0065 13.1737C30.1307 13.2713 30.2032 13.4205 30.2032 13.5785V27.9765C30.2032 28.1433 30.1224 28.2998 29.9863 28.3963L24.4959 32.2897C24.4088 32.3514 24.3048 32.3846 24.1981 32.3846H5.14139C4.8571 32.3846 4.62664 32.1542 4.62664 31.8699V17.3816C4.62664 17.2243 4.69855 17.0757 4.82186 16.9781L13.551 10.0669C13.7383 9.91862 14.0028 9.91862 14.1901 10.0669L22.9818 17.0276C23.0656 17.0939 23.1145 17.195 23.1145 17.3019V25.3008C23.1145 26.7793 24.7888 27.6364 25.9881 26.7718C26.4609 26.431 26.7411 25.8837 26.7411 25.3008V15.7449C26.7411 15.4826 26.6211 15.2347 26.4153 15.072L14.4027 5.57208C14.0908 5.32542 13.6503 5.32542 13.3384 5.57208L1.32576 15.072C1.12 15.2347 1 15.4826 1 15.7449Z" fill="white" stroke="white" stroke-width="0.343169"/>
<path d="M55.8295 28.2124L52.2615 21.9098H48.8758V28.2124H45.4641V9.98169H52.8605C53.937 9.98169 54.9353 10.2508 55.8556 10.7891C56.7758 11.31 57.4963 12.0305 58.0172 12.9507C58.5554 13.8709 58.8246 14.8693 58.8246 15.9458C58.8246 17.057 58.5468 18.0727 57.9912 18.9929C57.4355 19.9131 56.689 20.6336 55.7514 21.1545L59.71 28.2124H55.8295ZM48.8758 13.2111V18.6543H52.8605C53.6071 18.6543 54.2495 18.3939 54.7878 17.873C55.326 17.3348 55.5951 16.6923 55.5951 15.9458C55.5951 15.1818 55.326 14.5394 54.7878 14.0185C54.2669 13.4803 53.6245 13.2111 52.8605 13.2111H48.8758ZM66.9673 14.8519C68.2174 14.8519 69.3373 15.1644 70.327 15.7895C71.334 16.3972 72.1153 17.2219 72.6709 18.2637C73.2265 19.3054 73.5043 20.46 73.5043 21.7275C73.5043 22.1442 73.4696 22.5262 73.4001 22.8734H63.3472C63.6077 23.7936 64.0678 24.5142 64.7275 25.035C65.3873 25.5386 66.2294 25.7903 67.2538 25.7903C67.8789 25.7903 68.4779 25.6514 69.0508 25.3736C69.6411 25.0958 70.0839 24.7399 70.3791 24.3058L72.8532 25.7643C72.2455 26.6671 71.4555 27.3616 70.4832 27.8478C69.5283 28.3166 68.4258 28.551 67.1757 28.551C65.7867 28.551 64.5539 28.2558 63.4774 27.6655C62.401 27.0751 61.5676 26.2591 60.9772 25.2174C60.4043 24.1756 60.1178 23.0036 60.1178 21.7014C60.1178 20.4166 60.4043 19.2533 60.9772 18.2116C61.5676 17.1698 62.3836 16.3538 63.4254 15.7634C64.4671 15.1558 65.6478 14.8519 66.9673 14.8519ZM70.4832 20.3472C70.3443 19.5138 69.9537 18.8627 69.3113 18.3939C68.6862 17.9077 67.8962 17.6646 66.9413 17.6646C66.2815 17.6646 65.6738 17.7862 65.1182 18.0293C64.58 18.2723 64.1459 18.6022 63.816 19.0189C63.4861 19.4356 63.3125 19.8784 63.2951 20.3472H70.4832ZM85.7567 15.1905H88.9861V28.2124H85.7567V26.9362C85.149 27.4571 84.4806 27.8651 83.7513 28.1603C83.0395 28.4381 82.2842 28.577 81.4855 28.577C80.166 28.577 79.0114 28.2818 78.0217 27.6915C77.032 27.1012 76.2681 26.2851 75.7298 25.2434C75.209 24.2016 74.9485 23.0297 74.9485 21.7275C74.9485 20.4253 75.209 19.2533 75.7298 18.2116C76.2681 17.1698 77.032 16.3538 78.0217 15.7634C79.0114 15.1558 80.166 14.8519 81.4855 14.8519C82.2842 14.8519 83.0395 14.9995 83.7513 15.2947C84.4806 15.5725 85.149 15.9718 85.7567 16.4927V15.1905ZM81.9022 25.4778C82.6141 25.4778 83.2565 25.3215 83.8295 25.009C84.4198 24.6791 84.8799 24.2277 85.2098 23.6547C85.557 23.0818 85.7307 22.4307 85.7307 21.7014C85.7307 20.6076 85.3574 19.7134 84.6108 19.0189C83.8816 18.3244 82.9787 17.9772 81.9022 17.9772C80.8084 17.9772 79.9055 18.3331 79.1937 19.045C78.4992 19.7395 78.1519 20.6336 78.1519 21.7275C78.1519 22.8213 78.4992 23.7242 79.1937 24.436C79.9055 25.1305 80.8084 25.4778 81.9022 25.4778ZM95.1561 24.5402C95.1561 24.818 95.2255 25.0177 95.3644 25.1392C95.5033 25.2608 95.7204 25.3215 96.0155 25.3215C96.2413 25.3215 96.5104 25.2955 96.8229 25.2434V28.2124C96.1805 28.3166 95.5815 28.3687 95.0259 28.3687C94.0188 28.3687 93.2462 28.1082 92.708 27.5873C92.1871 27.0491 91.9267 26.1028 91.9267 24.7486V9.98169H95.1561V24.5402ZM103.783 23.7589C103.783 24.3492 103.922 24.7572 104.2 24.983C104.477 25.2087 104.92 25.3215 105.528 25.3215C105.892 25.3215 106.292 25.2955 106.726 25.2434V28.2124C105.91 28.2992 105.233 28.3426 104.694 28.3426C103.305 28.3426 102.264 28.0301 101.569 27.405C100.892 26.7626 100.553 25.6167 100.553 23.9672V18.0813H98.1049V15.1905H100.553V11.9871L103.783 10.8932V15.1905H106.674V18.0813H103.783V23.7589ZM115.011 28.577C113.779 28.577 112.633 28.2732 111.574 27.6655C110.532 27.0404 109.699 26.207 109.073 25.1653C108.466 24.1062 108.162 22.9602 108.162 21.7275C108.162 20.4947 108.466 19.3575 109.073 18.3157C109.699 17.2566 110.532 16.4232 111.574 15.8155C112.633 15.1905 113.779 14.878 115.011 14.878C116.244 14.878 117.381 15.1905 118.423 15.8155C119.482 16.4232 120.316 17.2566 120.923 18.3157C121.548 19.3575 121.861 20.4947 121.861 21.7275C121.861 22.9602 121.548 24.1062 120.923 25.1653C120.316 26.207 119.482 27.0404 118.423 27.6655C117.381 28.2732 116.244 28.577 115.011 28.577ZM114.985 25.3476C115.645 25.3476 116.253 25.1913 116.808 24.8788C117.364 24.5489 117.807 24.1062 118.137 23.5505C118.467 22.9949 118.632 22.3873 118.632 21.7275C118.632 21.0677 118.467 20.46 118.137 19.9044C117.807 19.3488 117.364 18.9061 116.808 18.5762C116.253 18.2463 115.645 18.0813 114.985 18.0813C114.326 18.0813 113.718 18.2463 113.162 18.5762C112.607 18.9061 112.164 19.3488 111.834 19.9044C111.522 20.46 111.365 21.0677 111.365 21.7275C111.365 22.3873 111.522 22.9949 111.834 23.5505C112.164 24.1062 112.607 24.5489 113.162 24.8788C113.718 25.1913 114.326 25.3476 114.985 25.3476ZM131.657 14.93L131.423 17.9772C131.319 17.9424 131.136 17.9251 130.876 17.9251C129.8 17.9251 128.905 18.2376 128.193 18.8627C127.499 19.4877 127.152 20.3385 127.152 21.415V28.2124H123.922V15.1905H127.152V17.3782C127.447 16.6837 127.95 16.102 128.662 15.6332C129.374 15.1644 130.234 14.93 131.241 14.93H131.657Z" fill="white"/>
</svg>
