<svg width="137" height="137" viewBox="0 0 137 137" fill="none" xmlns="http://www.w3.org/2000/svg">
<g clip-path="url(#clip0_7_101)">
<path d="M137 0H0V137H137V0Z" fill="#F85757" fill-opacity="0.1"/>
<g filter="url(#filter0_d_7_101)">
<path fill-rule="evenodd" clip-rule="evenodd" d="M39.1524 71.3745H26.625V73.4624V77.6382H26.649C31.2315 77.6513 34.9766 81.4045 34.9766 85.9898V98.5173H47.5041V85.9898C47.5041 81.4045 51.2492 77.6513 55.8317 77.6382H80.9346C85.5171 77.6513 89.2622 81.4045 89.2622 85.9898V98.5173H101.79V85.9898C101.79 81.4045 105.535 77.6513 110.117 77.6382H110.141V71.3745H97.6138V63.5885C98.9559 63.9274 100.348 64.2177 101.79 64.451V71.3745H103.878V64.7441C105.874 64.982 107.961 65.1108 110.141 65.1108V60.935C86.548 60.935 74.2293 44.0229 72.559 41.3087C72.1414 39.4296 70.4711 37.968 68.3832 37.968C66.2953 37.968 64.6249 39.4296 64.2074 41.5175C62.9546 43.8142 52.3063 60.935 26.625 60.935V65.1108C28.8121 65.1108 30.899 64.9987 32.8887 64.7905V71.3745H34.9766V64.5325C36.4225 64.3258 37.814 64.0681 39.1524 63.7659V71.3745ZM41.2403 71.3745H57.9436V54.8988C56.684 55.8969 55.2942 56.887 53.7678 57.8357V71.3745H51.6799V59.0571C50.3763 59.7739 48.9854 60.4554 47.5041 61.0852V71.3745H45.4162V61.9146C44.0908 62.405 42.6995 62.8529 41.2403 63.248V71.3745ZM60.0315 53.1369V71.3745H64.2074V48.8251C63.0887 50.1589 61.7041 51.6346 60.0315 53.1369ZM66.2953 71.3745H70.4711V67.1987H66.2953V71.3745ZM72.559 71.3745H76.7348V52.3595C75.0952 50.8924 73.7064 49.4692 72.559 48.1988V71.3745ZM78.8227 54.1337V71.3745H95.5259V63.0111C94.0717 62.5735 92.6801 62.0796 91.3501 61.5411V71.3745H89.2622V60.6375C87.7877 59.9575 86.3963 59.2255 85.0864 58.4602V71.3745H82.9985V57.17C81.4834 56.1815 80.0925 55.1576 78.8227 54.1337ZM66.2953 50.4955V54.6713H70.4711V50.4955H66.2953ZM66.2953 42.1438V46.3196H70.4711V42.1438H66.2953ZM66.2953 63.0229H70.4711V58.8471H66.2953V63.0229Z" fill="#FF0000" fill-opacity="0.01"/>
</g>
<path d="M76.7357 50.7041H78.8236V71.5832H76.7357V50.7041ZM82.9995 55.5063H85.0874V71.3744H82.9995V55.5063ZM89.2632 58.4294H91.3511V71.3744H89.2632V58.4294ZM95.5269 61.1436H97.6148V71.5832H95.5269V61.1436ZM101.791 62.1876H103.879V71.3744H101.791V62.1876ZM57.9446 50.7041H60.0325V71.5832H57.9446V50.7041ZM51.6809 55.5063H53.7688V71.3744H51.6809V55.5063ZM45.4171 58.4294H47.505V71.3744H45.4171V58.4294ZM39.1534 61.1436H41.2413V71.5832H39.1534V61.1436ZM32.8897 62.1876H34.9776V71.3744H32.8897V62.1876ZM110.142 73.4623H26.626V77.6381C31.2194 77.6381 34.9776 81.3963 34.9776 85.9897V98.5172H47.505V85.9897C47.505 81.3963 51.2633 77.6381 55.8567 77.6381H80.9116C85.5049 77.6381 89.2632 81.3963 89.2632 85.9897V98.5172H101.791V85.9897C101.791 81.3963 105.549 77.6381 110.142 77.6381V73.4623Z" fill="white"/>
<path d="M26.625 71.3745H110.141V77.6382H26.625V71.3745ZM72.559 41.3087C72.1414 39.4296 70.471 37.968 68.3831 37.968C66.2952 37.968 64.6249 39.4296 64.2073 41.5175C62.9546 43.8142 52.3063 60.935 26.625 60.935V65.1108C47.0865 65.1108 58.7788 55.2976 64.2073 48.8251V71.3745H66.2952V67.1987H70.471V71.3745H72.559V48.1988C78.4051 54.6713 90.515 65.1108 110.141 65.1108V60.935C86.5479 60.935 74.2293 44.0229 72.559 41.3087ZM70.471 63.0229H66.2952V58.8471H70.471V63.0229ZM70.471 54.6713H66.2952V50.4955H70.471V54.6713ZM70.471 46.3196H66.2952V42.1438H70.471V46.3196Z" fill="#F85757"/>
</g>
<defs>
<filter id="filter0_d_7_101" x="20.9857" y="33.7385" width="94.7946" height="71.828" filterUnits="userSpaceOnUse" color-interpolation-filters="sRGB">
<feFlood flood-opacity="0" result="BackgroundImageFix"/>
<feColorMatrix in="SourceAlpha" type="matrix" values="0 0 0 0 0 0 0 0 0 0 0 0 0 0 0 0 0 0 127 0" result="hardAlpha"/>
<feOffset dy="1.40983"/>
<feGaussianBlur stdDeviation="2.81966"/>
<feComposite in2="hardAlpha" operator="out"/>
<feColorMatrix type="matrix" values="0 0 0 0 0.791949 0 0 0 0 0.129791 0 0 0 0 0.129791 0 0 0 0.1 0"/>
<feBlend mode="normal" in2="BackgroundImageFix" result="effect1_dropShadow_7_101"/>
<feBlend mode="normal" in="SourceGraphic" in2="effect1_dropShadow_7_101" result="shape"/>
</filter>
<clipPath id="clip0_7_101">
<rect width="137" height="137" fill="white"/>
</clipPath>
</defs>
</svg>
