<svg width="137" height="137" viewBox="0 0 137 137" fill="none" xmlns="http://www.w3.org/2000/svg">
<g clip-path="url(#clip0_7_247)">
<path d="M137 0H0V137H137V0Z" fill="#616066" fill-opacity="0.1"/>
<path d="M68.549 70.8923V99.1906" stroke="#222223" stroke-width="3" stroke-linecap="round" stroke-linejoin="round"/>
<path d="M46.7805 77.4229C49.6391 77.4229 52.4697 77.9859 55.1108 79.0798C57.7518 80.1738 60.1514 81.7771 62.1727 83.7985C64.1941 85.8198 65.7976 88.2195 66.8915 90.8605C67.9854 93.5015 68.5485 96.3321 68.5485 99.1907C62.7752 99.1907 57.2385 96.8973 53.1561 92.8151C49.0739 88.7328 46.7805 83.196 46.7805 77.4229Z" fill="white" stroke="#222223" stroke-width="3" stroke-linecap="round" stroke-linejoin="round"/>
<path d="M90.3169 77.4229C84.5438 77.4229 79.0069 79.7162 74.9247 83.7985C70.8424 87.8807 68.549 93.4175 68.549 99.1907C74.3222 99.1907 79.859 96.8973 83.9413 92.8151C88.0236 88.7328 90.3169 83.196 90.3169 77.4229Z" fill="white" stroke="#222223" stroke-width="3" stroke-linecap="round" stroke-linejoin="round"/>
<path d="M49.1826 51.5276V42.0803C49.1834 41.6705 49.3142 41.2714 49.5561 40.9406C49.7981 40.6098 50.1388 40.3642 50.5291 40.2393C50.9195 40.1145 51.3395 40.1167 51.7285 40.2457C52.1175 40.3747 52.4556 40.6238 52.694 40.9572L60.8013 49.5911L66.8663 38.9794C67.0361 38.6845 67.2807 38.4394 67.5753 38.2691C67.8699 38.0987 68.2042 38.009 68.5445 38.009C68.8849 38.009 69.2193 38.0987 69.5139 38.2691C69.8085 38.4394 70.053 38.6845 70.2228 38.9794L76.2929 49.5911L84.4002 40.9572C84.6388 40.6236 84.977 40.3745 85.3663 40.2455C85.7556 40.1166 86.1758 40.1146 86.5664 40.2398C86.9569 40.365 87.2975 40.6109 87.5393 40.9422C87.781 41.2734 87.9114 41.6728 87.9116 42.0828V51.5276C87.9116 56.6633 85.8714 61.5887 82.2398 65.2203C78.6083 68.8519 73.6829 70.892 68.5472 70.892C63.4113 70.892 58.4859 68.8519 54.8544 65.2203C51.2228 61.5887 49.1826 56.6633 49.1826 51.5276Z" fill="white" stroke="#222223" stroke-width="3" stroke-linecap="round" stroke-linejoin="round"/>
</g>
<defs>
<clipPath id="clip0_7_247">
<rect width="137" height="137" fill="white"/>
</clipPath>
</defs>
</svg>
