<svg width="137" height="137" viewBox="0 0 137 137" fill="none" xmlns="http://www.w3.org/2000/svg">
<g clip-path="url(#clip0_7_213)">
<path d="M137 0H0V137H137V0Z" fill="#616066" fill-opacity="0.1"/>
<path d="M70.4044 40.0977C75.7161 40.0977 80.0183 44.3998 80.0183 49.7115C80.0183 55.0231 75.7161 59.3253 70.4044 59.3253H36.7561M46.3699 88.1667C46.3699 93.4784 50.6721 97.7806 55.9838 97.7806C61.2954 97.7806 65.5976 93.4784 65.5976 88.1667C65.5976 82.8551 61.2954 78.5529 55.9838 78.5529H36.7561" stroke="#222223" stroke-width="3" stroke-miterlimit="10" stroke-linecap="round" stroke-linejoin="round"/>
<path d="M75.4517 83.3604C76.567 88.8451 81.4123 92.9742 87.2287 92.9742C93.8669 92.9742 99.2459 87.5953 99.2459 80.9569C99.2459 74.3186 93.8669 68.9397 87.2287 68.9397H86.9402H36.7561" stroke="#222223" stroke-width="3" stroke-miterlimit="10" stroke-linecap="round" stroke-linejoin="round"/>
</g>
<defs>
<clipPath id="clip0_7_213">
<rect width="137" height="137" fill="white"/>
</clipPath>
</defs>
</svg>
