<svg width="137" height="137" viewBox="0 0 137 137" fill="none" xmlns="http://www.w3.org/2000/svg">
<g clip-path="url(#clip0_7_230)">
<path d="M137 0H0V137H137V0Z" fill="#616066" fill-opacity="0.1"/>
<path d="M97.405 53.995L82.7997 58.8634V53.995C82.7997 52.0582 82.0303 50.2008 80.6608 48.8313C79.2913 47.4618 77.4338 46.6924 75.497 46.6924H46.2864C44.3496 46.6924 42.4922 47.4618 41.1226 48.8313C39.7532 50.2008 38.9838 52.0582 38.9838 53.995V83.2057C38.9838 85.1424 39.7532 86.9999 41.1226 88.3695C42.4922 89.7389 44.3496 90.5083 46.2864 90.5083H75.497C77.4338 90.5083 79.2913 89.7389 80.6608 88.3695C82.0303 86.9999 82.7997 85.1424 82.7997 83.2057V78.3373L97.405 83.2057V53.995Z" fill="white" stroke="#222223" stroke-width="3" stroke-linecap="round" stroke-linejoin="round"/>
</g>
<defs>
<clipPath id="clip0_7_230">
<rect width="137" height="137" fill="white"/>
</clipPath>
</defs>
</svg>
