<svg width="137" height="137" viewBox="0 0 137 137" fill="none" xmlns="http://www.w3.org/2000/svg">
<g clip-path="url(#clip0_7_163)">
<path d="M137 0H0V137H137V0Z" fill="#F85757" fill-opacity="0.1"/>
<path d="M81.8708 58.3856C81.8708 57.0403 81.8708 46.2785 81.8708 44.9333C81.8708 37.4 75.9518 31.481 68.4185 31.481C60.8852 31.481 54.9662 37.4 54.9662 44.9333C54.9662 46.2785 54.9662 57.0403 54.9662 58.3856" stroke="#222223" stroke-width="4.47757"/>
<path d="M84.5597 55.6948H52.274C46.355 55.6948 41.5122 60.5377 41.5122 66.4568V87.9804C41.5122 93.8994 46.355 98.7423 52.274 98.7423H84.5597C90.4787 98.7423 95.3215 93.8994 95.3215 87.9804V66.4568C95.3215 60.5377 90.4787 55.6948 84.5597 55.6948ZM71.1073 79.1019V85.2899C71.1073 86.9043 70.0312 87.9804 68.4168 87.9804C66.8025 87.9804 65.7264 86.9043 65.7264 85.2899V79.1019C64.112 78.2948 63.0359 76.4115 63.0359 74.5281C63.0359 71.5686 65.4573 69.1471 68.4168 69.1471C71.3764 69.1471 73.7978 71.5686 73.7978 74.5281C73.7978 76.4115 72.7215 78.2948 71.1073 79.1019Z" fill="#F85757"/>
<path d="M51.0857 58.7898H66.0079C65.4862 60.6802 47.7005 60.3428 46.1118 73.712C45.8391 70.8446 46.1118 63.7639 46.1118 63.7639C46.1118 61.0282 48.3501 58.7898 51.0857 58.7898Z" fill="white"/>
</g>
<defs>
<clipPath id="clip0_7_163">
<rect width="137" height="137" fill="white"/>
</clipPath>
</defs>
</svg>
