<svg width="137" height="137" viewBox="0 0 137 137" fill="none" xmlns="http://www.w3.org/2000/svg">
<g clip-path="url(#clip0_7_157)">
<path d="M137 0H0V137H137V0Z" fill="#F85757" fill-opacity="0.1"/>
<path d="M95.1706 102.922L76.7573 83.8445L82.7964 78.208L102.417 95.675C104.43 97.6881 104.43 100.909 102.417 102.922C101.612 104.13 100.002 104.532 98.794 104.532C97.5861 104.532 96.3784 104.13 95.1706 102.922Z" fill="#222223"/>
<path opacity="0.5" d="M62.1551 36.0891C58.6656 36.0891 55.2103 36.7764 51.9865 38.1118C48.7627 39.4471 45.8334 41.4044 43.3659 43.8718C40.8985 46.3392 38.9412 49.2685 37.6059 52.4923C36.2705 55.7162 35.5833 59.1714 35.5833 62.661C35.5833 66.1504 36.2705 69.6057 37.6059 72.8296C38.9412 76.0535 40.8985 78.9826 43.3659 81.4501C45.8334 83.9175 48.7627 85.8748 51.9865 87.2102C55.2103 88.5456 58.6656 89.2328 62.1551 89.2328C65.6445 89.2328 69.0998 88.5456 72.3237 87.2102C75.5476 85.8748 78.4769 83.9175 80.9442 81.4501C83.4116 78.9826 85.3689 76.0535 86.7043 72.8296C88.0397 69.6057 88.727 66.1504 88.727 62.661C88.727 59.1714 88.0397 55.7162 86.7043 52.4923C85.3689 49.2685 83.4116 46.3392 80.9442 43.8718C78.4769 41.4044 75.5476 39.4471 72.3237 38.1118C69.0998 36.7764 65.6445 36.0891 62.1551 36.0891Z" fill="white"/>
<path d="M62.1589 38.1024C75.4448 38.1024 86.7177 48.9728 86.7177 62.6612C86.7177 76.3498 75.8474 87.2202 62.1589 87.2202C48.4703 87.2202 37.6 76.3498 37.6 62.6612C37.6 48.9728 48.4703 38.1024 62.1589 38.1024ZM62.1589 34.0764C46.4573 34.0764 33.574 46.9597 33.574 62.6612C33.574 78.3629 46.0547 91.2462 61.7563 91.2462C77.4578 91.2462 90.3411 78.3629 90.3411 62.6612C90.3411 46.9597 77.8604 34.0764 62.1589 34.0764Z" fill="#F85757"/>
<path d="M73.4717 46.8312C72.6516 49.8919 67.5524 45.8311 64.4917 45.011C61.4309 44.1908 57.3154 44.9523 58.1355 41.8916C58.9557 38.8308 62.9976 39.7608 66.0584 40.5808C69.1191 41.4009 74.2917 43.7704 73.4717 46.8312Z" fill="#222223"/>
</g>
<defs>
<clipPath id="clip0_7_157">
<rect width="137" height="137" fill="white"/>
</clipPath>
</defs>
</svg>
