<svg width="137" height="137" viewBox="0 0 137 137" fill="none" xmlns="http://www.w3.org/2000/svg">
<g clip-path="url(#clip0_7_69)">
<path d="M137 0H0V137H137V0Z" fill="#F85757" fill-opacity="0.1"/>
<path d="M69.0476 83.2339C67.981 82.2339 66.3143 82.1006 64.981 82.9006L63.781 83.6339L60.3145 85.8337C58.9812 86.7004 57.2479 86.3671 56.4479 85.1671L51.4481 77.3674L46.5149 69.6343C45.715 68.4343 46.1816 66.701 47.5149 65.8343L50.9814 63.6344L52.1814 62.9012C53.5146 62.0345 54.1147 60.4345 53.6481 59.1012L48.3148 44.7017C47.7149 43.0349 45.715 42.3017 43.9149 43.1684L43.515 43.3683L37.0485 46.8349C33.9819 48.3682 31.9819 51.5014 32.182 54.7013C32.582 61.1011 34.6485 72.7008 41.6484 83.6339C48.6481 94.5669 58.4479 101.433 64.1145 104.5C66.9811 106.033 70.6476 105.567 73.3142 103.433L79.1806 98.9668L79.514 98.7001C81.0473 97.5001 81.2473 95.3669 79.914 94.1002L69.0476 83.2339Z" fill="#F85757"/>
<path d="M49.2482 47.2349L48.3148 44.7017C47.7149 43.0349 45.715 42.3017 43.9149 43.1684L43.515 43.3683L37.0485 46.8349C33.9819 48.3682 31.9819 51.5014 32.182 54.7013C32.382 58.168 33.1152 63.101 34.7819 68.6343C36.5151 62.0345 40.3817 53.4347 49.2482 47.2349Z" fill="white"/>
<path d="M67.7805 107.367C66.1806 107.367 64.5806 106.967 63.1807 106.233C59.8474 104.433 48.2477 97.5668 39.9813 84.7004C32.0482 72.3674 30.5149 59.7011 30.1815 54.8346C29.9149 50.8347 32.3149 46.9015 36.1147 45.0348L43.0479 41.3683C43.7812 40.9684 44.6479 40.835 45.4478 40.835C47.5811 40.835 49.4477 42.1017 50.1811 44.0349L55.4475 58.3678C56.2476 60.6345 55.3142 63.2343 53.181 64.5677L48.5145 67.5676C48.3144 67.7009 48.1144 67.9675 48.0477 68.1676C47.9811 68.3009 48.0477 68.4343 48.1144 68.5676L58.1142 84.1671C58.2475 84.3671 58.5141 84.4338 58.6474 84.4338C58.7808 84.4338 58.9808 84.4338 59.1807 84.2338L63.8474 81.2339C64.7806 80.6339 65.7806 80.3673 66.8472 80.3673C68.2473 80.3673 69.5138 80.9006 70.4471 81.8339L81.3135 92.6336C82.3135 93.6335 82.7801 94.9002 82.7135 96.3668C82.6468 97.8334 81.9134 99.3 80.7136 100.233L80.3802 100.5L74.5136 105.033C72.647 106.5 70.2472 107.367 67.7805 107.367ZM45.4478 44.8349C45.2478 44.8349 44.9812 44.9015 44.7812 44.9683L44.3812 45.1683L37.9148 48.5682C35.5148 49.768 33.9815 52.168 34.1148 54.568C34.3814 59.1012 35.8481 70.9676 43.2479 82.5672C50.981 94.5669 61.8474 101.033 64.9806 102.7C65.7806 103.167 66.714 103.367 67.7139 103.367C69.2472 103.367 70.7805 102.833 71.9804 101.833L78.1803 97.0335C78.5136 96.7667 78.7135 96.4334 78.7135 96.0335C78.7135 95.8335 78.7135 95.5669 78.4469 95.3668L67.6472 84.6337C67.3139 84.3004 66.5805 84.2338 66.0473 84.5671L61.3807 87.567C60.5807 88.1004 59.6475 88.367 58.6474 88.367C57.0475 88.367 55.5809 87.567 54.7808 86.3005L44.7812 70.7008C44.1146 69.7009 43.9145 68.5009 44.1811 67.3009C44.4479 66.0343 45.2478 64.9011 46.3811 64.1677L51.0477 61.1678C51.5809 60.8345 51.8477 60.2344 51.6476 59.7011L46.4478 45.3682C46.3145 44.9683 45.8478 44.8349 45.4478 44.8349Z" fill="#F85757"/>
<path d="M104.778 51.9679C104.645 62.9676 95.3783 71.6341 84.4453 71.6341H66.8457C65.8458 71.6341 65.1124 70.834 65.1124 69.8341V52.0346C65.1124 41.0349 73.7789 31.7685 84.6452 31.5685C95.845 31.5019 104.978 40.635 104.778 51.9679Z" fill="white"/>
<path d="M84.505 73.6345H66.8388C64.7722 73.6345 63.1056 71.9679 63.1056 69.8345V52.1018C63.1056 39.9021 72.772 29.8357 84.6383 29.6357C90.5715 29.569 96.1714 31.8357 100.371 36.0355C104.638 40.3021 106.904 45.9686 106.838 51.9684C106.638 63.9015 96.5713 73.6345 84.505 73.6345ZM67.0389 69.6346H84.4383C94.3713 69.6346 102.638 61.7015 102.771 51.9018C102.838 46.9685 100.971 42.302 97.5047 38.8354C94.038 35.3689 89.5048 33.569 84.6383 33.6356C74.972 33.7689 67.0389 42.102 67.0389 52.1018V69.6346Z" fill="white"/>
<path d="M84.5194 58.3014H75.653C74.5197 58.3014 73.6531 57.4348 73.6531 56.3015C73.6531 55.1681 74.5197 54.3016 75.653 54.3016H84.4528C85.5861 54.3016 86.4527 55.1681 86.4527 56.3015C86.4527 57.4348 85.586 58.3014 84.5194 58.3014ZM92.5192 58.3014H92.3859C91.2525 58.3014 90.386 57.4348 90.386 56.3015C90.386 55.1681 91.2525 54.3016 92.3859 54.3016H92.5192C93.6525 54.3016 94.5191 55.1681 94.5191 56.3015C94.5191 57.4348 93.5859 58.3014 92.5192 58.3014ZM93.1858 51.6349H75.5197C74.3863 51.6349 73.5198 50.7683 73.5198 49.6349C73.5198 48.5017 74.3863 47.635 75.5197 47.635H93.1858C94.3191 47.635 95.1858 48.5017 95.1858 49.6349C95.1858 50.7683 94.2525 51.6349 93.1858 51.6349Z" fill="#222223"/>
</g>
<defs>
<clipPath id="clip0_7_69">
<rect width="137" height="137" fill="white"/>
</clipPath>
</defs>
</svg>
