<svg width="137" height="137" viewBox="0 0 137 137" fill="none" xmlns="http://www.w3.org/2000/svg">
<g clip-path="url(#clip0_7_207)">
<path d="M137 0H0V137H137V0Z" fill="#616066" fill-opacity="0.1"/>
<path d="M44.499 65.1757L47.114 59.0306L88.9532 58.2461L92.3527 68.1829V75.7663L89.9992 82.8267L85.4231 90.41L80.5854 93.8094L71.433 97.2089H64.8957L55.6126 93.8094L47.114 86.3568L43.1915 74.9818L44.499 65.1757Z" fill="white"/>
<path d="M93.6674 40.2678H42.9373L39.538 43.5366L42.9373 56.0883L46.5983 59.0955L90.6602 58.1803L94.4519 54.9116L96.4131 42.752L93.6674 40.2678Z" fill="white"/>
<path d="M68.0785 98.8639C64.5666 98.8609 61.0916 98.149 57.8614 96.7711C53.9244 95.1268 50.4456 92.5511 47.7238 89.2653C45.002 85.9796 43.1188 82.0822 42.2358 77.9079C40.9332 71.8436 41.8081 65.5143 44.7069 60.0306C43.4178 59.3847 42.2923 58.4544 41.4152 57.3101C40.5382 56.1657 39.9325 54.8371 39.6438 53.4244L37.9822 45.1212C37.834 44.3908 37.8325 43.6382 37.9775 42.9071C38.1225 42.1761 38.4112 41.481 38.8269 40.8624C39.337 40.0894 40.0303 39.4543 40.8449 39.0136C41.6596 38.5728 42.5704 38.3401 43.4966 38.3359H92.7108C94.2261 38.3359 95.6508 38.9259 96.7224 39.9975C97.3878 40.654 97.8787 41.4662 98.1503 42.3606C98.422 43.255 98.466 44.203 98.2782 45.1187L96.6165 53.4244C96.3275 54.8399 95.72 56.1711 94.8402 57.317C93.9602 58.4629 92.8312 59.3935 91.5382 60.0382C93.7474 64.195 94.8024 68.8678 94.5936 73.5704C94.3846 78.2731 92.9196 82.8339 90.3507 86.7785C88.467 89.7027 86.022 92.2242 83.1572 94.197C80.2924 96.1697 77.0647 97.5546 73.661 98.2713C71.8178 98.6647 69.9418 98.8639 68.0785 98.8639ZM60.567 93.7806C62.9828 94.6424 65.5287 95.0826 68.0935 95.0817C70.6829 95.0784 73.2532 94.6377 75.6958 93.7781V79.9403C75.6958 75.7697 72.3019 72.3758 68.1314 72.3758C63.9609 72.3758 60.567 75.7697 60.567 79.9403V93.7806ZM68.1314 68.5911C74.3872 68.5911 79.478 73.6819 79.478 79.9377V92.0458C82.5874 90.2486 85.2257 87.739 87.1761 84.7235C91.7954 77.5978 92.0047 68.3565 87.7586 61.0166C87.6208 61.0236 87.4829 61.0269 87.345 61.0266H48.9178C48.7817 61.0266 48.6429 61.0241 48.4966 61.014C45.6676 65.8753 44.755 71.6174 45.9374 77.1162C46.5923 80.2259 47.8973 83.162 49.7667 85.7319C51.6362 88.3018 54.0278 90.4475 56.7848 92.0281V79.9352C56.7888 76.9273 57.9856 74.0438 60.1127 71.9172C62.2398 69.7906 65.1235 68.5945 68.1314 68.5911ZM43.542 42.1156C43.2628 42.117 42.9874 42.1801 42.7354 42.3003C42.4834 42.4205 42.2611 42.5949 42.0844 42.8109C41.9075 43.027 41.7806 43.2794 41.7127 43.5502C41.6447 43.821 41.6374 44.1034 41.6912 44.3773L43.3529 52.6831C43.6126 53.9683 44.3084 55.1242 45.3225 55.9554C46.3366 56.7866 47.6066 57.2419 48.9178 57.2444H87.345C88.6561 57.2415 89.9259 56.7859 90.9399 55.9548C91.9538 55.1238 92.6497 53.9681 92.9099 52.6831L94.5691 44.3773C94.6312 44.072 94.6163 43.7561 94.5256 43.4581C94.435 43.1599 94.2713 42.8892 94.0497 42.6703C93.8743 42.4945 93.666 42.3551 93.4366 42.2599C93.2074 42.1647 92.9616 42.1157 92.7132 42.1156H43.542Z" fill="#222223"/>
<path d="M68.1313 88.4481C68.0215 88.4478 67.9119 88.4385 67.8035 88.4203C67.1726 88.3441 66.5855 88.0586 66.1361 87.6092C65.6867 87.1598 65.401 86.5726 65.325 85.9417C65.2844 85.7234 65.2844 85.4994 65.325 85.2811C65.4762 83.9875 66.5101 82.9563 67.8035 82.805C68.021 82.7639 68.2442 82.7639 68.4617 82.805C69.7552 82.9563 70.789 83.9901 70.9403 85.2836C70.9763 85.5023 70.9763 85.7255 70.9403 85.9442C70.8584 86.6325 70.5276 87.2671 70.0101 87.7283C69.4928 88.1895 68.8245 88.4455 68.1313 88.4481Z" fill="#222223"/>
</g>
<defs>
<clipPath id="clip0_7_207">
<rect width="137" height="137" fill="white"/>
</clipPath>
</defs>
</svg>
