<svg width="137" height="137" viewBox="0 0 137 137" fill="none" xmlns="http://www.w3.org/2000/svg">
<g clip-path="url(#clip0_7_217)">
<path d="M137 0H0V137H137V0Z" fill="#616066" fill-opacity="0.1"/>
<path d="M93.2646 66.1012C93.2646 82.9383 79.6197 96.5831 62.7826 96.5831C45.9455 96.5831 32.3008 82.9383 32.3008 66.1012C32.3008 56.0256 37.189 47.0972 44.7208 41.5439C49.7752 37.8196 56.0212 35.6194 62.7826 35.6194C70.8686 35.6194 78.2231 38.7673 83.6821 43.9104" fill="white"/>
<path d="M93.2646 66.1012C93.2646 82.9383 79.6197 96.5831 62.7826 96.5831C45.9455 96.5831 32.3008 82.9383 32.3008 66.1012C32.3008 56.0256 37.189 47.0972 44.7208 41.5439C49.7752 37.8196 56.0212 35.6194 62.7826 35.6194C70.8686 35.6194 78.2231 38.7673 83.6821 43.9104" stroke="#222223" stroke-width="3" stroke-linecap="round" stroke-linejoin="round"/>
<path d="M76.6375 79.6738C73.1183 83.2706 68.2079 85.4986 62.7822 85.4986C52.0692 85.4986 43.3846 76.814 43.3846 66.1011C43.3846 59.6888 46.4938 54.0081 51.2878 50.4722C53.7983 48.6211 56.7744 47.363 60.0111 46.8975" stroke="#222223" stroke-width="3" stroke-linecap="round" stroke-linejoin="round"/>
<path d="M104.351 51.9905C104.351 58.3308 99.3908 63.4739 93.2667 63.4683C87.1426 63.4629 82.1768 58.3308 82.1824 51.9905C82.1879 45.6503 87.1426 35.7576 93.2722 35.7576C99.4018 35.7576 104.351 45.6503 104.351 51.9905Z" fill="white"/>
<path d="M93.2667 63.8175V99.3539M104.351 51.9905C104.351 58.3308 99.3908 63.4739 93.2667 63.4683C87.1426 63.4629 82.1768 58.3308 82.1824 51.9905C82.1879 45.6503 87.1426 35.7576 93.2722 35.7576C99.4018 35.7576 104.351 45.6503 104.351 51.9905Z" stroke="#222223" stroke-width="3" stroke-linecap="round" stroke-linejoin="round"/>
</g>
<defs>
<clipPath id="clip0_7_217">
<rect width="137" height="137" fill="white"/>
</clipPath>
</defs>
</svg>
