<svg width="137" height="137" viewBox="0 0 137 137" fill="none" xmlns="http://www.w3.org/2000/svg">
<g clip-path="url(#clip0_7_88)">
<path d="M137 0H0V137H137V0Z" fill="#F85757" fill-opacity="0.1"/>
<g filter="url(#filter0_d_7_88)">
<path fill-rule="evenodd" clip-rule="evenodd" d="M68.3864 33.5605C66.8457 33.5605 65.368 34.1726 64.2786 35.2621C63.5303 36.0104 63.0072 36.9417 62.753 37.9509C57.882 38.8556 53.4017 40.9096 49.6066 43.8184C49.5086 43.7712 49.4093 43.7267 49.3086 43.685C48.6038 43.3931 47.8483 43.2428 47.0854 43.2428C46.3225 43.2428 45.5671 43.3931 44.8623 43.685C44.1575 43.977 43.5171 44.4049 42.9776 44.9443C42.4382 45.4838 42.0102 46.1242 41.7183 46.829C41.4263 47.5338 41.2761 48.2893 41.2761 49.0522C41.2761 49.8151 41.4263 50.5705 41.7183 51.2753C41.8299 51.5448 41.9614 51.8048 42.1114 52.0534C40.0874 55.2842 38.6419 58.91 37.923 62.7827C36.9129 63.0367 35.9806 63.56 35.2318 64.3088C34.1423 65.3983 33.5303 66.8759 33.5303 68.4167C33.5303 69.9574 34.1423 71.4351 35.2318 72.5245C35.9806 73.2734 36.9128 73.7966 37.9229 74.0507C38.6418 77.9234 40.0873 81.5492 42.1112 84.7802C41.5694 85.6784 41.2761 86.7147 41.2761 87.7812C41.2761 89.3219 41.8881 90.7996 42.9776 91.889C44.0671 92.9785 45.5447 93.5906 47.0854 93.5906C47.9666 93.5906 48.8272 93.3904 49.6063 93.0151C51.9093 94.7803 54.4646 96.2307 57.2064 97.3006L55.9957 101.336H54.8351C52.705 101.336 50.9622 103.079 50.9622 105.209H54.8338L54.8337 105.21H58.7066L58.7067 105.209H58.708V105.205L60.8165 98.4579C61.4546 98.6197 62.1003 98.7616 62.7531 98.8828C63.0074 99.8919 63.5304 100.823 64.2786 101.571C65.368 102.661 66.8457 103.273 68.3864 103.273C69.9271 103.273 71.4048 102.661 72.4942 101.571C73.2421 100.823 73.7651 99.8926 74.0194 98.884C74.674 98.7625 75.3215 98.6203 75.9613 98.4581L78.0711 105.21H82.525L82.5249 105.209H85.8183C85.8183 103.079 84.0755 101.336 81.9454 101.336H81.3049L79.9822 97.1372C82.5681 96.0852 84.9829 94.693 87.1701 93.0168C87.9483 93.391 88.8075 93.5906 89.6874 93.5906C91.2281 93.5906 92.7057 92.9785 93.7952 91.889C94.8847 90.7996 95.4967 89.3219 95.4967 87.7812C95.4967 86.7165 95.2045 85.682 94.6644 84.7849C96.6902 81.5523 98.1368 77.9243 98.856 74.0491C99.8637 73.7945 100.794 73.2719 101.541 72.5245C102.63 71.4351 103.243 69.9574 103.243 68.4167C103.243 66.8759 102.63 65.3983 101.541 64.3088C100.794 63.5615 99.8637 63.0388 98.8559 62.7842C98.1367 58.9091 96.6901 55.2811 94.6643 52.0487C94.8131 51.8015 94.9436 51.5431 95.0545 51.2753C95.3465 50.5705 95.4967 49.8151 95.4967 49.0522C95.4967 48.2893 95.3465 47.5338 95.0545 46.829C94.7626 46.1242 94.3347 45.4838 93.7952 44.9443C93.2558 44.4049 92.6154 43.977 91.9105 43.685C91.2057 43.3931 90.4503 43.2428 89.6874 43.2428C88.9245 43.2428 88.1691 43.3931 87.4642 43.685C87.3648 43.7262 87.2666 43.7701 87.1698 43.8167C83.3736 40.9076 78.8919 38.8537 74.0195 37.9498C73.7652 36.9411 73.2423 36.0101 72.4942 35.2621C71.4048 34.1726 69.9271 33.5605 68.3864 33.5605ZM52.3499 46.5957C55.4959 44.2735 59.1562 42.6128 63.1208 41.8239C63.4046 42.4328 63.7945 42.9936 64.2786 43.4777C64.8977 44.0969 65.6423 44.5619 66.4525 44.8479V63.7432L52.801 50.0921C52.8632 49.7498 52.8948 49.4018 52.8948 49.0522C52.8948 48.2893 52.7445 47.5338 52.4526 46.829C52.42 46.7504 52.3858 46.6726 52.3499 46.5957ZM70.3254 63.7419V44.8461C71.1337 44.5599 71.8764 44.0956 72.4942 43.4777C72.9786 42.9933 73.3687 42.4322 73.6525 41.8229C77.6173 42.611 81.278 44.2709 84.4244 46.5925C84.388 46.6705 84.3532 46.7494 84.3202 46.829C84.0283 47.5338 83.878 48.2893 83.878 49.0522C83.878 49.4029 83.9098 49.752 83.9725 50.0954L70.3254 63.7419ZM73.0639 66.4806L86.002 53.5429C86.4429 53.9047 86.9354 54.2003 87.4642 54.4193C88.1691 54.7113 88.9245 54.8615 89.6874 54.8615C90.3545 54.8615 91.0158 54.7466 91.6426 54.5226C93.2203 57.1464 94.3669 60.0553 94.9825 63.1496C94.3723 63.4335 93.8104 63.8238 93.3254 64.3088C92.7068 64.9274 92.2421 65.6712 91.956 66.4806H73.0639ZM73.063 70.3535H91.9562C92.2423 71.1626 92.7069 71.9061 93.3254 72.5245C93.8104 73.0095 94.3723 73.3999 94.9825 73.6838C94.367 76.7781 93.2205 79.6871 91.6428 82.3108C91.0211 82.0886 90.3603 81.9718 89.6874 81.9718C88.3373 81.9718 87.0356 82.4418 86.0011 83.2912L73.063 70.3535ZM73.366 76.1335L83.9722 86.7393C83.91 87.0807 83.878 87.4293 83.878 87.7812C83.878 88.6395 84.068 89.4782 84.4245 90.2411C82.6979 91.5152 80.8163 92.5899 78.8146 93.4307L73.366 76.1335ZM47.0854 54.8615C46.4201 54.8615 45.7604 54.7472 45.135 54.5243C43.5574 57.1483 42.411 60.0575 41.7956 63.152C42.4038 63.4357 42.9639 63.8252 43.4475 64.3088C44.0661 64.9274 44.5307 65.6712 44.8169 66.4806H63.7128L50.7729 53.5412C50.3315 53.9038 49.8382 54.1999 49.3086 54.4193C48.6038 54.7113 47.8483 54.8615 47.0854 54.8615ZM43.4475 72.5245C42.9638 73.0081 42.4037 73.3977 41.7956 73.6814C42.4109 76.7759 43.5572 79.6851 45.1348 82.3091C45.7551 82.088 46.4143 81.9718 47.0854 81.9718C48.4365 81.9718 49.739 82.4425 50.7738 83.2929L63.7136 70.3535H44.8166C44.5305 71.1626 44.0659 71.9061 43.4475 72.5245ZM52.8948 87.7812C52.8948 88.6383 52.7054 89.4759 52.3498 90.2379C54.1805 91.5893 56.1854 92.7166 58.323 93.5785L63.6191 75.925L52.8012 86.7425C52.8631 87.0829 52.8948 87.4304 52.8948 87.7812ZM64.2786 93.3556C64.8977 92.7365 65.6423 92.2715 66.4525 91.9855V80.4228L61.9736 94.7553C62.353 94.8482 62.7354 94.9331 63.1207 95.0098C63.4044 94.4007 63.7944 93.8398 64.2786 93.3556ZM72.4942 93.3556C72.9787 93.8401 73.3688 94.4014 73.6526 95.0108C74.0395 94.9339 74.4234 94.8487 74.8042 94.7554L70.3254 80.4232V91.9872C71.1337 92.2734 71.8764 92.7378 72.4942 93.3556Z" fill="#FF0000" fill-opacity="0.01"/>
</g>
<path d="M66.4541 39.3699H70.327V97.4634H66.4541V39.3699Z" fill="white"/>
<path d="M39.3428 66.4805H97.4363V70.3534H39.3428V66.4805Z" fill="white"/>
<path d="M87.5596 46.5085L90.2981 49.2471L49.219 90.3248L46.4805 87.5862L87.5596 46.5085Z" fill="white"/>
<path d="M90.2959 87.5864L87.5574 90.325L46.4783 49.2474L49.2168 46.5088L90.2959 87.5864Z" fill="white"/>
<path d="M68.389 64.5437C67.3618 64.5437 66.3768 64.9517 65.6504 65.678C64.9241 66.4044 64.5161 67.3894 64.5161 68.4166C64.5161 69.4438 64.9241 70.4289 65.6504 71.1552C66.3768 71.8815 67.3618 72.2895 68.389 72.2895C69.4162 72.2895 70.4013 71.8815 71.1276 71.1552C71.8539 70.4289 72.2619 69.4438 72.2619 68.4166C72.2619 67.3894 71.8539 66.4044 71.1276 65.678C70.4013 64.9517 69.4162 64.5437 68.389 64.5437ZM85.8171 105.209H78.0713V101.336H81.9442C84.0743 101.336 85.8171 103.079 85.8171 105.209ZM58.7067 105.209H50.9609C50.9609 103.079 52.7037 101.336 54.8338 101.336H58.7067V105.209Z" fill="#B7B7B7"/>
<path d="M70.3256 66.4805H66.4527L54.834 105.21H58.7069L68.3891 74.2263L78.0714 105.21H82.5252L70.3256 66.4805Z" fill="#B7B7B7"/>
<path d="M68.3896 37.4336C51.3488 37.4336 37.4062 51.376 37.4062 68.4168C37.4062 85.4576 51.3488 99.4001 68.3896 99.4001C85.4304 99.4001 99.3728 85.4576 99.3728 68.4168C99.3728 51.376 85.4304 37.4336 68.3896 37.4336ZM68.3896 95.5272C53.4789 95.5272 41.2793 83.3275 41.2793 68.4168C41.2793 53.5061 53.4789 41.3065 68.3896 41.3065C83.3003 41.3065 95.4999 53.5061 95.4999 68.4168C95.4999 83.3275 83.3003 95.5272 68.3896 95.5272Z" fill="#F85757"/>
<path d="M68.3864 33.5605C66.8457 33.5605 65.368 34.1726 64.2786 35.2621C63.1891 36.3515 62.5771 37.8292 62.5771 39.3699C62.5771 40.9106 63.1891 42.3883 64.2786 43.4777C65.368 44.5672 66.8457 45.1793 68.3864 45.1793C69.9271 45.1793 71.4048 44.5672 72.4942 43.4777C73.5837 42.3883 74.1958 40.9106 74.1958 39.3699C74.1958 37.8292 73.5837 36.3515 72.4942 35.2621C71.4048 34.1726 69.9271 33.5605 68.3864 33.5605ZM68.3864 91.6541C66.8457 91.6541 65.368 92.2662 64.2786 93.3556C63.1891 94.4451 62.5771 95.9227 62.5771 97.4635C62.5771 99.0042 63.1891 100.482 64.2786 101.571C65.368 102.661 66.8457 103.273 68.3864 103.273C69.9271 103.273 71.4048 102.661 72.4942 101.571C73.5837 100.482 74.1958 99.0042 74.1958 97.4635C74.1958 95.9227 73.5837 94.4451 72.4942 93.3556C71.4048 92.2662 69.9271 91.6541 68.3864 91.6541ZM97.4332 62.6073C95.8925 62.6073 94.4148 63.2194 93.3254 64.3088C92.2359 65.3983 91.6238 66.8759 91.6238 68.4167C91.6238 69.9574 92.2359 71.4351 93.3254 72.5245C94.4148 73.614 95.8925 74.226 97.4332 74.226C98.9739 74.226 100.452 73.614 101.541 72.5245C102.63 71.4351 103.243 69.9574 103.243 68.4167C103.243 66.8759 102.63 65.3983 101.541 64.3088C100.452 63.2194 98.9739 62.6073 97.4332 62.6073ZM39.3396 62.6073C37.7989 62.6073 36.3213 63.2194 35.2318 64.3088C34.1423 65.3983 33.5303 66.8759 33.5303 68.4167C33.5303 69.9574 34.1423 71.4351 35.2318 72.5245C36.3213 73.614 37.7989 74.226 39.3396 74.226C40.8804 74.226 42.358 73.614 43.4475 72.5245C44.5369 71.4351 45.149 69.9574 45.149 68.4167C45.149 66.8759 44.5369 65.3983 43.4475 64.3088C42.358 63.2194 40.8804 62.6073 39.3396 62.6073ZM89.6874 43.2428C88.9245 43.2428 88.1691 43.3931 87.4642 43.685C86.7594 43.977 86.119 44.4049 85.5796 44.9443C85.0401 45.4838 84.6122 46.1242 84.3202 46.829C84.0283 47.5338 83.878 48.2893 83.878 49.0522C83.878 49.8151 84.0283 50.5705 84.3202 51.2753C84.6122 51.9801 85.0401 52.6206 85.5796 53.16C86.119 53.6994 86.7594 54.1274 87.4642 54.4193C88.1691 54.7113 88.9245 54.8615 89.6874 54.8615C90.4503 54.8615 91.2057 54.7113 91.9105 54.4193C92.6154 54.1274 93.2558 53.6994 93.7952 53.16C94.3347 52.6206 94.7626 51.9801 95.0545 51.2753C95.3465 50.5705 95.4967 49.8151 95.4967 49.0522C95.4967 48.2893 95.3465 47.5338 95.0545 46.829C94.7626 46.1242 94.3347 45.4838 93.7952 44.9443C93.2558 44.4049 92.6154 43.977 91.9105 43.685C91.2057 43.3931 90.4503 43.2428 89.6874 43.2428ZM47.0854 43.2428C46.3225 43.2428 45.5671 43.3931 44.8623 43.685C44.1575 43.977 43.5171 44.4049 42.9776 44.9443C42.4382 45.4838 42.0102 46.1242 41.7183 46.829C41.4263 47.5338 41.2761 48.2893 41.2761 49.0522C41.2761 49.8151 41.4263 50.5705 41.7183 51.2753C42.0102 51.9801 42.4382 52.6206 42.9776 53.16C43.5171 53.6994 44.1575 54.1274 44.8623 54.4193C45.5671 54.7113 46.3225 54.8615 47.0854 54.8615C47.8483 54.8615 48.6038 54.7113 49.3086 54.4193C50.0134 54.1274 50.6538 53.6994 51.1933 53.16C51.7327 52.6206 52.1606 51.9801 52.4526 51.2753C52.7445 50.5705 52.8948 49.8151 52.8948 49.0522C52.8948 48.2893 52.7445 47.5338 52.4526 46.829C52.1606 46.1242 51.7327 45.4838 51.1933 44.9443C50.6538 44.4049 50.0134 43.977 49.3086 43.685C48.6038 43.3931 47.8483 43.2428 47.0854 43.2428ZM89.6874 81.9718C88.1466 81.9718 86.669 82.5839 85.5796 83.6734C84.4901 84.7628 83.878 86.2405 83.878 87.7812C83.878 89.3219 84.4901 90.7996 85.5796 91.889C86.669 92.9785 88.1466 93.5906 89.6874 93.5906C91.2281 93.5906 92.7057 92.9785 93.7952 91.889C94.8847 90.7996 95.4967 89.3219 95.4967 87.7812C95.4967 86.2405 94.8847 84.7628 93.7952 83.6734C92.7057 82.5839 91.2281 81.9718 89.6874 81.9718ZM47.0854 81.9718C45.5447 81.9718 44.0671 82.5839 42.9776 83.6734C41.8881 84.7628 41.2761 86.2405 41.2761 87.7812C41.2761 89.3219 41.8881 90.7996 42.9776 91.889C44.0671 92.9785 45.5447 93.5906 47.0854 93.5906C48.6262 93.5906 50.1038 92.9785 51.1933 91.889C52.2827 90.7996 52.8948 89.3219 52.8948 87.7812C52.8948 86.2405 52.2827 84.7628 51.1933 83.6734C50.1038 82.5839 48.6262 81.9718 47.0854 81.9718Z" fill="#F85757"/>
<path d="M68.387 36.4653C66.8378 36.4653 65.4823 37.8208 65.4823 39.37H71.2917C71.2917 37.8208 69.9362 36.4653 68.387 36.4653ZM68.387 94.5589C66.8378 94.5589 65.4823 95.9144 65.4823 97.4636H71.2917C71.2917 95.9144 69.9362 94.5589 68.387 94.5589ZM97.4338 65.5121C95.8846 65.5121 94.5291 66.8676 94.5291 68.4168H100.338C100.338 66.8676 98.9829 65.5121 97.4338 65.5121ZM39.3402 65.8994C37.7911 65.8994 36.4355 67.2549 36.4355 68.8041H42.2449C42.2449 67.0613 40.8894 65.8994 39.3402 65.8994ZM89.688 46.1476C88.1388 46.1476 86.7833 47.5031 86.7833 49.0523H92.5927C92.5927 47.5031 91.2371 46.1476 89.688 46.1476ZM47.086 46.5349C45.5369 46.5349 44.1814 47.8904 44.1814 49.4396H49.9907C49.9907 47.6968 48.6352 46.5349 47.086 46.5349ZM89.688 84.8766C88.1388 84.8766 86.7833 86.2321 86.7833 87.7813H92.5927C92.5927 86.2321 91.2371 84.8766 89.688 84.8766ZM47.086 84.8766C45.5369 84.8766 44.1814 86.2321 44.1814 87.7813H49.9907C49.9907 86.2321 48.6352 84.8766 47.086 84.8766Z" fill="white"/>
</g>
<defs>
<filter id="filter0_d_7_88" x="28.4606" y="29.7583" width="79.8519" height="81.7887" filterUnits="userSpaceOnUse" color-interpolation-filters="sRGB">
<feFlood flood-opacity="0" result="BackgroundImageFix"/>
<feColorMatrix in="SourceAlpha" type="matrix" values="0 0 0 0 0 0 0 0 0 0 0 0 0 0 0 0 0 0 127 0" result="hardAlpha"/>
<feOffset dy="1.26741"/>
<feGaussianBlur stdDeviation="2.53482"/>
<feComposite in2="hardAlpha" operator="out"/>
<feColorMatrix type="matrix" values="0 0 0 0 0.791949 0 0 0 0 0.129791 0 0 0 0 0.129791 0 0 0 0.1 0"/>
<feBlend mode="normal" in2="BackgroundImageFix" result="effect1_dropShadow_7_88"/>
<feBlend mode="normal" in="SourceGraphic" in2="effect1_dropShadow_7_88" result="shape"/>
</filter>
<clipPath id="clip0_7_88">
<rect width="137" height="137" fill="white"/>
</clipPath>
</defs>
</svg>
