<svg width="137" height="137" viewBox="0 0 137 137" fill="none" xmlns="http://www.w3.org/2000/svg">
<g clip-path="url(#clip0_7_147)">
<path d="M137 0H0V137H137V0Z" fill="#FFE0E0"/>
<path d="M68.5 137C106.332 137 137 106.332 137 68.5C137 30.6685 106.332 0 68.5 0C30.6685 0 0 30.6685 0 68.5C0 106.332 30.6685 137 68.5 137Z" fill="#FFE0E0"/>
<g filter="url(#filter0_d_7_147)">
<path fill-rule="evenodd" clip-rule="evenodd" d="M27.8632 66.8506L68.501 25.6875L89.5669 47.0259V32.77H100.1V57.7406L109.132 66.8506C109.962 67.6876 109.959 69.0382 109.126 69.8715L106.819 72.1784C105.972 73.0259 104.593 73.0124 103.763 72.1487L100.588 68.8489V107.031C100.588 109.396 98.6714 111.312 96.3069 111.312H66.2566H49.0907H41.1107C38.7461 111.312 36.8294 109.396 36.8294 107.031V68.4169L33.2394 72.1487C32.4084 73.0124 31.0305 73.0259 30.183 72.1784L27.8728 69.8683C27.0408 69.0362 27.0365 67.6883 27.8632 66.8506Z" fill="#FF0000" fill-opacity="0.01"/>
</g>
<path d="M100.588 65.7038V107.031C100.588 109.396 98.6717 111.312 96.3072 111.312H41.111C38.7464 111.312 36.8297 109.396 36.8297 107.031V65.7038L68.709 32.8401L100.588 65.7038Z" fill="white"/>
<path d="M49.0923 76.6694V111.313H66.2582V76.6694C66.2582 75.4872 65.2998 74.5288 64.1175 74.5288H51.2329C50.0506 74.5288 49.0923 75.4872 49.0923 76.6694Z" fill="#F85757"/>
<path d="M68.501 25.6875L27.8632 66.8506C27.0365 67.6883 27.0408 69.0362 27.8728 69.8683L30.183 72.1784C31.0305 73.0259 32.4084 73.0124 33.2394 72.1487L68.501 35.4941L103.763 72.1487C104.593 73.0124 105.972 73.0259 106.819 72.1784L109.126 69.8715C109.959 69.0382 109.962 67.6876 109.132 66.8506L100.1 57.7406V32.77H89.5669V47.0259L68.501 25.6875Z" fill="#F85757"/>
<path d="M72.4927 77.5879C72.4927 76.4056 73.451 75.4473 74.6333 75.4473H87.8769C89.0592 75.4473 90.0175 76.4056 90.0175 77.5879V91.1038C90.0175 92.2858 89.0592 93.2444 87.8769 93.2444H74.6333C73.4512 93.2444 72.4927 92.2858 72.4927 91.1038V77.5879Z" fill="#F85757"/>
<path d="M57.5377 79.4331C56.5986 79.4331 55.6978 79.8062 55.0336 80.4705C54.3696 81.1345 53.9965 82.0353 53.9965 82.9743C53.9965 83.9136 54.3696 84.8144 55.0336 85.4784C55.6978 86.1427 56.5986 86.5158 57.5377 86.5158C58.477 86.5158 59.3778 86.1427 60.0418 85.4784C60.7058 84.8144 61.0789 83.9136 61.0789 82.9743C61.0789 82.0353 60.7058 81.1345 60.0418 80.4705C59.3778 79.8062 58.477 79.4331 57.5377 79.4331Z" fill="white"/>
</g>
<defs>
<filter id="filter0_d_7_147" x="24.246" y="24.6875" width="88.5068" height="91.625" filterUnits="userSpaceOnUse" color-interpolation-filters="sRGB">
<feFlood flood-opacity="0" result="BackgroundImageFix"/>
<feColorMatrix in="SourceAlpha" type="matrix" values="0 0 0 0 0 0 0 0 0 0 0 0 0 0 0 0 0 0 127 0" result="hardAlpha"/>
<feOffset dy="2"/>
<feGaussianBlur stdDeviation="1.5"/>
<feComposite in2="hardAlpha" operator="out"/>
<feColorMatrix type="matrix" values="0 0 0 0 0 0 0 0 0 0 0 0 0 0 0 0 0 0 0.06 0"/>
<feBlend mode="normal" in2="BackgroundImageFix" result="effect1_dropShadow_7_147"/>
<feBlend mode="normal" in="SourceGraphic" in2="effect1_dropShadow_7_147" result="shape"/>
</filter>
<clipPath id="clip0_7_147">
<rect width="137" height="137" fill="white"/>
</clipPath>
</defs>
</svg>
