<svg width="137" height="137" viewBox="0 0 137 137" fill="none" xmlns="http://www.w3.org/2000/svg">
<g clip-path="url(#clip0_7_77)">
<path d="M137 0H0V137H137V0Z" fill="#F85757" fill-opacity="0.1"/>
<g filter="url(#filter0_d_7_77)">
<path fill-rule="evenodd" clip-rule="evenodd" d="M70.2086 36.5655C70.2088 36.5594 70.209 36.5533 70.209 36.5471V34.7228C70.209 33.7139 69.3935 32.8984 68.3846 32.8984C67.3758 32.8984 66.5603 33.7139 66.5603 34.7228V36.5471C66.5603 36.5532 66.5604 36.5592 66.5607 36.5652C38.8385 37.2542 33.2236 57.506 32.1435 63.8532C31.9837 64.4539 31.8984 65.0852 31.8984 65.7365C31.8984 69.7683 35.164 73.0338 39.1958 73.0338C43.2275 73.0338 46.4931 69.7683 46.4931 65.7365H46.5286H46.5299C46.5299 69.7683 49.7955 73.0338 53.8273 73.0338C57.8013 73.0338 61.0309 69.8611 61.1226 65.9092C61.1995 69.2227 63.4823 71.9884 66.5603 72.7955V96.759C59.4843 96.8282 52.7865 97.298 47.7438 98.0859C42.2698 98.9413 39.1945 100.101 39.1945 101.311C39.1945 102.521 42.2698 103.681 47.7438 104.536C53.2179 105.391 60.6423 105.872 68.3838 105.872C76.1253 105.872 83.5497 105.391 89.0238 104.536C94.4978 103.681 97.5731 102.521 97.5731 101.311C97.5731 100.101 94.4978 98.9413 89.0238 98.0859C83.9815 97.2981 77.2844 96.8282 70.209 96.759V72.8127C73.23 72.051 75.5004 69.4068 75.7008 66.1992C75.9393 70.0152 79.1074 73.0338 82.9838 73.0338C86.9578 73.0338 90.1874 69.8611 90.2791 65.9092C90.3707 69.8611 93.6003 73.0338 97.5744 73.0338C101.606 73.0338 104.872 69.7683 104.872 65.7365C104.872 65.0805 104.785 64.4449 104.623 63.8403C103.535 57.5034 97.9059 37.4113 70.2086 36.5655Z" fill="#FF0000" fill-opacity="0.01"/>
</g>
<path opacity="0.3" d="M68.3856 96.75C60.6441 96.75 53.2197 97.2305 47.7456 98.0858C42.2716 98.9412 39.1963 100.101 39.1963 101.311C39.1963 102.52 42.2716 103.681 47.7456 104.536C53.2197 105.391 60.6441 105.872 68.3856 105.872C76.1271 105.872 83.5515 105.391 89.0256 104.536C94.4996 103.681 97.5749 102.52 97.5749 101.311C97.5749 100.101 94.4996 98.9412 89.0256 98.0858C83.5515 97.2305 76.1271 96.75 68.3856 96.75Z" fill="#FF8A8A"/>
<path d="M46.4931 65.7365C46.4931 69.7683 43.2275 73.0339 39.1958 73.0339C35.164 73.0339 31.8984 69.7683 31.8984 65.7365C31.8984 61.7048 35.164 58.4392 39.1958 58.4392C43.2275 58.4392 46.4931 61.7048 46.4931 65.7365ZM75.7153 65.7365C75.7153 69.7683 72.4497 73.0339 68.4179 73.0339C64.3862 73.0339 61.1206 69.7683 61.1206 65.7365C61.1206 61.7048 64.3862 58.4392 68.4179 58.4392C72.4497 58.4392 75.7153 61.7048 75.7153 65.7365ZM104.872 65.7365C104.872 69.7683 101.606 73.0339 97.5744 73.0339C93.5426 73.0339 90.2771 69.7683 90.2771 65.7365C90.2771 61.7048 93.5426 58.4392 97.5744 58.4392C101.606 58.4392 104.872 61.7048 104.872 65.7365Z" fill="#E24646"/>
<path d="M90.2795 65.7365C90.2795 69.7683 87.0139 73.0339 82.9821 73.0339C78.9504 73.0339 75.6848 69.7683 75.6848 65.7365C75.6848 61.7048 78.9504 58.4392 82.9821 58.4392C87.0139 58.4392 90.2795 61.7048 90.2795 65.7365ZM61.123 65.7365C61.123 61.7048 57.8574 58.4392 53.8257 58.4392C49.7939 58.4392 46.5283 61.7048 46.5283 65.7365C46.5283 69.7683 49.7939 73.0339 53.8257 73.0339C57.8574 73.0339 61.123 69.7683 61.123 65.7365Z" fill="#E9E9E9"/>
<path d="M68.3851 36.5381C68.3851 36.5381 68.2537 36.5472 68.0239 36.5472C33.7228 36.5472 31.8984 65.7365 31.8984 65.7365H104.872C104.872 65.7365 103.047 36.5381 68.3851 36.5381Z" fill="#F85757"/>
<path d="M68.4205 36.5381C68.4205 36.5381 61.1232 43.8445 61.1232 65.7365H46.5285C46.5285 65.7365 44.7042 43.8354 68.4205 36.5381Z" fill="white"/>
<path d="M68.3896 36.5381C68.3896 36.5381 75.687 43.8445 75.687 65.7365H90.2816C90.2816 65.7365 92.106 43.8354 68.3896 36.5381Z" fill="white"/>
<path d="M70.2092 36.5471C70.2092 37.556 66.5605 37.556 66.5605 36.5471V34.7228C66.5605 33.7139 67.376 32.8984 68.3849 32.8984C69.3937 32.8984 70.2092 33.7139 70.2092 34.7228V36.5471ZM68.3849 73.0338C67.75 73.0338 67.1462 72.9261 66.5605 72.7747V98.5744C66.5605 98.5744 66.5605 100.399 68.3849 100.399C70.2092 100.399 70.2092 98.5744 70.2092 98.5744V72.7747C69.6236 72.9261 69.0197 73.0338 68.3849 73.0338Z" fill="#616066"/>
</g>
<defs>
<filter id="filter0_d_7_77" x="26.1337" y="28.5748" width="84.5032" height="84.5032" filterUnits="userSpaceOnUse" color-interpolation-filters="sRGB">
<feFlood flood-opacity="0" result="BackgroundImageFix"/>
<feColorMatrix in="SourceAlpha" type="matrix" values="0 0 0 0 0 0 0 0 0 0 0 0 0 0 0 0 0 0 127 0" result="hardAlpha"/>
<feOffset dy="1.44119"/>
<feGaussianBlur stdDeviation="2.88239"/>
<feComposite in2="hardAlpha" operator="out"/>
<feColorMatrix type="matrix" values="0 0 0 0 0.791949 0 0 0 0 0.129791 0 0 0 0 0.129791 0 0 0 0.1 0"/>
<feBlend mode="normal" in2="BackgroundImageFix" result="effect1_dropShadow_7_77"/>
<feBlend mode="normal" in="SourceGraphic" in2="effect1_dropShadow_7_77" result="shape"/>
</filter>
<clipPath id="clip0_7_77">
<rect width="137" height="137" fill="white"/>
</clipPath>
</defs>
</svg>
