<svg width="137" height="137" viewBox="0 0 137 137" fill="none" xmlns="http://www.w3.org/2000/svg">
<g clip-path="url(#clip0_7_107)">
<mask id="mask0_7_107" style="mask-type:luminance" maskUnits="userSpaceOnUse" x="0" y="0" width="137" height="137">
<path d="M137 0H0V137H137V0Z" fill="white"/>
</mask>
<g mask="url(#mask0_7_107)">
<path d="M137 0H0V137H137V0Z" fill="#F85757" fill-opacity="0.12"/>
<g filter="url(#filter0_d_7_107)">
<path d="M67.9255 109.613C90.9491 109.613 109.613 90.9489 109.613 67.9254C109.613 44.9018 90.9491 26.2375 67.9255 26.2375C44.902 26.2375 26.2377 44.9018 26.2377 67.9254C26.2377 90.9489 44.902 109.613 67.9255 109.613Z" fill="white"/>
</g>
<path opacity="0.5" d="M67.9255 105.385C88.6358 105.385 105.425 88.5955 105.425 67.8852C105.425 47.1748 88.6358 30.3857 67.9255 30.3857C47.2151 30.3857 30.426 47.1748 30.426 67.8852C30.426 88.5955 47.2151 105.385 67.9255 105.385Z" fill="white"/>
<path opacity="0.5" d="M84.6005 75.6879C81.8693 77.5567 77.0536 73.6754 74.9692 76.5503C72.9567 79.3535 83.5224 87.9066 87.0443 86.2535C93.01 83.4505 96.8913 77.6285 96.8913 75.4722C96.9631 73.3878 94.16 69.1472 84.6005 75.6879Z" fill="white"/>
<path d="M82.013 28.6814C77.4848 27.0282 72.7411 26.2375 67.9254 26.2375C44.9252 26.2375 26.2375 44.9252 26.2375 67.9254C26.2375 90.9255 44.9252 109.613 67.9254 109.613C90.9255 109.613 109.613 90.9255 109.613 67.9254C109.613 50.3877 98.5444 34.5751 82.013 28.6814ZM67.9254 105.301C64.9785 105.301 62.1034 104.941 59.3721 104.294V99.4788C59.3721 99.4788 59.3721 99.4788 57.5753 97.6819C55.7784 95.8849 59.4441 92.8662 60.4503 89.0567C63.2534 78.2755 53.9096 77.8442 53.6221 75.4723C53.3346 72.8129 56.7846 70.8004 58.869 68.7161C60.9535 66.6316 61.6003 63.3972 60.5222 61.5285C57.144 55.2752 48.9502 58.5816 48.1596 65.1222C47.7283 69.0754 45.3564 73.1004 43.3439 75.1849C41.3314 77.1974 37.3783 76.1191 36.3001 73.1722C35.0782 69.866 39.3189 68.6441 38.6721 64.4035C38.5282 63.2534 37.3064 62.6784 35.797 62.4629L30.8376 62.6066C33.497 44.4939 49.094 30.5501 67.9254 30.5501C72.238 30.5501 76.4786 31.2689 80.5754 32.7064C80.7911 32.7782 81.0067 32.8501 81.1505 32.922L81.2942 38.1689C81.2942 40.1096 80.1443 41.9064 78.3473 42.6971C74.3942 44.422 70.441 43.4876 68.7878 48.0159C67.4223 51.4658 71.016 60.7378 75.4004 60.7378C80.9348 60.7378 83.5942 49.5971 85.2474 49.5971C86.3255 49.5971 87.9786 52.9753 89.9193 55.4909C91.2131 57.2159 93.2256 58.1503 95.3818 58.1503H99.0475L104.294 59.3721C104.941 62.1753 105.301 65.0503 105.301 67.9254C105.301 88.5537 88.5537 105.301 67.9254 105.301Z" fill="#F85757"/>
</g>
</g>
<defs>
<filter id="filter0_d_7_107" x="6.74997" y="11.8782" width="122.351" height="122.351" filterUnits="userSpaceOnUse" color-interpolation-filters="sRGB">
<feFlood flood-opacity="0" result="BackgroundImageFix"/>
<feColorMatrix in="SourceAlpha" type="matrix" values="0 0 0 0 0 0 0 0 0 0 0 0 0 0 0 0 0 0 127 0" result="hardAlpha"/>
<feOffset dy="5.12834"/>
<feGaussianBlur stdDeviation="9.74385"/>
<feComposite in2="hardAlpha" operator="out"/>
<feColorMatrix type="matrix" values="0 0 0 0 0.8625 0 0 0 0 0.100625 0 0 0 0 0.100625 0 0 0 0.1 0"/>
<feBlend mode="normal" in2="BackgroundImageFix" result="effect1_dropShadow_7_107"/>
<feBlend mode="normal" in="SourceGraphic" in2="effect1_dropShadow_7_107" result="shape"/>
</filter>
<clipPath id="clip0_7_107">
<rect width="137" height="137" fill="white"/>
</clipPath>
</defs>
</svg>
