<svg width="137" height="137" viewBox="0 0 137 137" fill="none" xmlns="http://www.w3.org/2000/svg">
<g clip-path="url(#clip0_7_168)">
<mask id="mask0_7_168" style="mask-type:luminance" maskUnits="userSpaceOnUse" x="0" y="0" width="137" height="137">
<path d="M137 0H0V137H137V0Z" fill="white"/>
</mask>
<g mask="url(#mask0_7_168)">
<path d="M137 0H0V137H137V0Z" fill="#F85757" fill-opacity="0.12"/>
<path d="M81.1172 116.194L68.0068 106.889L54.8963 116.194C52.7817 117.462 50.2441 116.193 50.2441 113.656V56.9849H85.3465V113.233C85.7694 116.193 82.8089 117.462 81.1172 116.194Z" fill="#F85757"/>
<path d="M54.8963 116.194L68.0068 106.889L67.7954 56.9849H50.2441V113.656C50.2441 116.193 52.7817 117.462 54.8963 116.194Z" fill="#E74D4D"/>
<g filter="url(#filter0_d_7_168)">
<path d="M103.452 53.4586L100.93 51.9454C100.456 51.7086 99.9824 51.2493 99.6131 50.7241C98.8652 49.6604 98.5375 48.2625 98.7707 46.9833C98.8214 46.7053 98.8976 46.4284 98.9887 46.1416C99.2557 45.3003 99.6459 44.5025 100.1 43.7456L100.93 42.3625C102.443 39.8407 100.426 36.31 97.3993 36.31H94.3731C92.86 36.31 91.8513 35.8057 90.8426 34.797C89.8338 33.7882 89.3295 32.7795 89.3295 31.2664V28.2402C89.3295 25.2139 85.7988 23.1965 83.277 24.7096L80.7552 26.2227C80.1922 26.5041 79.4721 26.6286 78.6827 26.6835C77.3855 26.7738 76.0344 26.6252 74.9166 25.961C74.3682 25.6351 73.9606 25.2428 73.694 24.7096L72.1809 22.1877C70.6678 19.6659 66.6329 19.6659 65.1198 22.1877L63.6067 24.7096C63.3697 25.1834 62.9104 25.6571 62.3852 26.0264C61.3216 26.7743 59.9237 27.102 58.6445 26.8687C58.2258 26.7925 57.8093 26.6581 57.3585 26.5026C56.8172 26.3161 56.2885 26.0943 55.7765 25.8382L52.5106 24.2052C49.9888 22.6921 46.4581 24.7096 46.4581 27.7359V30.762C46.4581 32.2751 45.9537 33.2839 44.945 34.2926C43.9363 35.3013 42.9276 35.8057 41.4145 35.8057H38.3883C35.362 35.8057 33.3445 39.3362 34.8576 41.8582L36.3707 44.38C36.6522 44.9429 36.7767 45.663 36.8316 46.4525C36.9219 47.7497 36.7732 49.1006 36.109 50.2186C35.7831 50.767 35.3909 51.1745 34.8576 51.441L32.3358 52.9543C29.814 54.4674 29.814 58.5023 32.3358 60.0153L34.8576 61.5284C35.3314 61.7654 35.8052 62.2247 36.1745 62.7499C36.9224 63.8135 37.2501 65.2113 37.0168 66.4906C36.9405 66.9094 36.8062 67.3257 36.6507 67.7767C36.4642 68.3178 36.2423 68.8466 35.9862 69.3586L34.8576 71.6158C33.3445 74.1376 35.362 77.6682 38.3883 77.6682H41.4145C42.9276 77.6682 43.9363 78.1727 44.945 79.1814C45.9537 80.1901 46.4581 81.1988 46.4581 82.7119V85.7381C46.4581 88.7643 49.9888 90.7819 52.5106 89.2687L55.0324 87.7556C55.5954 87.4741 56.3154 87.3498 57.1049 87.2947C58.4021 87.2044 59.7531 87.3532 60.871 88.0174C61.4194 88.3433 61.827 88.7355 62.0936 89.2687L63.6067 91.7906C65.1198 94.3124 69.1547 94.3124 70.6678 91.7906L72.1809 89.2687C72.4178 88.795 72.8772 88.3212 73.4023 87.9519C74.466 87.204 75.8638 86.8763 77.1431 87.1095C77.421 87.1602 77.698 87.2365 77.9847 87.3274C78.8261 87.5946 79.6239 87.9847 80.3808 88.4389L81.7639 89.2687C84.2857 90.7819 87.8163 88.7643 87.8163 85.7381V82.7119C87.8163 81.1988 88.3206 80.1901 89.3295 79.1814C90.3382 78.1727 91.3469 77.6682 92.86 77.6682H95.8862C98.9124 77.6682 100.93 74.1376 99.4167 71.6158L97.9036 69.094C97.6221 68.531 97.4978 67.8109 97.4428 67.0214C97.3525 65.7243 97.5013 64.3732 98.1655 63.2554C98.4913 62.7069 98.8836 62.2994 99.4167 62.0328L100.994 61.0866C101.622 60.7095 102.301 60.4195 102.935 60.0511C105.953 58.2975 105.745 54.8348 103.452 53.4586Z" fill="white"/>
</g>
<path opacity="0.21" d="M67.8155 79.9053C80.4718 79.9053 90.7318 69.6454 90.7318 56.989C90.7318 44.3327 80.4718 34.0728 67.8155 34.0728C55.1591 34.0728 44.8992 44.3327 44.8992 56.989C44.8992 69.6454 55.1591 79.9053 67.8155 79.9053Z" fill="#F85757"/>
<path d="M58.9369 59.1833L64.14 64.1631L76.6944 49.8152" stroke="#F85757" stroke-width="4" stroke-linecap="round" stroke-linejoin="round"/>
</g>
</g>
<defs>
<filter id="filter0_d_7_168" x="7.79426" y="3.60679" width="120.043" height="118.686" filterUnits="userSpaceOnUse" color-interpolation-filters="sRGB">
<feFlood flood-opacity="0" result="BackgroundImageFix"/>
<feColorMatrix in="SourceAlpha" type="matrix" values="0 0 0 0 0 0 0 0 0 0 0 0 0 0 0 0 0 0 127 0" result="hardAlpha"/>
<feOffset dy="5.9606"/>
<feGaussianBlur stdDeviation="11.3251"/>
<feComposite in2="hardAlpha" operator="out"/>
<feColorMatrix type="matrix" values="0 0 0 0 0.132391 0 0 0 0 0.13228 0 0 0 0 0.137836 0 0 0 0.07 0"/>
<feBlend mode="normal" in2="BackgroundImageFix" result="effect1_dropShadow_7_168"/>
<feBlend mode="normal" in="SourceGraphic" in2="effect1_dropShadow_7_168" result="shape"/>
</filter>
<clipPath id="clip0_7_168">
<rect width="137" height="137" fill="white"/>
</clipPath>
</defs>
</svg>
