<svg width="137" height="137" viewBox="0 0 137 137" fill="none" xmlns="http://www.w3.org/2000/svg">
<g clip-path="url(#clip0_7_137)">
<path d="M137 0H0V137H137V0Z" fill="#FFE0E0"/>
<path d="M68.5 137C106.332 137 137 106.332 137 68.5C137 30.6685 106.332 0 68.5 0C30.6685 0 0 30.6685 0 68.5C0 106.332 30.6685 137 68.5 137Z" fill="#FFE0E0"/>
<g filter="url(#filter0_d_7_137)">
<path fill-rule="evenodd" clip-rule="evenodd" d="M43.7276 49.3572L43.724 49.3595L44.8253 37.7593C45.8685 26.7701 55.0965 18.375 66.1363 18.375H67.5258C70.7248 18.375 73.5636 19.9196 75.3374 22.3035C76.5284 22.3688 77.7133 22.527 78.8643 22.8308C87.2866 25.0589 93.5995 32.3253 94.4439 41.2089L96.1079 58.6881C96.4347 62.1151 93.7395 65.079 90.2971 65.079H81.7894C78.3073 67.5313 74.0609 68.9713 69.4783 68.9713C64.8956 68.9713 60.6493 67.5313 57.1671 65.079H48.6502C45.2076 65.079 42.5124 62.1151 42.8395 58.6881L43.7276 49.3572ZM70.9699 74.0313H66.0301C49.6616 74.0313 36.3906 87.8332 36.3906 104.856C36.3906 109.113 39.7077 112.563 43.8004 112.563H93.1996C97.2923 112.563 100.609 109.113 100.609 104.856C100.609 87.8332 87.3384 74.0313 70.9699 74.0313Z" fill="#FF0000" fill-opacity="0.01"/>
</g>
<path d="M70.9699 74.0312H66.0301C49.6616 74.0312 36.3906 87.8331 36.3906 104.856C36.3906 109.113 39.7077 112.562 43.8004 112.562H93.1996C97.2923 112.562 100.609 109.113 100.609 104.856C100.609 87.8331 87.3384 74.0312 70.9699 74.0312Z" fill="#F85757"/>
<path d="M78.8642 22.8309C77.2566 22.4066 75.5831 22.2666 73.9194 22.2666H68.1825L60.9277 23.2434C52.3943 23.8019 45.5268 30.469 44.7153 38.9827L42.8394 58.6883C42.5123 62.1152 45.2076 65.0791 48.6501 65.0791H90.2971C93.7394 65.0791 96.4347 62.1152 96.1078 58.6883L94.4439 41.209C93.5994 32.3254 87.2865 25.059 78.8642 22.8309Z" fill="#222223"/>
<path d="M69.4783 26.1589C81.3005 26.1589 90.8845 35.7432 90.8845 47.5652C90.8845 59.3872 81.3005 68.9714 69.4783 68.9714C57.6562 68.9714 48.072 59.3872 48.072 47.5652C48.072 35.7432 57.6562 26.1589 69.4783 26.1589Z" fill="white"/>
<path d="M83.0982 26.1587L75.314 24.2126H73.3679H64.5038C54.3534 24.2126 46.1238 32.4425 46.1238 42.5929V47.5649H53.9077C63.6671 47.5649 71.8832 42.9744 74.4618 34.0441C79.5038 34.5559 83.6023 38.4771 84.1742 43.6127L84.186 43.7197C84.6745 48.1254 88.3973 51.457 92.8284 51.457V35.8889L83.0982 26.1587Z" fill="#222223"/>
<path d="M43.724 49.3595L70.7697 31.4211L77.2558 33.9432V28.105C77.2558 22.7321 72.8988 18.375 67.5258 18.375H66.1363C55.0965 18.375 45.8685 26.7701 44.8253 37.7593L43.724 49.3595Z" fill="#222223"/>
</g>
<defs>
<filter id="filter0_d_7_137" x="32.3906" y="15.375" width="72.2188" height="102.188" filterUnits="userSpaceOnUse" color-interpolation-filters="sRGB">
<feFlood flood-opacity="0" result="BackgroundImageFix"/>
<feColorMatrix in="SourceAlpha" type="matrix" values="0 0 0 0 0 0 0 0 0 0 0 0 0 0 0 0 0 0 127 0" result="hardAlpha"/>
<feOffset dy="1"/>
<feGaussianBlur stdDeviation="2"/>
<feComposite in2="hardAlpha" operator="out"/>
<feColorMatrix type="matrix" values="0 0 0 0 0 0 0 0 0 0 0 0 0 0 0 0 0 0 0.13 0"/>
<feBlend mode="normal" in2="BackgroundImageFix" result="effect1_dropShadow_7_137"/>
<feBlend mode="normal" in="SourceGraphic" in2="effect1_dropShadow_7_137" result="shape"/>
</filter>
<clipPath id="clip0_7_137">
<rect width="137" height="137" fill="white"/>
</clipPath>
</defs>
</svg>
