<svg width="137" height="137" viewBox="0 0 137 137" fill="none" xmlns="http://www.w3.org/2000/svg">
<g clip-path="url(#clip0_7_63)">
<path d="M137 0H0V137H137V0Z" fill="#F85757" fill-opacity="0.1"/>
<path d="M33.5239 45.8054H85.3644C89.6391 45.8054 93.1365 49.3029 93.1365 53.5776V82.9564C93.1365 87.2312 89.6391 90.7287 85.3644 90.7287H41.9178L25.7517 106.273V90.7287V53.5776C25.7517 49.2251 29.2492 45.8054 33.5239 45.8054Z" fill="#F85757"/>
<path opacity="0.08" d="M39.9816 72.0747V46.271H42.0023H85.4489V82.9558H50.8627C44.8003 82.9558 39.9816 78.0592 39.9816 72.0747Z" fill="#222223"/>
<path d="M103.473 30.7266H55.5189C51.2442 30.7266 47.7467 34.224 47.7467 38.4988V67.8777C47.7467 72.1523 51.2442 75.6498 55.5189 75.6498H102.852L111.246 91.5051V38.4988C111.246 34.224 107.748 30.7266 103.473 30.7266Z" fill="white"/>
<path d="M62.5176 49.8457C62.0277 49.8457 61.5426 49.9421 61.09 50.1297C60.6373 50.3171 60.226 50.5919 59.8796 50.9384C59.5332 51.2848 59.2584 51.696 59.0709 52.1487C58.8834 52.6013 58.787 53.0864 58.787 53.5763C58.787 54.0663 58.8834 54.5514 59.0709 55.004C59.2584 55.4567 59.5332 55.8679 59.8796 56.2143C60.226 56.5608 60.6373 56.8356 61.09 57.023C61.5426 57.2105 62.0277 57.307 62.5176 57.307C63.0075 57.307 63.4927 57.2105 63.9452 57.023C64.3978 56.8356 64.8091 56.5608 65.1556 56.2143C65.5019 55.8679 65.7767 55.4567 65.9643 55.004C66.1517 54.5514 66.2483 54.0663 66.2483 53.5763C66.2483 53.0864 66.1517 52.6013 65.9643 52.1487C65.7767 51.696 65.5019 51.2848 65.1556 50.9384C64.8091 50.5919 64.3978 50.3171 63.9452 50.1297C63.4927 49.9421 63.0075 49.8457 62.5176 49.8457ZM77.5179 49.8457C77.028 49.8457 76.5429 49.9421 76.0902 50.1297C75.6376 50.3171 75.2263 50.5919 74.88 50.9384C74.5335 51.2848 74.2587 51.696 74.0713 52.1487C73.8837 52.6013 73.7873 53.0864 73.7873 53.5763C73.7873 54.0663 73.8837 54.5514 74.0713 55.004C74.2587 55.4567 74.5335 55.8679 74.88 56.2143C75.2263 56.5608 75.6376 56.8356 76.0902 57.023C76.5429 57.2105 77.028 57.307 77.5179 57.307C78.0078 57.307 78.4929 57.2105 78.9456 57.023C79.3982 56.8356 79.8095 56.5608 80.1558 56.2143C80.5023 55.8679 80.7771 55.4567 80.9646 55.004C81.1521 54.5514 81.2486 54.0663 81.2486 53.5763C81.2486 53.0864 81.1521 52.6013 80.9646 52.1487C80.7771 51.696 80.5023 51.2848 80.1558 50.9384C79.8095 50.5919 79.3982 50.3171 78.9456 50.1297C78.4929 49.9421 78.0078 49.8457 77.5179 49.8457ZM92.5183 49.8457C92.0284 49.8457 91.5433 49.9421 91.0906 50.1297C90.638 50.3171 90.2267 50.5919 89.8802 50.9384C89.5339 51.2848 89.2591 51.696 89.0715 52.1487C88.8841 52.6013 88.7877 53.0864 88.7877 53.5763C88.7877 54.0663 88.8841 54.5514 89.0715 55.004C89.2591 55.4567 89.5339 55.8679 89.8802 56.2143C90.2267 56.5608 90.638 56.8356 91.0906 57.023C91.5433 57.2105 92.0284 57.307 92.5183 57.307C93.0082 57.307 93.4933 57.2105 93.9458 57.023C94.3985 56.8356 94.8098 56.5608 95.1562 56.2143C95.5027 55.8679 95.7774 55.4567 95.965 55.004C96.1524 54.5514 96.249 54.0663 96.249 53.5763C96.249 53.0864 96.1524 52.6013 95.965 52.1487C95.7774 51.696 95.5027 51.2848 95.1562 50.9384C94.8098 50.5919 94.3985 50.3171 93.9458 50.1297C93.4933 49.9421 93.0082 49.8457 92.5183 49.8457Z" fill="#222223"/>
</g>
<defs>
<clipPath id="clip0_7_63">
<rect width="137" height="137" fill="white"/>
</clipPath>
</defs>
</svg>
