<svg width="137" height="137" viewBox="0 0 137 137" fill="none" xmlns="http://www.w3.org/2000/svg">
<g clip-path="url(#clip0_7_260)">
<path d="M137 0H0V137H137V0Z" fill="#616066" fill-opacity="0.1"/>
<path d="M40.0975 89.6195V58.2047C40.0975 56.6898 40.6993 55.237 41.7705 54.1659C42.8417 53.0947 44.2944 52.4929 45.8093 52.4929H91.5035C93.0183 52.4929 94.4712 53.0947 95.5423 54.1659C96.6135 55.237 97.2153 56.6898 97.2153 58.2047V89.6195C97.2153 91.1343 96.6135 92.5871 95.5423 93.6583C94.4712 94.7295 93.0183 95.3313 91.5035 95.3313H45.8093C44.2944 95.3313 42.8417 94.7295 41.7705 93.6583C40.6993 92.5871 40.0975 91.1343 40.0975 89.6195Z" fill="white" stroke="#222223" stroke-width="3"/>
<path d="M58.661 39.6414L68.6567 49.637L78.6522 39.6414" stroke="#222223" stroke-width="3" stroke-linecap="round" stroke-linejoin="round"/>
</g>
<defs>
<clipPath id="clip0_7_260">
<rect width="137" height="137" fill="white"/>
</clipPath>
</defs>
</svg>
