<svg width="137" height="137" viewBox="0 0 137 137" fill="none" xmlns="http://www.w3.org/2000/svg">
<g clip-path="url(#clip0_7_224)">
<path d="M137 0H0V137H137V0Z" fill="#616066" fill-opacity="0.1"/>
<path d="M88.4986 37.6218H49.0715C45.9624 37.6218 43.439 40.1452 43.439 43.2543V93.9463C43.439 97.0554 45.9624 99.5787 49.0715 99.5787H88.4986C91.6077 99.5787 94.131 97.0554 94.131 93.9463V43.2543C94.131 40.1452 91.6077 37.6218 88.4986 37.6218Z" fill="white" stroke="#222223" stroke-width="3" stroke-linecap="round" stroke-linejoin="round"/>
<path d="M68.7835 60.1511C65.049 60.1511 61.4673 61.6346 58.8266 64.2754C56.1858 66.9161 54.7023 70.4977 54.7023 74.2323C54.7023 77.9668 56.1858 81.5483 58.8266 84.1891C61.4673 86.8298 65.049 88.3133 68.7835 88.3133C72.518 88.3133 76.0996 86.8298 78.7403 84.1891C81.381 81.5483 82.8645 77.9668 82.8645 74.2323C82.8645 70.4977 81.381 66.9161 78.7403 64.2754C76.0996 61.6346 72.518 60.1511 68.7835 60.1511Z" fill="white" stroke="#222223" stroke-width="3" stroke-linecap="round" stroke-linejoin="round"/>
<path d="M54.1021 52.4736C56.1218 52.4736 57.7591 50.8362 57.7591 48.8165C57.7591 46.7967 56.1218 45.1594 54.1021 45.1594C52.0823 45.1594 50.445 46.7967 50.445 48.8165C50.445 50.8362 52.0823 52.4736 54.1021 52.4736Z" fill="white" stroke="#222223" stroke-width="3" stroke-linecap="round" stroke-linejoin="round"/>
<path d="M66.7979 52.4736C68.8176 52.4736 70.4549 50.8362 70.4549 48.8165C70.4549 46.7967 68.8176 45.1594 66.7979 45.1594C64.7781 45.1594 63.1408 46.7967 63.1408 48.8165C63.1408 50.8362 64.7781 52.4736 66.7979 52.4736Z" fill="white" stroke="#222223" stroke-width="3" stroke-linecap="round" stroke-linejoin="round"/>
</g>
<defs>
<clipPath id="clip0_7_224">
<rect width="137" height="137" fill="white"/>
</clipPath>
</defs>
</svg>
