<svg width="137" height="137" viewBox="0 0 137 137" fill="none" xmlns="http://www.w3.org/2000/svg">
<g clip-path="url(#clip0_7_264)">
<path d="M137 0H0V137H137V0Z" fill="#616066" fill-opacity="0.1"/>
<path d="M98.0059 90.3952H52.4241C52.0862 90.3953 51.7533 90.3143 51.4533 90.159C51.1533 90.0036 50.895 89.7785 50.7002 89.5025C50.5052 89.2265 50.3796 88.9077 50.3336 88.573C50.2876 88.2383 50.3227 87.8974 50.436 87.579L59.487 62.2339C59.632 61.8225 59.9011 61.466 60.2572 61.2139C60.6133 60.9617 61.0388 60.8262 61.4752 60.8259H87.1413C87.5547 60.8258 87.9589 60.9472 88.3039 61.1751C88.6489 61.4029 88.9193 61.727 89.0816 62.1073L99.9462 87.4524C100.084 87.7735 100.139 88.1237 100.108 88.4715C100.077 88.8194 99.9599 89.1541 99.7677 89.4457C99.5754 89.7373 99.3138 89.9766 99.0064 90.1424C98.6989 90.3081 98.3551 90.395 98.0059 90.3952Z" fill="white" stroke="#222223" stroke-width="3" stroke-linecap="round" stroke-linejoin="round"/>
<path d="M68.4374 90.3953V98.8436" stroke="#222223" stroke-width="3" stroke-linecap="round" stroke-linejoin="round"/>
<path d="M81.1099 90.3953V98.8436" stroke="#222223" stroke-width="3" stroke-linecap="round" stroke-linejoin="round"/>
<path d="M48.4437 65.0529C47.2543 63.7321 46.356 62.176 45.8073 60.4855C45.2585 58.7949 45.0715 57.0079 45.2584 55.2404C45.4452 53.4728 46.0017 51.7644 46.8919 50.2261C47.7821 48.6876 48.9859 47.3536 50.4252 46.3108C51.8644 45.268 53.5069 44.5396 55.2461 44.1728C56.9852 43.8061 58.782 43.8093 60.5198 44.1822C62.2576 44.5553 63.8975 45.2896 65.333 46.3376C66.7685 47.3856 67.9675 48.7238 68.8521 50.2655" stroke="#222223" stroke-width="3" stroke-linecap="round" stroke-linejoin="round"/>
<path d="M57.8768 37.5927V35.4807" stroke="#222223" stroke-width="3" stroke-linecap="round" stroke-linejoin="round"/>
<path d="M72.6616 43.9292L74.7738 41.8171" stroke="#222223" stroke-width="3" stroke-linecap="round" stroke-linejoin="round"/>
<path d="M43.0923 43.9292L40.9802 41.8171" stroke="#222223" stroke-width="3" stroke-linecap="round" stroke-linejoin="round"/>
<path d="M38.8682 56.6018H36.7561" stroke="#222223" stroke-width="3" stroke-linecap="round" stroke-linejoin="round"/>
<path d="M43.0923 69.2742L40.9802 71.3863" stroke="#222223" stroke-width="3" stroke-linecap="round" stroke-linejoin="round"/>
<path d="M74.7739 60.8259V90.3952" stroke="#222223" stroke-width="3" stroke-linecap="round" stroke-linejoin="round"/>
<path d="M55.4637 73.4983H93.9799" stroke="#222223" stroke-width="3" stroke-linecap="round" stroke-linejoin="round"/>
</g>
<defs>
<clipPath id="clip0_7_264">
<rect width="137" height="137" fill="white"/>
</clipPath>
</defs>
</svg>
