<svg width="137" height="137" viewBox="0 0 137 137" fill="none" xmlns="http://www.w3.org/2000/svg">
<g clip-path="url(#clip0_7_125)">
<path d="M137 0H0V137H137V0Z" fill="#FFE0E0"/>
<path d="M68.5 137C106.332 137 137 106.332 137 68.5C137 30.6685 106.332 0 68.5 0C30.6685 0 0 30.6685 0 68.5C0 106.332 30.6685 137 68.5 137Z" fill="#FFE0E0"/>
<g filter="url(#filter0_d_7_125)">
<path fill-rule="evenodd" clip-rule="evenodd" d="M106.32 62.3878L73.4857 100.721C73.4011 100.82 73.3142 100.916 73.2254 101.008C71.9408 102.344 70.2215 103.013 68.5019 103.014L68.4985 103.022L68.495 103.014C66.6567 103.013 64.8185 102.249 63.5112 100.723L30.6788 62.3893C30.5129 62.1958 30.366 61.9924 30.2382 61.7816C29.1103 59.9314 29.4169 57.4977 31.0649 55.9839L48.7587 39.7393C50.0681 38.5395 51.7828 37.8721 53.564 37.8721H53.5665H68.4985H83.4345H83.4373L83.4704 37.8723C85.2392 37.8808 86.9402 38.5474 88.2393 39.7393L105.935 55.9839C106.277 56.2981 106.56 56.6518 106.784 57.0317C107.77 58.6909 107.637 60.8491 106.32 62.3878Z" fill="#FF0000" fill-opacity="0.01"/>
</g>
<path d="M107.202 58.01C107.413 58.6948 107.473 59.4211 107.357 60.1282L83.595 63.2967H53.4034L29.6395 60.1282C29.5235 59.4194 29.5839 58.6948 29.7953 58.01C29.3345 59.48 29.6061 61.1372 30.6788 62.3893L63.5113 100.723C66.1269 103.777 70.8684 103.777 73.484 100.723L106.316 62.3893C107.392 61.1357 107.663 59.4783 107.202 58.01Z" fill="url(#paint0_linear_7_125)"/>
<path d="M106.32 62.3878L73.4858 100.721C70.8701 103.775 66.1284 103.775 63.513 100.721L30.6788 62.3878C29.0579 60.4968 29.2296 57.6699 31.065 55.9839L48.7588 39.7393C50.0682 38.5395 51.7828 37.8721 53.564 37.8721H83.4345C85.2142 37.8721 86.9304 38.5395 88.2383 39.7393L105.932 55.9839C107.769 57.6699 107.939 60.4968 106.32 62.3878Z" fill="#F85757"/>
<path d="M88.2394 39.7393C86.9317 38.5395 85.217 37.8721 83.4358 37.8721H53.5651C51.7856 37.8721 50.0693 38.5395 48.7615 39.7393L31.0661 55.9839C29.8776 57.0756 29.3992 58.6423 29.6408 60.1281L53.4048 63.2967H83.5964L107.36 60.1281C107.602 58.6438 107.124 57.0756 105.935 55.9839L88.2394 39.7393Z" fill="#E44242"/>
<path d="M83.5944 63.2969L68.4985 103.023L53.4028 63.2969H83.5944Z" fill="#E44242"/>
<path d="M83.4373 37.8721H53.5666C52.4273 37.8721 51.3262 38.1724 50.3297 38.6842L53.4062 63.2967H83.5976L86.6741 38.6842C85.6776 38.1724 84.578 37.8721 83.4373 37.8721Z" fill="url(#paint1_linear_7_125)"/>
<path d="M83.4373 37.8721H53.5666C52.4273 37.8721 51.3262 38.1724 50.3297 38.6842L53.4062 63.2967H83.5976L86.6741 38.6842C85.6776 38.1724 84.578 37.8721 83.4373 37.8721Z" fill="#F85757"/>
<path d="M83.5944 63.2967H53.4028L68.4985 37.8721L83.5944 63.2967Z" fill="#D33333"/>
</g>
<defs>
<filter id="filter0_d_7_125" x="25.5673" y="34.8721" width="85.863" height="73.1504" filterUnits="userSpaceOnUse" color-interpolation-filters="sRGB">
<feFlood flood-opacity="0" result="BackgroundImageFix"/>
<feColorMatrix in="SourceAlpha" type="matrix" values="0 0 0 0 0 0 0 0 0 0 0 0 0 0 0 0 0 0 127 0" result="hardAlpha"/>
<feOffset dy="1"/>
<feGaussianBlur stdDeviation="2"/>
<feComposite in2="hardAlpha" operator="out"/>
<feColorMatrix type="matrix" values="0 0 0 0 0.972549 0 0 0 0 0.341176 0 0 0 0 0.341176 0 0 0 0.42 0"/>
<feBlend mode="normal" in2="BackgroundImageFix" result="effect1_dropShadow_7_125"/>
<feBlend mode="normal" in="SourceGraphic" in2="effect1_dropShadow_7_125" result="shape"/>
</filter>
<linearGradient id="paint0_linear_7_125" x1="68.4991" y1="110.171" x2="68.4991" y2="77.4295" gradientUnits="userSpaceOnUse">
<stop stop-color="#3162AF"/>
<stop offset="0.299" stop-color="#3573C1"/>
<stop offset="0.706" stop-color="#3984D3"/>
<stop offset="1" stop-color="#3B8AD9"/>
</linearGradient>
<linearGradient id="paint1_linear_7_125" x1="68.5019" y1="71.6248" x2="68.5019" y2="46.2002" gradientUnits="userSpaceOnUse">
<stop stop-color="#2D91DE"/>
<stop offset="0.557" stop-color="#2EA1EB"/>
<stop offset="1" stop-color="#2FA7F0"/>
</linearGradient>
<clipPath id="clip0_7_125">
<rect width="137" height="137" fill="white"/>
</clipPath>
</defs>
</svg>
