<svg width="137" height="137" viewBox="0 0 137 137" fill="none" xmlns="http://www.w3.org/2000/svg">
<g clip-path="url(#clip0_7_180)">
<mask id="mask0_7_180" style="mask-type:luminance" maskUnits="userSpaceOnUse" x="0" y="0" width="137" height="137">
<path d="M137 0H0V137H137V0Z" fill="white"/>
</mask>
<g mask="url(#mask0_7_180)">
<path d="M137 0H0V137H137V0Z" fill="#F85757" fill-opacity="0.12"/>
<g filter="url(#filter0_d_7_180)">
<path d="M67.9256 112.998C92.8185 112.998 112.998 92.8184 112.998 67.9255C112.998 43.0327 92.8185 22.853 67.9256 22.853C43.0328 22.853 22.8531 43.0327 22.8531 67.9255C22.8531 92.8184 43.0328 112.998 67.9256 112.998Z" fill="white"/>
</g>
<g filter="url(#filter1_d_7_180)">
<path d="M62.0988 83.7048L48.4729 70.5851L52.4817 66.42L61.8328 75.421L83.1092 52.146L87.3784 56.0508L62.0988 83.7048Z" fill="#FF0000" fill-opacity="0.01"/>
</g>
<path d="M62.0988 83.7048L48.4729 70.5851L52.4817 66.42L61.8328 75.421L83.1092 52.146L87.3784 56.0508L62.0988 83.7048Z" fill="#F85757"/>
</g>
</g>
<defs>
<filter id="filter0_d_7_180" x="0.20295" y="6.16343" width="135.445" height="135.445" filterUnits="userSpaceOnUse" color-interpolation-filters="sRGB">
<feFlood flood-opacity="0" result="BackgroundImageFix"/>
<feColorMatrix in="SourceAlpha" type="matrix" values="0 0 0 0 0 0 0 0 0 0 0 0 0 0 0 0 0 0 127 0" result="hardAlpha"/>
<feOffset dy="5.9606"/>
<feGaussianBlur stdDeviation="11.3251"/>
<feComposite in2="hardAlpha" operator="out"/>
<feColorMatrix type="matrix" values="0 0 0 0 0.132391 0 0 0 0 0.13228 0 0 0 0 0.137836 0 0 0 0.07 0"/>
<feBlend mode="normal" in2="BackgroundImageFix" result="effect1_dropShadow_7_180"/>
<feBlend mode="normal" in="SourceGraphic" in2="effect1_dropShadow_7_180" result="shape"/>
</filter>
<filter id="filter1_d_7_180" x="44.4729" y="48.146" width="46.9055" height="39.5588" filterUnits="userSpaceOnUse" color-interpolation-filters="sRGB">
<feFlood flood-opacity="0" result="BackgroundImageFix"/>
<feColorMatrix in="SourceAlpha" type="matrix" values="0 0 0 0 0 0 0 0 0 0 0 0 0 0 0 0 0 0 127 0" result="hardAlpha"/>
<feOffset/>
<feGaussianBlur stdDeviation="2"/>
<feComposite in2="hardAlpha" operator="out"/>
<feColorMatrix type="matrix" values="0 0 0 0 0 0 0 0 0 0 0 0 0 0 0 0 0 0 0.1 0"/>
<feBlend mode="normal" in2="BackgroundImageFix" result="effect1_dropShadow_7_180"/>
<feBlend mode="normal" in="SourceGraphic" in2="effect1_dropShadow_7_180" result="shape"/>
</filter>
<clipPath id="clip0_7_180">
<rect width="137" height="137" fill="white"/>
</clipPath>
</defs>
</svg>
