<svg width="137" height="137" viewBox="0 0 137 137" fill="none" xmlns="http://www.w3.org/2000/svg">
<g clip-path="url(#clip0_7_118)">
<path d="M137 0H0V137H137V0Z" fill="#F85757" fill-opacity="0.12"/>
<path d="M75.7806 79.3276L82.6121 72.4961L91.0781 80.964L103.148 93.0357C105.034 94.9221 105.034 97.9805 103.148 99.8668C101.261 101.753 98.2028 101.753 96.3166 99.8664L84.2485 87.7935L75.7806 79.3276Z" fill="#222223"/>
<path d="M83.737 73.6248L76.9189 80.4429L82.5884 86.1123L89.4065 79.2943L83.737 73.6248Z" fill="#616066"/>
<g filter="url(#filter0_d_7_118)">
<path d="M60.1992 87.8263C77.2713 87.8263 91.1111 73.9867 91.1111 56.9146C91.1111 39.8425 77.2713 26.0027 60.1992 26.0027C43.1271 26.0027 29.2875 39.8425 29.2875 56.9146C29.2875 73.9867 43.1271 87.8263 60.1992 87.8263Z" fill="#F85757"/>
</g>
<path d="M60.1992 83.4048C74.8293 83.4048 86.6894 71.5447 86.6894 56.9145C86.6894 42.2844 74.8293 30.4243 60.1992 30.4243C45.5691 30.4243 33.709 42.2844 33.709 56.9145C33.709 71.5447 45.5691 83.4048 60.1992 83.4048Z" fill="white"/>
</g>
<defs>
<filter id="filter0_d_7_118" x="6.63728" y="9.31309" width="107.124" height="107.124" filterUnits="userSpaceOnUse" color-interpolation-filters="sRGB">
<feFlood flood-opacity="0" result="BackgroundImageFix"/>
<feColorMatrix in="SourceAlpha" type="matrix" values="0 0 0 0 0 0 0 0 0 0 0 0 0 0 0 0 0 0 127 0" result="hardAlpha"/>
<feOffset dy="5.9606"/>
<feGaussianBlur stdDeviation="11.3251"/>
<feComposite in2="hardAlpha" operator="out"/>
<feColorMatrix type="matrix" values="0 0 0 0 0.132391 0 0 0 0 0.13228 0 0 0 0 0.137836 0 0 0 0.07 0"/>
<feBlend mode="normal" in2="BackgroundImageFix" result="effect1_dropShadow_7_118"/>
<feBlend mode="normal" in="SourceGraphic" in2="effect1_dropShadow_7_118" result="shape"/>
</filter>
<clipPath id="clip0_7_118">
<rect width="137" height="137" fill="white"/>
</clipPath>
</defs>
</svg>
