<svg width="137" height="137" viewBox="0 0 137 137" fill="none" xmlns="http://www.w3.org/2000/svg">
<g clip-path="url(#clip0_7_233)">
<path d="M137 0H0V137H137V0Z" fill="#616066" fill-opacity="0.1"/>
<path d="M70.1295 74.6487H98.3567L96.5717 85.3643C95.9442 89.131 94.0006 92.5529 91.0869 95.0211C88.1732 97.4894 84.4783 98.8439 80.6597 98.8434H55.5669C51.7483 98.8439 48.0534 97.4894 45.1397 95.0211C42.226 92.5529 40.2824 89.131 39.6549 85.3643L37.8699 74.6487H49.9672" fill="white"/>
<path d="M70.1295 74.6487H98.3567L96.5717 85.3643C95.9442 89.131 94.0006 92.5529 91.0869 95.0211C88.1732 97.4894 84.4783 98.8439 80.6597 98.8434H55.5669C51.7483 98.8439 48.0534 97.4894 45.1397 95.0211C42.226 92.5529 40.2824 89.131 39.6549 85.3643L37.8699 74.6487H49.9672" stroke="#222223" stroke-width="2.8" stroke-linecap="round" stroke-linejoin="round"/>
<path d="M68.1109 90.7785H51.9811C51.4463 90.7785 50.9335 90.566 50.5554 90.1879C50.1773 89.8098 49.9648 89.297 49.9648 88.7623V74.6486C49.9648 73.5792 50.3897 72.5535 51.1459 71.7972C51.9021 71.041 52.9278 70.6162 53.9973 70.6162H66.0946C67.1641 70.6162 68.1897 71.041 68.946 71.7972C69.7023 72.5535 70.1271 73.5792 70.1271 74.6486V88.7623C70.1271 89.297 69.9147 89.8098 69.5366 90.1879C69.1584 90.566 68.6456 90.7785 68.1109 90.7785Z" fill="white" stroke="#222223" stroke-width="2.8" stroke-linecap="round" stroke-linejoin="round"/>
<path d="M78.1937 46.4215C78.1937 44.2826 79.0435 42.2312 80.5559 40.7188C82.0684 39.2063 84.1197 38.3567 86.2587 38.3567C88.3977 38.3567 90.449 39.2063 91.9614 40.7188C93.4739 42.2312 94.3235 44.2826 94.3235 46.4215V74.6488" stroke="#222223" stroke-width="2.8" stroke-linecap="round" stroke-linejoin="round"/>
<path d="M70.1266 54.4868C70.1266 52.3478 70.9763 50.2965 72.4888 48.7841C74.0012 47.2716 76.0526 46.4219 78.1915 46.4219C80.3305 46.4219 82.3818 47.2716 83.8943 48.7841C85.4068 50.2965 86.2565 52.3478 86.2565 54.4868H70.1266Z" fill="white" stroke="#222223" stroke-width="2.8" stroke-linecap="round" stroke-linejoin="round"/>
</g>
<defs>
<clipPath id="clip0_7_233">
<rect width="137" height="137" fill="white"/>
</clipPath>
</defs>
</svg>
