<svg width="137" height="137" viewBox="0 0 137 137" fill="none" xmlns="http://www.w3.org/2000/svg">
<g clip-path="url(#clip0_7_54)">
<path d="M137 0H0V137H137V0Z" fill="#F85757" fill-opacity="0.1"/>
<path d="M94.5193 84.94H42.4593V38.36C42.4593 36.0899 44.2992 34.25 46.5693 34.25H90.4093C92.6794 34.25 94.5193 36.0899 94.5193 38.36V84.94Z" fill="white"/>
<path d="M96.84 61.6494H96.8331C96.2207 61.6494 95.622 61.8261 95.1083 62.1604L71.4813 77.5181C70.573 78.1086 69.5331 78.4031 68.4947 78.4031C67.4562 78.4031 66.4164 78.1086 65.5081 77.5181L41.8811 62.1604C41.3687 61.8261 40.7686 61.6494 40.1562 61.6494H40.1494C38.4013 61.6494 36.9847 63.066 36.9847 64.8141V96.3145C36.9847 99.8683 40.0521 102.749 43.8347 102.749H93.1547C96.9373 102.749 100.005 99.8683 100.005 96.3145V64.8141C100.005 63.066 98.5881 61.6494 96.84 61.6494Z" fill="#F87E7E"/>
<path d="M100.004 64.8141V96.3104C100.004 99.8724 96.935 102.749 93.1538 102.749H43.8338C41.2308 102.749 38.9703 101.393 37.8195 99.3792L95.1129 62.1563C95.6198 61.8275 96.2226 61.6494 96.8254 61.6494H96.8391C98.5927 61.6494 100.004 63.0605 100.004 64.8141Z" fill="#F85757"/>
<path d="M71.24 50.69H53.43C51.9162 50.69 50.69 49.4638 50.69 47.95C50.69 46.4361 51.9162 45.21 53.43 45.21H71.24C72.7539 45.21 73.98 46.4361 73.98 47.95C73.98 49.4638 72.7539 50.69 71.24 50.69Z" fill="#222223"/>
<path d="M83.57 50.69H80.83C79.3161 50.69 78.09 49.4638 78.09 47.95C78.09 46.4361 79.3161 45.21 80.83 45.21H83.57C85.0838 45.21 86.31 46.4361 86.31 47.95C86.31 49.4638 85.0838 50.69 83.57 50.69Z" fill="#222223"/>
<path d="M61.65 60.28H53.43C51.9162 60.28 50.69 59.0539 50.69 57.54C50.69 56.0262 51.9162 54.8 53.43 54.8H61.65C63.1639 54.8 64.39 56.0262 64.39 57.54C64.39 59.0539 63.1639 60.28 61.65 60.28Z" fill="#222223"/>
<path d="M83.57 60.28H71.24C69.7261 60.28 68.5 59.0539 68.5 57.54C68.5 56.0262 69.7261 54.8 71.24 54.8H83.57C85.0839 54.8 86.31 56.0262 86.31 57.54C86.31 59.0539 85.0839 60.28 83.57 60.28Z" fill="#222223"/>
</g>
<defs>
<clipPath id="clip0_7_54">
<rect width="137" height="137" fill="white"/>
</clipPath>
</defs>
</svg>
